NotoSerifBengali-BlackCondensed.ufo
<glyph name="exclam" format="2">
  <advance width="349"/>
  <unicode hex="0021"/>
  <outline>
    <contour>
      <point x="142" y="235" type="line"/>
      <point x="207" y="235" type="line"/>
      <point x="265" y="714" type="line"/>
      <point x="84" y="714" type="line"/>
    </contour>
    <contour>
      <point x="176" y="-8" type="curve" smooth="yes"/>
      <point x="219" y="-8"/>
      <point x="256" y="12"/>
      <point x="256" y="74" type="curve" smooth="yes"/>
      <point x="256" y="136"/>
      <point x="219" y="156"/>
      <point x="176" y="156" type="curve" smooth="yes"/>
      <point x="131" y="156"/>
      <point x="96" y="136"/>
      <point x="96" y="74" type="curve" smooth="yes"/>
      <point x="96" y="12"/>
      <point x="131" y="-8"/>
    </contour>
  </outline>
</glyph>
<glyph name="quotedbl" format="2">
  <advance width="486"/>
  <unicode hex="0022"/>
  <outline>
    <contour>
      <point x="310" y="429" type="line"/>
      <point x="377" y="429" type="line"/>
      <point x="424" y="714" type="line"/>
      <point x="263" y="714" type="line"/>
    </contour>
    <contour>
      <point x="109" y="429" type="line"/>
      <point x="176" y="429" type="line"/>
      <point x="223" y="714" type="line"/>
      <point x="62" y="714" type="line"/>
    </contour>
  </outline>
</glyph>
<glyph name="asterisk" format="2">
  <advance width="419"/>
  <unicode hex="002A"/>
  <outline>
    <contour>
      <point x="159" y="363" type="line"/>
      <point x="266" y="363" type="line"/>
      <point x="232" y="526" type="line"/>
      <point x="354" y="420" type="line"/>
      <point x="398" y="524" type="line"/>
      <point x="276" y="561" type="line"/>
      <point x="398" y="599" type="line"/>
      <point x="354" y="703" type="line"/>
      <point x="232" y="596" type="line"/>
      <point x="267" y="760" type="line"/>
      <point x="159" y="760" type="line"/>
      <point x="191" y="594" type="line"/>
      <point x="69" y="705" type="line"/>
      <point x="26" y="600" type="line"/>
      <point x="148" y="561" type="line"/>
      <point x="26" y="523" type="line"/>
      <point x="69" y="418" type="line"/>
      <point x="190" y="528" type="line"/>
    </contour>
  </outline>
</glyph>
<glyph name="hyphen" format="2">
  <advance width="259"/>
  <unicode hex="002D"/>
  <outline>
    <contour>
      <point x="21" y="216" type="line"/>
      <point x="238" y="216" type="line"/>
      <point x="238" y="329" type="line"/>
      <point x="21" y="329" type="line"/>
    </contour>
  </outline>
</glyph>
<glyph name="seven" format="2">
  <advance width="466"/>
  <unicode hex="0037"/>
  <outline>
    <contour>
      <point x="118" y="0" type="line"/>
      <point x="211" y="0" type="line"/>
      <point x="435" y="660" type="line"/>
      <point x="435" y="714" type="line"/>
      <point x="39" y="714" type="line"/>
      <point x="34" y="496" type="line"/>
      <point x="95" y="496" type="line"/>
      <point x="102" y="545" type="line" smooth="yes"/>
      <point x="106" y="580"/>
      <point x="120" y="597"/>
      <point x="150" y="597" type="curve"/>
      <point x="349" y="597" type="line"/>
    </contour>
  </outline>
</glyph>
<glyph name="colon" format="2">
  <advance width="272"/>
  <unicode hex="003A"/>
  <outline>
    <contour>
      <point x="136" y="380" type="curve" smooth="yes"/>
      <point x="178" y="380"/>
      <point x="216" y="400"/>
      <point x="216" y="462" type="curve" smooth="yes"/>
      <point x="216" y="524"/>
      <point x="178" y="544"/>
      <point x="136" y="544" type="curve" smooth="yes"/>
      <point x="91" y="544"/>
      <point x="56" y="524"/>
      <point x="56" y="462" type="curve" smooth="yes"/>
      <point x="56" y="400"/>
      <point x="91" y="380"/>
    </contour>
    <contour>
      <point x="136" y="-8" type="curve" smooth="yes"/>
      <point x="178" y="-8"/>
      <point x="216" y="12"/>
      <point x="216" y="74" type="curve" smooth="yes"/>
      <point x="216" y="136"/>
      <point x="178" y="156"/>
      <point x="136" y="156" type="curve" smooth="yes"/>
      <point x="91" y="156"/>
      <point x="56" y="136"/>
      <point x="56" y="74" type="curve" smooth="yes"/>
      <point x="56" y="12"/>
      <point x="91" y="-8"/>
    </contour>
  </outline>
</glyph>
<glyph name="semicolon" format="2">
  <advance width="264"/>
  <unicode hex="003B"/>
  <outline>
    <contour>
      <point x="47" y="-154" type="line"/>
      <point x="163" y="-120"/>
      <point x="206" y="-45"/>
      <point x="206" y="38" type="curve" smooth="yes"/>
      <point x="206" y="110"/>
      <point x="181" y="156"/>
      <point x="125" y="156" type="curve" smooth="yes"/>
      <point x="88" y="156"/>
      <point x="56" y="131"/>
      <point x="56" y="86" type="curve" smooth="yes"/>
      <point x="56" y="2"/>
      <point x="117" y="11"/>
      <point x="117" y="-25" type="curve" smooth="yes"/>
      <point x="117" y="-63"/>
      <point x="92" y="-80"/>
      <point x="47" y="-100" type="curve"/>
    </contour>
    <contour>
      <point x="131" y="380" type="curve" smooth="yes"/>
      <point x="174" y="380"/>
      <point x="211" y="400"/>
      <point x="211" y="462" type="curve" smooth="yes"/>
      <point x="211" y="524"/>
      <point x="174" y="544"/>
      <point x="131" y="544" type="curve" smooth="yes"/>
      <point x="86" y="544"/>
      <point x="51" y="524"/>
      <point x="51" y="462" type="curve" smooth="yes"/>
      <point x="51" y="400"/>
      <point x="86" y="380"/>
    </contour>
  </outline>
</glyph>
<glyph name="equal" format="2">
  <advance width="425"/>
  <unicode hex="003D"/>
  <outline>
    <contour>
      <point x="31" y="408" type="line"/>
      <point x="394" y="408" type="line"/>
      <point x="394" y="481" type="line"/>
      <point x="31" y="481" type="line"/>
    </contour>
    <contour>
      <point x="31" y="233" type="line"/>
      <point x="394" y="233" type="line"/>
      <point x="394" y="306" type="line"/>
      <point x="31" y="306" type="line"/>
    </contour>
  </outline>
</glyph>
<glyph name="asciicircum" format="2">
  <advance width="424"/>
  <unicode hex="005E"/>
  <outline>
    <contour>
      <point x="15" y="261" type="line"/>
      <point x="86" y="261" type="line"/>
      <point x="211" y="600" type="line"/>
      <point x="337" y="261" type="line"/>
      <point x="409" y="261" type="line"/>
      <point x="232" y="714" type="line"/>
      <point x="191" y="714" type="line"/>
    </contour>
  </outline>
</glyph>
<glyph name="udatta-deva" format="2">
  <unicode hex="0951"/>
  <outline>
    <contour>
      <point x="-169" y="672" type="line"/>
      <point x="-59" y="672" type="line"/>
      <point x="-59" y="875" type="line"/>
      <point x="-169" y="875" type="line"/>
    </contour>
  </outline>
</glyph>
<glyph name="anudatta-deva" format="2">
  <unicode hex="0952"/>
  <anchor x="-299" y="450" name="_vedic"/>
  <outline>
    <contour>
      <point x="-499" y="-165" type="line"/>
      <point x="-98" y="-165" type="line"/>
      <point x="-98" y="-79" type="line"/>
      <point x="-499" y="-79" type="line"/>
    </contour>
  </outline>
</glyph>
<glyph name="danda-deva" format="2">
  <advance width="360"/>
  <unicode hex="0964"/>
  <outline>
    <contour>
      <point x="309" y="-43" type="line"/>
      <point x="320" y="-40" type="line"/>
      <point x="320" y="591" type="line"/>
      <point x="208" y="628" type="line"/>
      <point x="205" y="628" type="line"/>
      <point x="205" y="-1" type="line"/>
    </contour>
  </outline>
</glyph>
<glyph name="dbldanda-deva" format="2">
  <advance width="529"/>
  <unicode hex="0965"/>
  <outline>
    <contour>
      <point x="478" y="-43" type="line"/>
      <point x="489" y="-40" type="line"/>
      <point x="489" y="591" type="line"/>
      <point x="377" y="628" type="line"/>
      <point x="374" y="628" type="line"/>
      <point x="374" y="-1" type="line"/>
    </contour>
    <contour>
      <point x="309" y="-43" type="line"/>
      <point x="320" y="-40" type="line"/>
      <point x="320" y="591" type="line"/>
      <point x="208" y="628" type="line"/>
      <point x="205" y="628" type="line"/>
      <point x="205" y="-1" type="line"/>
    </contour>
  </outline>
</glyph>
<glyph name="anji-beng" format="2">
  <advance width="536"/>
  <unicode hex="0980"/>
  <outline>
    <contour>
      <point x="444" y="-57" type="curve" smooth="yes"/>
      <point x="502" y="-57"/>
      <point x="537" y="-21"/>
      <point x="537" y="35" type="curve" smooth="yes"/>
      <point x="537" y="90"/>
      <point x="501" y="124"/>
      <point x="458" y="124" type="curve" smooth="yes"/>
      <point x="408" y="124"/>
      <point x="391" y="81"/>
      <point x="391" y="51" type="curve"/>
      <point x="441" y="43" type="line"/>
      <point x="441" y="462" type="line" smooth="yes"/>
      <point x="441" y="566"/>
      <point x="362" y="637"/>
      <point x="252" y="637" type="curve" smooth="yes"/>
      <point x="136" y="637"/>
      <point x="32" y="542"/>
      <point x="32" y="396" type="curve" smooth="yes"/>
      <point x="32" y="258"/>
      <point x="110" y="177"/>
      <point x="206" y="177" type="curve" smooth="yes"/>
      <point x="269" y="177"/>
      <point x="308" y="221"/>
      <point x="308" y="285" type="curve" smooth="yes"/>
      <point x="308" y="343"/>
      <point x="278" y="382"/>
      <point x="229" y="382" type="curve" smooth="yes"/>
      <point x="183" y="382"/>
      <point x="153" y="347"/>
      <point x="153" y="297" type="curve" smooth="yes"/>
      <point x="153" y="274"/>
      <point x="156" y="255"/>
      <point x="160" y="244" type="curve"/>
      <point x="210" y="269" type="line"/>
      <point x="198" y="266"/>
      <point x="185" y="265"/>
      <point x="174" y="265" type="curve" smooth="yes"/>
      <point x="149" y="265"/>
      <point x="134" y="293"/>
      <point x="134" y="352" type="curve" smooth="yes"/>
      <point x="134" y="455"/>
      <point x="231" y="522"/>
      <point x="284" y="522" type="curve" smooth="yes"/>
      <point x="317" y="522"/>
      <point x="330" y="504"/>
      <point x="330" y="467" type="curve" smooth="yes"/>
      <point x="330" y="84" type="line" smooth="yes"/>
      <point x="330" y="3"/>
      <point x="372" y="-57"/>
    </contour>
  </outline>
</glyph>
<glyph name="anusvara-beng" format="2">
  <advance width="347"/>
  <unicode hex="0982"/>
  <outline>
    <contour>
      <point x="175" y="314" type="curve" smooth="yes"/>
      <point x="255" y="314"/>
      <point x="314" y="378"/>
      <point x="314" y="470" type="curve" smooth="yes"/>
      <point x="314" y="554"/>
      <point x="259" y="621"/>
      <point x="181" y="621" type="curve" smooth="yes"/>
      <point x="100" y="621"/>
      <point x="40" y="554"/>
      <point x="40" y="464" type="curve" smooth="yes"/>
      <point x="40" y="383"/>
      <point x="96" y="314"/>
    </contour>
    <contour>
      <point x="146" y="402" type="curve" smooth="yes"/>
      <point x="135" y="402"/>
      <point x="126" y="411"/>
      <point x="126" y="430" type="curve" smooth="yes"/>
      <point x="126" y="474"/>
      <point x="183" y="533"/>
      <point x="210" y="533" type="curve" smooth="yes"/>
      <point x="224" y="533"/>
      <point x="230" y="523"/>
      <point x="230" y="507" type="curve" smooth="yes"/>
      <point x="230" y="468"/>
      <point x="178" y="402"/>
    </contour>
    <contour>
      <point x="285" y="-88" type="curve"/>
      <point x="347" y="-67" type="line"/>
      <point x="282" y="96"/>
      <point x="202" y="226"/>
      <point x="109" y="285" type="curve"/>
      <point x="40" y="142" type="line"/>
      <point x="126" y="102"/>
      <point x="185" y="67"/>
    </contour>
  </outline>
</glyph>
<glyph name="visarga-beng" format="2">
  <advance width="354"/>
  <unicode hex="0983"/>
  <outline>
    <contour>
      <point x="175" y="314" type="curve" smooth="yes"/>
      <point x="255" y="314"/>
      <point x="314" y="378"/>
      <point x="314" y="470" type="curve" smooth="yes"/>
      <point x="314" y="554"/>
      <point x="259" y="621"/>
      <point x="181" y="621" type="curve" smooth="yes"/>
      <point x="100" y="621"/>
      <point x="40" y="554"/>
      <point x="40" y="464" type="curve" smooth="yes"/>
      <point x="40" y="383"/>
      <point x="96" y="314"/>
    </contour>
    <contour>
      <point x="146" y="402" type="curve" smooth="yes"/>
      <point x="135" y="402"/>
      <point x="126" y="411"/>
      <point x="126" y="430" type="curve" smooth="yes"/>
      <point x="126" y="474"/>
      <point x="183" y="533"/>
      <point x="210" y="533" type="curve" smooth="yes"/>
      <point x="224" y="533"/>
      <point x="230" y="523"/>
      <point x="230" y="507" type="curve" smooth="yes"/>
      <point x="230" y="468"/>
      <point x="178" y="402"/>
    </contour>
    <contour>
      <point x="175" y="-36" type="curve" smooth="yes"/>
      <point x="255" y="-36"/>
      <point x="314" y="28"/>
      <point x="314" y="120" type="curve" smooth="yes"/>
      <point x="314" y="204"/>
      <point x="259" y="271"/>
      <point x="181" y="271" type="curve" smooth="yes"/>
      <point x="100" y="271"/>
      <point x="40" y="204"/>
      <point x="40" y="114" type="curve" smooth="yes"/>
      <point x="40" y="33"/>
      <point x="96" y="-36"/>
    </contour>
    <contour>
      <point x="146" y="52" type="curve" smooth="yes"/>
      <point x="135" y="52"/>
      <point x="126" y="61"/>
      <point x="126" y="80" type="curve" smooth="yes"/>
      <point x="126" y="124"/>
      <point x="183" y="183"/>
      <point x="210" y="183" type="curve" smooth="yes"/>
      <point x="224" y="183"/>
      <point x="230" y="173"/>
      <point x="230" y="157" type="curve" smooth="yes"/>
      <point x="230" y="118"/>
      <point x="178" y="52"/>
    </contour>
  </outline>
</glyph>
<glyph name="a-beng" format="2">
  <advance width="729"/>
  <unicode hex="0985"/>
  <anchor x="686" y="0" name="bottom"/>
  <anchor x="687" y="100" name="bottom.rakaar"/>
  <anchor x="686" y="11" name="bottom.rvocalic"/>
  <anchor x="668" y="20" name="bottom.virama"/>
  <anchor x="686" y="536" name="top"/>
  <anchor x="686" y="536" name="topright"/>
  <outline>
    <contour>
      <point x="672" y="-32" type="line"/>
      <point x="683" y="-29" type="line"/>
      <point x="683" y="536" type="line"/>
      <point x="764" y="536" type="line"/>
      <point x="718" y="622" type="line"/>
      <point x="-35" y="622" type="line"/>
      <point x="10" y="536" type="line"/>
      <point x="572" y="536" type="line"/>
      <point x="572" y="108" type="line"/>
      <point x="593" y="108" type="line"/>
      <point x="571" y="167"/>
      <point x="536" y="211"/>
      <point x="496" y="241" type="curve"/>
      <point x="453" y="137" type="line"/>
      <point x="508" y="109"/>
      <point x="558" y="69"/>
      <point x="597" y="12" type="curve"/>
    </contour>
    <contour>
      <point x="331" y="20" type="curve" smooth="yes"/>
      <point x="423" y="20"/>
      <point x="531" y="80"/>
      <point x="531" y="258" type="curve" smooth="yes"/>
      <point x="531" y="391"/>
      <point x="457" y="493"/>
      <point x="317" y="493" type="curve" smooth="yes"/>
      <point x="228" y="493"/>
      <point x="179" y="438"/>
      <point x="179" y="360" type="curve" smooth="yes"/>
      <point x="179" y="292"/>
      <point x="223" y="237"/>
      <point x="295" y="237" type="curve" smooth="yes"/>
      <point x="363" y="237"/>
      <point x="399" y="287"/>
      <point x="399" y="354" type="curve" smooth="yes"/>
      <point x="399" y="451"/>
      <point x="328" y="521"/>
      <point x="286" y="553" type="curve"/>
      <point x="90" y="552" type="line"/>
      <point x="248" y="521"/>
      <point x="306" y="434"/>
      <point x="317" y="344" type="curve"/>
      <point x="325" y="351"/>
      <point x="349" y="364"/>
      <point x="374" y="364" type="curve" smooth="yes"/>
      <point x="412" y="364"/>
      <point x="451" y="340"/>
      <point x="451" y="278" type="curve" smooth="yes"/>
      <point x="451" y="205"/>
      <point x="394" y="174"/>
      <point x="327" y="174" type="curve" smooth="yes"/>
      <point x="225" y="174"/>
      <point x="134" y="244"/>
      <point x="73" y="470" type="curve"/>
      <point x="6" y="455" type="line"/>
      <point x="71" y="163"/>
      <point x="162" y="20"/>
    </contour>
  </outline>
</glyph>
<glyph name="aa-beng" format="2">
  <advance width="963"/>
  <unicode hex="0986"/>
  <anchor x="682" y="0" name="bottom"/>
  <anchor x="681" y="100" name="bottom.rakaar"/>
  <anchor x="681" y="11" name="bottom.rvocalic"/>
  <anchor x="663" y="20" name="bottom.virama"/>
  <anchor x="920" y="536" name="top"/>
  <anchor x="920" y="523" name="topright"/>
  <outline>
    <contour>
      <point x="672" y="-32" type="line"/>
      <point x="683" y="-29" type="line"/>
      <point x="683" y="536" type="line"/>
      <point x="764" y="536" type="line"/>
      <point x="718" y="622" type="line"/>
      <point x="-35" y="622" type="line"/>
      <point x="10" y="536" type="line"/>
      <point x="572" y="536" type="line"/>
      <point x="572" y="108" type="line"/>
      <point x="593" y="108" type="line"/>
      <point x="571" y="167"/>
      <point x="536" y="211"/>
      <point x="496" y="241" type="curve"/>
      <point x="453" y="137" type="line"/>
      <point x="508" y="109"/>
      <point x="558" y="69"/>
      <point x="597" y="12" type="curve"/>
    </contour>
    <contour>
      <point x="331" y="20" type="curve" smooth="yes"/>
      <point x="423" y="20"/>
      <point x="531" y="80"/>
      <point x="531" y="258" type="curve" smooth="yes"/>
      <point x="531" y="391"/>
      <point x="457" y="493"/>
      <point x="317" y="493" type="curve" smooth="yes"/>
      <point x="228" y="493"/>
      <point x="179" y="438"/>
      <point x="179" y="360" type="curve" smooth="yes"/>
      <point x="179" y="292"/>
      <point x="223" y="237"/>
      <point x="295" y="237" type="curve" smooth="yes"/>
      <point x="363" y="237"/>
      <point x="399" y="287"/>
      <point x="399" y="354" type="curve" smooth="yes"/>
      <point x="399" y="451"/>
      <point x="328" y="521"/>
      <point x="286" y="553" type="curve"/>
      <point x="90" y="552" type="line"/>
      <point x="248" y="521"/>
      <point x="306" y="434"/>
      <point x="317" y="344" type="curve"/>
      <point x="325" y="351"/>
      <point x="349" y="364"/>
      <point x="374" y="364" type="curve" smooth="yes"/>
      <point x="412" y="364"/>
      <point x="451" y="340"/>
      <point x="451" y="278" type="curve" smooth="yes"/>
      <point x="451" y="205"/>
      <point x="394" y="174"/>
      <point x="327" y="174" type="curve" smooth="yes"/>
      <point x="225" y="174"/>
      <point x="134" y="244"/>
      <point x="73" y="470" type="curve"/>
      <point x="6" y="455" type="line"/>
      <point x="71" y="163"/>
      <point x="162" y="20"/>
    </contour>
    <contour>
      <point x="906" y="-43" type="line"/>
      <point x="917" y="-40" type="line"/>
      <point x="917" y="536" type="line"/>
      <point x="998" y="536" type="line"/>
      <point x="952" y="622" type="line"/>
      <point x="904" y="622" type="line"/>
      <point x="894" y="686" type="line"/>
      <point x="819" y="724" type="line"/>
      <point x="810" y="720" type="line"/>
      <point x="810" y="648" type="line" smooth="yes"/>
      <point x="810" y="604"/>
      <point x="814" y="565"/>
      <point x="817" y="540" type="curve"/>
      <point x="825" y="541" type="line"/>
      <point x="810" y="603"/>
      <point x="795" y="622"/>
      <point x="753" y="622" type="curve" smooth="yes"/>
      <point x="698" y="622" type="line"/>
      <point x="745" y="536" type="line"/>
      <point x="781" y="536" type="line" smooth="yes"/>
      <point x="794" y="536"/>
      <point x="801" y="520"/>
      <point x="806" y="497" type="curve"/>
      <point x="806" y="-1" type="line"/>
    </contour>
  </outline>
</glyph>
<glyph name="i-beng" format="2">
  <advance width="469"/>
  <unicode hex="0987"/>
  <anchor x="330" y="25" name="bottom"/>
  <anchor x="463" y="-100" name="bottom.rakaar"/>
  <anchor x="423" y="18" name="bottom.rvocalic"/>
  <anchor x="323" y="30" name="bottom.virama"/>
  <anchor x="367" y="605" name="top"/>
  <anchor x="315" y="604" name="topright"/>
  <anchor x="234" y="0" name="vedic"/>
  <outline>
    <contour>
      <point x="363" y="588" type="curve"/>
      <point x="428" y="588" type="line"/>
      <point x="422" y="755"/>
      <point x="365" y="823"/>
      <point x="269" y="823" type="curve" smooth="yes"/>
      <point x="217" y="823"/>
      <point x="181" y="812"/>
      <point x="130" y="812" type="curve" smooth="yes"/>
      <point x="63" y="812"/>
      <point x="37" y="841"/>
      <point x="37" y="895" type="curve" smooth="yes"/>
      <point x="37" y="907"/>
      <point x="38" y="922"/>
      <point x="40" y="936" type="curve"/>
      <point x="-14" y="943" type="line"/>
      <point x="-20" y="917"/>
      <point x="-23" y="886"/>
      <point x="-23" y="858" type="curve" smooth="yes"/>
      <point x="-23" y="756"/>
      <point x="30" y="684"/>
      <point x="140" y="684" type="curve" smooth="yes"/>
      <point x="200" y="684"/>
      <point x="239" y="695"/>
      <point x="277" y="695" type="curve" smooth="yes"/>
      <point x="324" y="695"/>
      <point x="357" y="677"/>
    </contour>
    <component base="ha-beng"/>
  </outline>
</glyph>
<glyph name="ii-beng" format="2">
  <advance width="643"/>
  <unicode hex="0988"/>
  <anchor x="574" y="-30" name="bottom"/>
  <anchor x="578" y="30" name="bottom.rakaar"/>
  <anchor x="572" y="-57" name="bottom.rvocalic"/>
  <anchor x="565" y="-65" name="bottom.virama"/>
  <anchor x="400" y="605" name="top"/>
  <anchor x="355" y="604" name="topright"/>
  <outline>
    <contour>
      <point x="532" y="-106" type="curve"/>
      <point x="589" y="-83" type="line"/>
      <point x="566" y="-2"/>
      <point x="561" y="41"/>
      <point x="561" y="105" type="curve" smooth="yes"/>
      <point x="561" y="202"/>
      <point x="588" y="297"/>
      <point x="627" y="372" type="curve"/>
      <point x="489" y="486" type="line"/>
      <point x="412" y="433"/>
      <point x="373" y="351"/>
      <point x="334" y="274" type="curve"/>
      <point x="364" y="209" type="line"/>
      <point x="371" y="234"/>
      <point x="373" y="260"/>
      <point x="373" y="288" type="curve" smooth="yes"/>
      <point x="373" y="396"/>
      <point x="329" y="490"/>
      <point x="179" y="490" type="curve" smooth="yes"/>
      <point x="94" y="490"/>
      <point x="42" y="445"/>
      <point x="42" y="372" type="curve" smooth="yes"/>
      <point x="42" y="297"/>
      <point x="95" y="259"/>
      <point x="153" y="259" type="curve" smooth="yes"/>
      <point x="213" y="259"/>
      <point x="259" y="301"/>
      <point x="257" y="382" type="curve" smooth="yes"/>
      <point x="255" y="463"/>
      <point x="205" y="529"/>
      <point x="180" y="543" type="curve"/>
      <point x="37" y="543" type="line"/>
      <point x="77" y="529"/>
      <point x="126" y="501"/>
      <point x="176" y="455" type="curve"/>
      <point x="165" y="357" type="line"/>
      <point x="174" y="376"/>
      <point x="210" y="387"/>
      <point x="230" y="387" type="curve" smooth="yes"/>
      <point x="275" y="387"/>
      <point x="302" y="360"/>
      <point x="302" y="306" type="curve" smooth="yes"/>
      <point x="302" y="267"/>
      <point x="291" y="226"/>
      <point x="273" y="193" type="curve" smooth="yes"/>
      <point x="255" y="159"/>
      <point x="228" y="135"/>
      <point x="198" y="135" type="curve" smooth="yes"/>
      <point x="156" y="135"/>
      <point x="130" y="169"/>
      <point x="104" y="219" type="curve"/>
      <point x="44" y="189" type="line"/>
      <point x="84" y="83"/>
      <point x="144" y="-10"/>
      <point x="242" y="-10" type="curve" smooth="yes"/>
      <point x="324" y="-10"/>
      <point x="378" y="101"/>
      <point x="431" y="198" type="curve" smooth="yes"/>
      <point x="469" y="264"/>
      <point x="505" y="330"/>
      <point x="549" y="359" type="curve"/>
      <point x="507" y="375" type="line"/>
      <point x="477" y="303"/>
      <point x="465" y="240"/>
      <point x="465" y="155" type="curve" smooth="yes"/>
      <point x="465" y="45"/>
      <point x="498" y="-39"/>
    </contour>
    <contour>
      <point x="10" y="536" type="line"/>
      <point x="678" y="536" type="line"/>
      <point x="634" y="622" type="line"/>
      <point x="-35" y="622" type="line"/>
    </contour>
    <contour>
      <point x="488" y="588" type="curve"/>
      <point x="557" y="588" type="line"/>
      <point x="546" y="737"/>
      <point x="500" y="829"/>
      <point x="368" y="829" type="curve" smooth="yes"/>
      <point x="290" y="829"/>
      <point x="280" y="812"/>
      <point x="179" y="812" type="curve" smooth="yes"/>
      <point x="112" y="812"/>
      <point x="88" y="841"/>
      <point x="88" y="895" type="curve" smooth="yes"/>
      <point x="88" y="907"/>
      <point x="89" y="922"/>
      <point x="91" y="936" type="curve"/>
      <point x="36" y="943" type="line"/>
      <point x="30" y="917"/>
      <point x="26" y="886"/>
      <point x="26" y="858" type="curve" smooth="yes"/>
      <point x="26" y="756"/>
      <point x="80" y="684"/>
      <point x="206" y="684" type="curve" smooth="yes"/>
      <point x="289" y="684"/>
      <point x="321" y="704"/>
      <point x="387" y="704" type="curve" smooth="yes"/>
      <point x="455" y="704"/>
      <point x="480" y="676"/>
    </contour>
  </outline>
</glyph>
<glyph name="u-beng" format="2">
  <advance width="554"/>
  <unicode hex="0989"/>
  <anchor x="443" y="-23" name="bottom"/>
  <anchor x="503" y="-11" name="bottom.rakaar"/>
  <anchor x="436" y="5" name="bottom.rvocalic"/>
  <anchor x="377" y="-10" name="bottom.virama"/>
  <anchor x="374" y="598" name="top"/>
  <anchor x="309" y="605" name="topright"/>
  <anchor x="277" y="0" name="vedic"/>
  <anchor x="302" y="-142" name="nukta"/>
  <outline>
    <contour>
      <point x="431" y="588" type="curve"/>
      <point x="498" y="588" type="line"/>
      <point x="491" y="755"/>
      <point x="434" y="824"/>
      <point x="332" y="824" type="curve" smooth="yes"/>
      <point x="276" y="824"/>
      <point x="241" y="812"/>
      <point x="187" y="812" type="curve" smooth="yes"/>
      <point x="120" y="812"/>
      <point x="96" y="841"/>
      <point x="96" y="895" type="curve" smooth="yes"/>
      <point x="96" y="907"/>
      <point x="97" y="922"/>
      <point x="99" y="936" type="curve"/>
      <point x="44" y="943" type="line"/>
      <point x="38" y="917"/>
      <point x="34" y="886"/>
      <point x="34" y="858" type="curve" smooth="yes"/>
      <point x="34" y="756"/>
      <point x="88" y="684"/>
      <point x="204" y="684" type="curve" smooth="yes"/>
      <point x="267" y="684"/>
      <point x="308" y="696"/>
      <point x="342" y="696" type="curve" smooth="yes"/>
      <point x="392" y="696"/>
      <point x="425" y="679"/>
    </contour>
    <component base="dda-beng"/>
  </outline>
</glyph>
<glyph name="uu-beng" format="2">
  <advance width="664"/>
  <unicode hex="098A"/>
  <anchor x="537" y="-36" name="bottom"/>
  <anchor x="599" y="-21" name="bottom.rakaar"/>
  <anchor x="530" y="-8" name="bottom.rvocalic"/>
  <anchor x="471" y="-21" name="bottom.virama"/>
  <anchor x="441" y="602" name="top"/>
  <anchor x="421" y="604" name="topright"/>
  <outline>
    <contour>
      <point x="411" y="-27" type="curve" smooth="yes"/>
      <point x="579" y="-27"/>
      <point x="654" y="75"/>
      <point x="654" y="228" type="curve" smooth="yes"/>
      <point x="654" y="342"/>
      <point x="611" y="422"/>
      <point x="558" y="475" type="curve"/>
      <point x="507" y="385"/>
      <point x="466" y="348"/>
      <point x="436" y="348" type="curve" smooth="yes"/>
      <point x="424" y="348"/>
      <point x="407" y="354"/>
      <point x="407" y="380" type="curve" smooth="yes"/>
      <point x="407" y="536" type="line"/>
      <point x="699" y="536" type="line"/>
      <point x="652" y="622" type="line"/>
      <point x="-35" y="622" type="line"/>
      <point x="12" y="536" type="line"/>
      <point x="296" y="536" type="line"/>
      <point x="296" y="374" type="line" smooth="yes"/>
      <point x="296" y="319"/>
      <point x="309" y="281"/>
      <point x="337" y="251" type="curve" smooth="yes"/>
      <point x="366" y="220"/>
      <point x="397" y="205"/>
      <point x="444" y="205" type="curve" smooth="yes"/>
      <point x="505" y="205"/>
      <point x="570" y="253"/>
      <point x="604" y="331" type="curve"/>
      <point x="548" y="322" type="line"/>
      <point x="565" y="301"/>
      <point x="576" y="272"/>
      <point x="576" y="243" type="curve" smooth="yes"/>
      <point x="576" y="168"/>
      <point x="520" y="124"/>
      <point x="433" y="124" type="curve" smooth="yes"/>
      <point x="273" y="124"/>
      <point x="232" y="268"/>
      <point x="179" y="486" type="curve"/>
      <point x="118" y="470" type="line"/>
      <point x="139" y="307"/>
      <point x="174" y="195"/>
      <point x="212" y="107" type="curve"/>
      <point x="258" y="118" type="line"/>
      <point x="169" y="152"/>
      <point x="115" y="271"/>
      <point x="56" y="476" type="curve"/>
      <point x="-4" y="460" type="line"/>
      <point x="50" y="141"/>
      <point x="179" y="-27"/>
    </contour>
    <contour>
      <point x="546" y="588" type="curve"/>
      <point x="615" y="588" type="line"/>
      <point x="604" y="737"/>
      <point x="538" y="829"/>
      <point x="406" y="829" type="curve" smooth="yes"/>
      <point x="328" y="829"/>
      <point x="288" y="812"/>
      <point x="187" y="812" type="curve" smooth="yes"/>
      <point x="120" y="812"/>
      <point x="96" y="841"/>
      <point x="96" y="895" type="curve" smooth="yes"/>
      <point x="96" y="907"/>
      <point x="97" y="922"/>
      <point x="99" y="936" type="curve"/>
      <point x="44" y="943" type="line"/>
      <point x="38" y="917"/>
      <point x="34" y="886"/>
      <point x="34" y="858" type="curve" smooth="yes"/>
      <point x="34" y="756"/>
      <point x="88" y="684"/>
      <point x="214" y="684" type="curve" smooth="yes"/>
      <point x="297" y="684"/>
      <point x="359" y="704"/>
      <point x="425" y="704" type="curve" smooth="yes"/>
      <point x="493" y="704"/>
      <point x="538" y="676"/>
    </contour>
  </outline>
</glyph>
<glyph name="lVocalic-beng" format="2">
  <advance width="498"/>
  <unicode hex="098C"/>
  <anchor x="407" y="536" name="top"/>
  <outline>
    <contour>
      <point x="280" y="-29" type="line"/>
      <point x="370" y="-18"/>
      <point x="490" y="50"/>
      <point x="490" y="259" type="curve" smooth="yes"/>
      <point x="490" y="395"/>
      <point x="423" y="466"/>
      <point x="285" y="503" type="curve" smooth="yes"/>
      <point x="192" y="528"/>
      <point x="140" y="539"/>
      <point x="140" y="616" type="curve" smooth="yes"/>
      <point x="140" y="648"/>
      <point x="145" y="670"/>
      <point x="157" y="699" type="curve"/>
      <point x="97" y="718" type="line"/>
      <point x="77" y="680"/>
      <point x="54" y="630"/>
      <point x="54" y="557" type="curve" smooth="yes"/>
      <point x="54" y="440"/>
      <point x="124" y="398"/>
      <point x="237" y="367" type="curve" smooth="yes"/>
      <point x="345" y="337"/>
      <point x="409" y="328"/>
      <point x="409" y="225" type="curve" smooth="yes"/>
      <point x="409" y="147"/>
      <point x="376" y="106"/>
      <point x="323" y="104" type="curve"/>
      <point x="385" y="69" type="line"/>
      <point x="385" y="218"/>
      <point x="311" y="333"/>
      <point x="186" y="333" type="curve" smooth="yes"/>
      <point x="70" y="333"/>
      <point x="22" y="242"/>
      <point x="22" y="150" type="curve" smooth="yes"/>
      <point x="22" y="40"/>
      <point x="74" y="-15"/>
      <point x="142" y="-15" type="curve" smooth="yes"/>
      <point x="201" y="-15"/>
      <point x="227" y="22"/>
      <point x="227" y="78" type="curve" smooth="yes"/>
      <point x="227" y="131"/>
      <point x="197" y="164"/>
      <point x="151" y="164" type="curve" smooth="yes"/>
      <point x="110" y="164"/>
      <point x="81" y="134"/>
      <point x="82" y="94" type="curve"/>
      <point x="143" y="86" type="line"/>
      <point x="125" y="92"/>
      <point x="113" y="110"/>
      <point x="113" y="141" type="curve" smooth="yes"/>
      <point x="113" y="177"/>
      <point x="135" y="204"/>
      <point x="173" y="204" type="curve" smooth="yes"/>
      <point x="251" y="204"/>
      <point x="277" y="99"/>
      <point x="277" y="19" type="curve" smooth="yes"/>
      <point x="277" y="6"/>
      <point x="276" y="-7"/>
      <point x="273" y="-22" type="curve"/>
    </contour>
  </outline>
</glyph>
<glyph name="e-beng" format="2">
  <advance width="595"/>
  <unicode hex="098F"/>
  <anchor x="549" y="0" name="bottom"/>
  <anchor x="549" y="-10" name="bottom.rvocalic"/>
  <anchor x="531" y="10" name="bottom.virama"/>
  <anchor x="471" y="536" name="top"/>
  <anchor x="474" y="536" name="topright"/>
  <outline>
    <contour>
      <point x="539" y="-41" type="line"/>
      <point x="550" y="-38" type="line"/>
      <point x="550" y="475" type="line" smooth="yes"/>
      <point x="550" y="568"/>
      <point x="490" y="633"/>
      <point x="391" y="633" type="curve" smooth="yes"/>
      <point x="274" y="633"/>
      <point x="160" y="525"/>
      <point x="160" y="385" type="curve" smooth="yes"/>
      <point x="160" y="298"/>
      <point x="222" y="249"/>
      <point x="291" y="249" type="curve" smooth="yes"/>
      <point x="356" y="249"/>
      <point x="396" y="298"/>
      <point x="396" y="357" type="curve" smooth="yes"/>
      <point x="396" y="411"/>
      <point x="363" y="446"/>
      <point x="322" y="446" type="curve" smooth="yes"/>
      <point x="300" y="446"/>
      <point x="281" y="434"/>
      <point x="269" y="415" type="curve"/>
      <point x="330" y="407" type="line"/>
      <point x="333" y="491"/>
      <point x="377" y="537"/>
      <point x="413" y="537" type="curve" smooth="yes"/>
      <point x="428" y="537"/>
      <point x="439" y="523"/>
      <point x="439" y="500" type="curve" smooth="yes"/>
      <point x="439" y="271" type="line" smooth="yes"/>
      <point x="439" y="216"/>
      <point x="445" y="136"/>
      <point x="454" y="98" type="curve"/>
      <point x="412" y="186"/>
      <point x="363" y="203"/>
      <point x="311" y="203" type="curve" smooth="yes"/>
      <point x="275" y="203"/>
      <point x="239" y="194"/>
      <point x="193" y="194" type="curve" smooth="yes"/>
      <point x="128" y="194"/>
      <point x="92" y="230"/>
      <point x="92" y="313" type="curve" smooth="yes"/>
      <point x="92" y="341"/>
      <point x="96" y="372"/>
      <point x="105" y="406" type="curve"/>
      <point x="42" y="416" type="line"/>
      <point x="28" y="367"/>
      <point x="20" y="312"/>
      <point x="20" y="258" type="curve" smooth="yes"/>
      <point x="20" y="96"/>
      <point x="106" y="35"/>
      <point x="204" y="35" type="curve" smooth="yes"/>
      <point x="272" y="35"/>
      <point x="324" y="57"/>
      <point x="372" y="57" type="curve" smooth="yes"/>
      <point x="404" y="57"/>
      <point x="440" y="42"/>
      <point x="471" y="-4" type="curve"/>
    </contour>
  </outline>
</glyph>
<glyph name="ai-beng" format="2">
  <advance width="680"/>
  <unicode hex="0990"/>
  <anchor x="549" y="0" name="bottom"/>
  <anchor x="549" y="-10" name="bottom.rvocalic"/>
  <anchor x="531" y="10" name="bottom.virama"/>
  <anchor x="501" y="606" name="top"/>
  <anchor x="453" y="596" name="topright"/>
  <outline>
    <contour>
      <point x="518" y="290" type="line"/>
      <point x="588" y="361"/>
      <point x="640" y="442"/>
      <point x="640" y="564" type="curve" smooth="yes"/>
      <point x="640" y="735"/>
      <point x="507" y="773"/>
      <point x="393" y="798" type="curve" smooth="yes"/>
      <point x="302" y="818"/>
      <point x="213" y="838"/>
      <point x="213" y="925" type="curve" smooth="yes"/>
      <point x="213" y="955"/>
      <point x="220" y="988"/>
      <point x="232" y="1015" type="curve"/>
      <point x="172" y="1034" type="line"/>
      <point x="152" y="985"/>
      <point x="139" y="941"/>
      <point x="139" y="887" type="curve" smooth="yes"/>
      <point x="139" y="746"/>
      <point x="242" y="702"/>
      <point x="373" y="675" type="curve" smooth="yes"/>
      <point x="484" y="652"/>
      <point x="571" y="644"/>
      <point x="571" y="551" type="curve" smooth="yes"/>
      <point x="571" y="490"/>
      <point x="552" y="445"/>
      <point x="495" y="397" type="curve"/>
    </contour>
    <contour>
      <point x="539" y="-41" type="line"/>
      <point x="550" y="-38" type="line"/>
      <point x="550" y="475" type="line" smooth="yes"/>
      <point x="550" y="568"/>
      <point x="490" y="633"/>
      <point x="391" y="633" type="curve" smooth="yes"/>
      <point x="274" y="633"/>
      <point x="160" y="525"/>
      <point x="160" y="385" type="curve" smooth="yes"/>
      <point x="160" y="298"/>
      <point x="222" y="249"/>
      <point x="291" y="249" type="curve" smooth="yes"/>
      <point x="356" y="249"/>
      <point x="396" y="298"/>
      <point x="396" y="357" type="curve" smooth="yes"/>
      <point x="396" y="411"/>
      <point x="363" y="446"/>
      <point x="322" y="446" type="curve" smooth="yes"/>
      <point x="300" y="446"/>
      <point x="281" y="434"/>
      <point x="269" y="415" type="curve"/>
      <point x="330" y="407" type="line"/>
      <point x="333" y="491"/>
      <point x="377" y="537"/>
      <point x="413" y="537" type="curve" smooth="yes"/>
      <point x="428" y="537"/>
      <point x="439" y="523"/>
      <point x="439" y="500" type="curve" smooth="yes"/>
      <point x="439" y="271" type="line" smooth="yes"/>
      <point x="439" y="216"/>
      <point x="445" y="136"/>
      <point x="454" y="98" type="curve"/>
      <point x="412" y="186"/>
      <point x="363" y="203"/>
      <point x="311" y="203" type="curve" smooth="yes"/>
      <point x="275" y="203"/>
      <point x="239" y="194"/>
      <point x="193" y="194" type="curve" smooth="yes"/>
      <point x="128" y="194"/>
      <point x="92" y="230"/>
      <point x="92" y="313" type="curve" smooth="yes"/>
      <point x="92" y="341"/>
      <point x="96" y="372"/>
      <point x="105" y="406" type="curve"/>
      <point x="42" y="416" type="line"/>
      <point x="28" y="367"/>
      <point x="20" y="312"/>
      <point x="20" y="258" type="curve" smooth="yes"/>
      <point x="20" y="96"/>
      <point x="106" y="35"/>
      <point x="204" y="35" type="curve" smooth="yes"/>
      <point x="272" y="35"/>
      <point x="324" y="57"/>
      <point x="372" y="57" type="curve" smooth="yes"/>
      <point x="404" y="57"/>
      <point x="440" y="42"/>
      <point x="471" y="-4" type="curve"/>
    </contour>
  </outline>
</glyph>
<glyph name="au-beng" format="2">
  <advance width="710"/>
  <unicode hex="0994"/>
  <anchor x="612" y="-16" name="bottom"/>
  <anchor x="679" y="-1" name="bottom.rakaar"/>
  <anchor x="599" y="12" name="bottom.rvocalic"/>
  <anchor x="534" y="-1" name="bottom.virama"/>
  <anchor x="643" y="606" name="top"/>
  <anchor x="580" y="596" name="topright"/>
  <outline>
    <contour>
      <point x="548" y="290" type="line"/>
      <point x="618" y="361"/>
      <point x="670" y="442"/>
      <point x="670" y="564" type="curve" smooth="yes"/>
      <point x="670" y="735"/>
      <point x="537" y="773"/>
      <point x="423" y="798" type="curve" smooth="yes"/>
      <point x="332" y="818"/>
      <point x="243" y="838"/>
      <point x="243" y="925" type="curve" smooth="yes"/>
      <point x="243" y="955"/>
      <point x="250" y="988"/>
      <point x="262" y="1015" type="curve"/>
      <point x="202" y="1034" type="line"/>
      <point x="182" y="985"/>
      <point x="169" y="941"/>
      <point x="169" y="887" type="curve" smooth="yes"/>
      <point x="169" y="746"/>
      <point x="272" y="702"/>
      <point x="403" y="675" type="curve" smooth="yes"/>
      <point x="514" y="652"/>
      <point x="601" y="644"/>
      <point x="601" y="551" type="curve" smooth="yes"/>
      <point x="601" y="490"/>
      <point x="582" y="445"/>
      <point x="525" y="397" type="curve"/>
    </contour>
    <contour>
      <point x="393" y="13" type="curve" smooth="yes"/>
      <point x="516" y="13"/>
      <point x="609" y="94"/>
      <point x="609" y="216" type="curve" smooth="yes"/>
      <point x="609" y="349"/>
      <point x="479" y="425"/>
      <point x="427" y="425" type="curve" smooth="yes"/>
      <point x="389" y="425"/>
      <point x="345" y="406"/>
      <point x="345" y="341" type="curve" smooth="yes"/>
      <point x="345" y="284"/>
      <point x="381" y="247"/>
      <point x="433" y="247" type="curve" smooth="yes"/>
      <point x="514" y="247"/>
      <point x="581" y="346"/>
      <point x="581" y="457" type="curve" smooth="yes"/>
      <point x="581" y="555"/>
      <point x="514" y="629"/>
      <point x="395" y="629" type="curve" smooth="yes"/>
      <point x="253" y="629"/>
      <point x="147" y="528"/>
      <point x="147" y="420" type="curve" smooth="yes"/>
      <point x="147" y="343"/>
      <point x="190" y="301"/>
      <point x="246" y="301" type="curve" smooth="yes"/>
      <point x="305" y="301"/>
      <point x="336" y="342"/>
      <point x="336" y="396" type="curve" smooth="yes"/>
      <point x="336" y="435"/>
      <point x="309" y="472"/>
      <point x="277" y="472" type="curve" smooth="yes"/>
      <point x="245" y="472"/>
      <point x="229" y="453"/>
      <point x="227" y="438" type="curve"/>
      <point x="287" y="403" type="line"/>
      <point x="301" y="495"/>
      <point x="377" y="540"/>
      <point x="430" y="540" type="curve" smooth="yes"/>
      <point x="461" y="540"/>
      <point x="478" y="526"/>
      <point x="478" y="498" type="curve" smooth="yes"/>
      <point x="478" y="463"/>
      <point x="454" y="413"/>
      <point x="411" y="400" type="curve"/>
      <point x="430" y="335" type="line"/>
      <point x="471" y="337"/>
      <point x="523" y="312"/>
      <point x="523" y="259" type="curve" smooth="yes"/>
      <point x="523" y="192"/>
      <point x="464" y="162"/>
      <point x="387" y="162" type="curve" smooth="yes"/>
      <point x="260" y="162"/>
      <point x="140" y="233"/>
      <point x="76" y="552" type="curve"/>
      <point x="10" y="536" type="line"/>
      <point x="68" y="176"/>
      <point x="196" y="13"/>
    </contour>
  </outline>
</glyph>
<glyph name="ga-beng" format="2">
  <advance width="578"/>
  <unicode hex="0997"/>
  <anchor x="519" y="80" name="bottom"/>
  <anchor x="532" y="-24" name="bottom.rakaar"/>
  <anchor x="532" y="-3" name="bottom.rvocalic"/>
  <anchor x="480" y="10" name="bottom.virama"/>
  <anchor x="482" y="582" name="top"/>
  <anchor x="473" y="572" name="topright"/>
  <outline>
    <contour>
      <point x="521" y="-43" type="line"/>
      <point x="532" y="-40" type="line"/>
      <point x="532" y="536" type="line"/>
      <point x="613" y="536" type="line"/>
      <point x="567" y="622" type="line"/>
      <point x="519" y="622" type="line"/>
      <point x="509" y="686" type="line"/>
      <point x="434" y="724" type="line"/>
      <point x="425" y="720" type="line"/>
      <point x="425" y="590" type="line" smooth="yes"/>
      <point x="425" y="526"/>
      <point x="430" y="457"/>
      <point x="433" y="427" type="curve"/>
      <point x="447" y="417" type="line"/>
      <point x="404" y="568"/>
      <point x="319" y="637"/>
      <point x="221" y="637" type="curve" smooth="yes"/>
      <point x="126" y="637"/>
      <point x="39" y="563"/>
      <point x="-10" y="423" type="curve"/>
      <point x="112" y="325" type="line"/>
      <point x="133" y="356"/>
      <point x="174" y="383"/>
      <point x="207" y="383" type="curve" smooth="yes"/>
      <point x="238" y="383"/>
      <point x="252" y="370"/>
      <point x="252" y="343" type="curve" smooth="yes"/>
      <point x="252" y="301"/>
      <point x="206" y="268"/>
      <point x="115" y="238" type="curve"/>
      <point x="196" y="100" type="line"/>
      <point x="335" y="156"/>
      <point x="369" y="241"/>
      <point x="369" y="327" type="curve" smooth="yes"/>
      <point x="369" y="406"/>
      <point x="322" y="467"/>
      <point x="243" y="467" type="curve" smooth="yes"/>
      <point x="199" y="467"/>
      <point x="168" y="452"/>
      <point x="141" y="428" type="curve"/>
      <point x="157" y="407" type="line"/>
      <point x="166" y="454"/>
      <point x="206" y="517"/>
      <point x="265" y="517" type="curve" smooth="yes"/>
      <point x="322" y="517"/>
      <point x="384" y="457"/>
      <point x="433" y="297" type="curve"/>
      <point x="421" y="392" type="line"/>
      <point x="421" y="-1" type="line"/>
    </contour>
  </outline>
</glyph>
<glyph name="nga-beng" format="2">
  <advance width="543"/>
  <unicode hex="0999"/>
  <anchor x="386" y="-11" name="bottom"/>
  <anchor x="506" y="-1" name="bottom.rakaar"/>
  <anchor x="407" y="-41" name="bottom.rvocalic"/>
  <anchor x="380" y="0" name="bottom.virama"/>
  <anchor x="340" y="591" name="top"/>
  <anchor x="343" y="572" name="topright"/>
  <outline>
    <contour>
      <point x="327" y="-17" type="curve" smooth="yes"/>
      <point x="481" y="-17"/>
      <point x="541" y="104"/>
      <point x="538" y="255" type="curve" smooth="yes"/>
      <point x="536" y="345"/>
      <point x="490" y="422"/>
      <point x="461" y="459" type="curve"/>
      <point x="408" y="372"/>
      <point x="344" y="329"/>
      <point x="311" y="329" type="curve" smooth="yes"/>
      <point x="295" y="329"/>
      <point x="282" y="339"/>
      <point x="282" y="362" type="curve" smooth="yes"/>
      <point x="282" y="467" type="line" smooth="yes"/>
      <point x="282" y="517"/>
      <point x="296" y="552"/>
      <point x="326" y="552" type="curve" smooth="yes"/>
      <point x="342" y="552"/>
      <point x="352" y="541"/>
      <point x="352" y="518" type="curve" smooth="yes"/>
      <point x="352" y="491"/>
      <point x="332" y="467"/>
      <point x="298" y="467" type="curve" smooth="yes"/>
      <point x="221" y="467"/>
      <point x="186" y="516"/>
      <point x="140" y="628" type="curve"/>
      <point x="84" y="605" type="line"/>
      <point x="134" y="478"/>
      <point x="189" y="385"/>
      <point x="305" y="385" type="curve" smooth="yes"/>
      <point x="386" y="385"/>
      <point x="438" y="440"/>
      <point x="438" y="513" type="curve" smooth="yes"/>
      <point x="438" y="582"/>
      <point x="403" y="636"/>
      <point x="320" y="636" type="curve" smooth="yes"/>
      <point x="237" y="636"/>
      <point x="179" y="567"/>
      <point x="179" y="463" type="curve" smooth="yes"/>
      <point x="179" y="339" type="line" smooth="yes"/>
      <point x="179" y="286"/>
      <point x="201" y="251"/>
      <point x="223" y="229" type="curve" smooth="yes"/>
      <point x="250" y="202"/>
      <point x="283" y="192"/>
      <point x="320" y="192" type="curve" smooth="yes"/>
      <point x="386" y="192"/>
      <point x="468" y="248"/>
      <point x="491" y="309" type="curve"/>
      <point x="436" y="334" type="line"/>
      <point x="451" y="307"/>
      <point x="464" y="275"/>
      <point x="464" y="246" type="curve" smooth="yes"/>
      <point x="464" y="177"/>
      <point x="411" y="130"/>
      <point x="321" y="130" type="curve" smooth="yes"/>
      <point x="185" y="130"/>
      <point x="130" y="230"/>
      <point x="77" y="495" type="curve"/>
      <point x="12" y="478" type="line"/>
      <point x="61" y="152"/>
      <point x="141" y="-17"/>
    </contour>
  </outline>
</glyph>
<glyph name="nya-beng" format="2">
  <advance width="845"/>
  <unicode hex="099E"/>
  <anchor x="546" y="28" name="bottom"/>
  <anchor x="550" y="91" name="bottom.rakaar"/>
  <anchor x="550" y="-2" name="bottom.rvocalic"/>
  <anchor x="529" y="11" name="bottom.virama"/>
  <anchor x="417" y="591" name="top"/>
  <anchor x="417" y="572" name="topright"/>
  <anchor x="422" y="0" name="vedic"/>
  <outline>
    <contour>
      <point x="685" y="14" type="curve" smooth="yes"/>
      <point x="776" y="14"/>
      <point x="818" y="86"/>
      <point x="818" y="168" type="curve" smooth="yes"/>
      <point x="818" y="225"/>
      <point x="798" y="288"/>
      <point x="746" y="330" type="curve"/>
      <point x="769" y="278" type="line"/>
      <point x="793" y="306"/>
      <point x="818" y="357"/>
      <point x="818" y="431" type="curve" smooth="yes"/>
      <point x="818" y="527"/>
      <point x="770" y="602"/>
      <point x="692" y="602" type="curve" smooth="yes"/>
      <point x="578" y="602"/>
      <point x="523" y="454"/>
      <point x="515" y="363" type="curve"/>
      <point x="515" y="255" type="line"/>
      <point x="532" y="124"/>
      <point x="586" y="14"/>
    </contour>
    <contour>
      <point x="673" y="145" type="curve" smooth="yes"/>
      <point x="613" y="145"/>
      <point x="556" y="213"/>
      <point x="556" y="304" type="curve" smooth="yes"/>
      <point x="556" y="392"/>
      <point x="610" y="484"/>
      <point x="683" y="484" type="curve" smooth="yes"/>
      <point x="704" y="484"/>
      <point x="721" y="468"/>
      <point x="721" y="437" type="curve" smooth="yes"/>
      <point x="721" y="409"/>
      <point x="690" y="375"/>
      <point x="660" y="360" type="curve"/>
      <point x="719" y="352" type="line"/>
      <point x="702" y="371"/>
      <point x="685" y="392"/>
      <point x="649" y="392" type="curve" smooth="yes"/>
      <point x="605" y="392"/>
      <point x="578" y="356"/>
      <point x="578" y="305" type="curve" smooth="yes"/>
      <point x="578" y="251"/>
      <point x="610" y="218"/>
      <point x="654" y="218" type="curve" smooth="yes"/>
      <point x="693" y="218"/>
      <point x="722" y="235"/>
      <point x="748" y="265" type="curve"/>
      <point x="696" y="297" type="line"/>
      <point x="711" y="278"/>
      <point x="736" y="255"/>
      <point x="736" y="215" type="curve" smooth="yes"/>
      <point x="736" y="169"/>
      <point x="711" y="145"/>
    </contour>
    <component base="e-beng"/>
  </outline>
</glyph>
<glyph name="tta-beng" format="2">
  <advance width="487"/>
  <unicode hex="099F"/>
  <anchor x="326" y="-10" name="bottom"/>
  <anchor x="410" y="0" name="bottom.rakaar"/>
  <anchor x="345" y="-13" name="bottom.rvocalic"/>
  <anchor x="256" y="20" name="bottom.virama"/>
  <anchor x="211" y="-121" name="nukta"/>
  <anchor x="235" y="662" name="top"/>
  <anchor x="175" y="632" name="topright"/>
  <outline>
    <contour>
      <point x="363" y="588" type="curve"/>
      <point x="428" y="588" type="line"/>
      <point x="422" y="755"/>
      <point x="365" y="823"/>
      <point x="269" y="823" type="curve" smooth="yes"/>
      <point x="217" y="823"/>
      <point x="181" y="812"/>
      <point x="130" y="812" type="curve" smooth="yes"/>
      <point x="63" y="812"/>
      <point x="37" y="841"/>
      <point x="37" y="895" type="curve" smooth="yes"/>
      <point x="37" y="907"/>
      <point x="38" y="922"/>
      <point x="40" y="936" type="curve"/>
      <point x="-14" y="943" type="line"/>
      <point x="-20" y="917"/>
      <point x="-23" y="886"/>
      <point x="-23" y="858" type="curve" smooth="yes"/>
      <point x="-23" y="756"/>
      <point x="30" y="684"/>
      <point x="140" y="684" type="curve" smooth="yes"/>
      <point x="200" y="684"/>
      <point x="239" y="695"/>
      <point x="277" y="695" type="curve" smooth="yes"/>
      <point x="324" y="695"/>
      <point x="357" y="677"/>
    </contour>
    <contour>
      <point x="209" y="-12" type="curve" smooth="yes"/>
      <point x="357" y="-12"/>
      <point x="460" y="153"/>
      <point x="460" y="308" type="curve" smooth="yes"/>
      <point x="460" y="414"/>
      <point x="399" y="463"/>
      <point x="334" y="463" type="curve" smooth="yes"/>
      <point x="266" y="463"/>
      <point x="220" y="417"/>
      <point x="220" y="350" type="curve" smooth="yes"/>
      <point x="220" y="287"/>
      <point x="254" y="244"/>
      <point x="315" y="244" type="curve" smooth="yes"/>
      <point x="332" y="244"/>
      <point x="357" y="257"/>
      <point x="377" y="282" type="curve"/>
      <point x="315" y="322" type="line"/>
      <point x="305" y="182"/>
      <point x="224" y="111"/>
      <point x="187" y="111" type="curve" smooth="yes"/>
      <point x="169" y="111"/>
      <point x="157" y="122"/>
      <point x="157" y="145" type="curve" smooth="yes"/>
      <point x="157" y="536" type="line"/>
      <point x="522" y="536" type="line"/>
      <point x="479" y="622" type="line"/>
      <point x="-35" y="622" type="line"/>
      <point x="12" y="536" type="line"/>
      <point x="46" y="536" type="line"/>
      <point x="46" y="135" type="line" smooth="yes"/>
      <point x="46" y="45"/>
      <point x="127" y="-12"/>
    </contour>
  </outline>
</glyph>
<glyph name="ttha-beng" format="2">
  <advance width="525"/>
  <unicode hex="09A0"/>
  <anchor x="321" y="-50" name="bottom"/>
  <anchor x="499" y="-24" name="bottom.rakaar"/>
  <anchor x="383" y="-57" name="bottom.rvocalic"/>
  <anchor x="302" y="-20" name="bottom.virama"/>
  <anchor x="430" y="571" name="top"/>
  <anchor x="430" y="571" name="topleft"/>
  <anchor x="330" y="572" name="topright"/>
  <outline>
    <contour>
      <point x="280" y="-54" type="curve" smooth="yes"/>
      <point x="404" y="-54"/>
      <point x="485" y="26"/>
      <point x="485" y="168" type="curve" smooth="yes"/>
      <point x="485" y="318"/>
      <point x="390" y="435"/>
      <point x="303" y="536" type="curve"/>
      <point x="560" y="536" type="line"/>
      <point x="514" y="622" type="line"/>
      <point x="240" y="622" type="line"/>
      <point x="206" y="657"/>
      <point x="196" y="687"/>
      <point x="196" y="716" type="curve" smooth="yes"/>
      <point x="196" y="753"/>
      <point x="225" y="793"/>
      <point x="264" y="814" type="curve"/>
      <point x="158" y="896" type="line"/>
      <point x="101" y="864"/>
      <point x="65" y="809"/>
      <point x="65" y="758" type="curve" smooth="yes"/>
      <point x="65" y="697"/>
      <point x="99" y="664"/>
      <point x="146" y="622" type="curve"/>
      <point x="-35" y="622" type="line"/>
      <point x="10" y="536" type="line"/>
      <point x="201" y="536" type="line"/>
      <point x="207" y="514"/>
      <point x="210" y="494"/>
      <point x="210" y="458" type="curve" smooth="yes"/>
      <point x="210" y="346"/>
      <point x="126" y="264"/>
      <point x="20" y="240" type="curve"/>
      <point x="24" y="83"/>
      <point x="109" y="-54"/>
    </contour>
    <contour>
      <point x="247" y="56" type="curve" smooth="yes"/>
      <point x="194" y="56"/>
      <point x="167" y="104"/>
      <point x="166" y="153" type="curve"/>
      <point x="154" y="121" type="line"/>
      <point x="243" y="152"/>
      <point x="297" y="227"/>
      <point x="297" y="343" type="curve" smooth="yes"/>
      <point x="297" y="412"/>
      <point x="284" y="478"/>
      <point x="243" y="537" type="curve"/>
      <point x="229" y="536" type="line"/>
      <point x="314" y="439"/>
      <point x="347" y="335"/>
      <point x="347" y="219" type="curve" smooth="yes"/>
      <point x="347" y="109"/>
      <point x="304" y="56"/>
    </contour>
  </outline>
</glyph>
<glyph name="ddha-beng" format="2">
  <advance width="487"/>
  <unicode hex="09A2"/>
  <anchor x="326" y="-10" name="bottom"/>
  <anchor x="410" y="0" name="bottom.rakaar"/>
  <anchor x="345" y="-13" name="bottom.rvocalic"/>
  <anchor x="256" y="20" name="bottom.virama"/>
  <anchor x="211" y="-121" name="nukta"/>
  <anchor x="118" y="592" name="top"/>
  <anchor x="119" y="572" name="topright"/>
  <outline>
    <contour>
      <point x="209" y="-12" type="curve" smooth="yes"/>
      <point x="357" y="-12"/>
      <point x="460" y="153"/>
      <point x="460" y="308" type="curve" smooth="yes"/>
      <point x="460" y="414"/>
      <point x="399" y="463"/>
      <point x="334" y="463" type="curve" smooth="yes"/>
      <point x="266" y="463"/>
      <point x="220" y="417"/>
      <point x="220" y="350" type="curve" smooth="yes"/>
      <point x="220" y="287"/>
      <point x="254" y="244"/>
      <point x="315" y="244" type="curve" smooth="yes"/>
      <point x="332" y="244"/>
      <point x="357" y="257"/>
      <point x="377" y="282" type="curve"/>
      <point x="315" y="322" type="line"/>
      <point x="305" y="182"/>
      <point x="224" y="111"/>
      <point x="187" y="111" type="curve" smooth="yes"/>
      <point x="169" y="111"/>
      <point x="157" y="122"/>
      <point x="157" y="145" type="curve" smooth="yes"/>
      <point x="157" y="536" type="line"/>
      <point x="522" y="536" type="line"/>
      <point x="479" y="622" type="line"/>
      <point x="-35" y="622" type="line"/>
      <point x="12" y="536" type="line"/>
      <point x="46" y="536" type="line"/>
      <point x="46" y="135" type="line" smooth="yes"/>
      <point x="46" y="45"/>
      <point x="127" y="-12"/>
    </contour>
  </outline>
</glyph>
<glyph name="da-beng" format="2">
  <advance width="495"/>
  <unicode hex="09A6"/>
  <anchor x="428" y="48" name="bottom"/>
  <anchor x="439" y="50" name="bottom.rakaar"/>
  <anchor x="441" y="-61" name="bottom.rvocalic"/>
  <anchor x="426" y="-45" name="bottom.virama"/>
  <anchor x="118" y="592" name="top"/>
  <anchor x="118" y="572" name="topright"/>
  <outline>
    <contour>
      <point x="384" y="-95" type="curve"/>
      <point x="441" y="-72" type="line"/>
      <point x="418" y="9"/>
      <point x="413" y="52"/>
      <point x="413" y="116" type="curve" smooth="yes"/>
      <point x="413" y="213"/>
      <point x="440" y="308"/>
      <point x="479" y="383" type="curve"/>
      <point x="349" y="492" type="line"/>
      <point x="271" y="442"/>
      <point x="186" y="366"/>
      <point x="133" y="297" type="curve"/>
      <point x="155" y="246" type="line"/>
      <point x="155" y="536" type="line"/>
      <point x="530" y="536" type="line"/>
      <point x="485" y="622" type="line"/>
      <point x="-35" y="622" type="line"/>
      <point x="11" y="536" type="line"/>
      <point x="44" y="536" type="line"/>
      <point x="44" y="193" type="line"/>
      <point x="155" y="105" type="line"/>
      <point x="231" y="199"/>
      <point x="312" y="286"/>
      <point x="397" y="351" type="curve"/>
      <point x="359" y="386" type="line"/>
      <point x="329" y="314"/>
      <point x="317" y="251"/>
      <point x="317" y="166" type="curve" smooth="yes"/>
      <point x="317" y="56"/>
      <point x="350" y="-28"/>
    </contour>
  </outline>
</glyph>
<glyph name="ra-beng" format="2">
  <advance width="471"/>
  <unicode hex="09B0"/>
  <anchor x="414" y="37" name="bottom"/>
  <anchor x="425" y="100" name="bottom.rakaar"/>
  <anchor x="424" y="-18" name="bottom.rvocalic"/>
  <anchor x="405" y="20" name="bottom.virama"/>
  <anchor x="190" y="23" name="nukta"/>
  <anchor x="390" y="592" name="top"/>
  <anchor x="391" y="572" name="topright"/>
  <outline>
    <contour>
      <point x="414" y="-32" type="line"/>
      <point x="425" y="-29" type="line"/>
      <point x="425" y="536" type="line"/>
      <point x="506" y="536" type="line"/>
      <point x="460" y="622" type="line"/>
      <point x="-35" y="622" type="line"/>
      <point x="10" y="536" type="line"/>
      <point x="314" y="536" type="line"/>
      <point x="314" y="447" type="line"/>
      <point x="327" y="514" type="line"/>
      <point x="211" y="479"/>
      <point x="73" y="412"/>
      <point x="-8" y="351" type="curve"/>
      <point x="67" y="178" type="line"/>
      <point x="170" y="160"/>
      <point x="272" y="111"/>
      <point x="339" y="12" type="curve"/>
    </contour>
    <contour>
      <point x="314" y="108" type="line"/>
      <point x="335" y="108" type="line"/>
      <point x="301" y="201"/>
      <point x="232" y="256"/>
      <point x="167" y="282" type="curve"/>
      <point x="169" y="260" type="line"/>
      <point x="215" y="297"/>
      <point x="286" y="328"/>
      <point x="335" y="345" type="curve"/>
      <point x="314" y="401" type="line"/>
    </contour>
    <contour>
      <point x="190" y="-55" type="curve" smooth="yes"/>
      <point x="234" y="-55"/>
      <point x="261" y="-25"/>
      <point x="261" y="23" type="curve" smooth="yes"/>
      <point x="261" y="72"/>
      <point x="234" y="102"/>
      <point x="190" y="102" type="curve" smooth="yes"/>
      <point x="145" y="102"/>
      <point x="117" y="72"/>
      <point x="117" y="23" type="curve" smooth="yes"/>
      <point x="117" y="-25"/>
      <point x="145" y="-55"/>
    </contour>
  </outline>
</glyph>
<glyph name="ssa-beng" format="2">
  <advance width="528"/>
  <unicode hex="09B7"/>
  <anchor x="460" y="37" name="bottom"/>
  <anchor x="464" y="100" name="bottom.rakaar"/>
  <anchor x="464" y="7" name="bottom.rvocalic"/>
  <anchor x="443" y="0" name="bottom.virama"/>
  <anchor x="423" y="592" name="top"/>
  <anchor x="424" y="572" name="topright"/>
  <outline>
    <contour>
      <point x="453" y="-32" type="line"/>
      <point x="464" y="-29" type="line"/>
      <point x="464" y="536" type="line"/>
      <point x="563" y="536" type="line"/>
      <point x="516" y="622" type="line"/>
      <point x="-35" y="622" type="line"/>
      <point x="50" y="441" type="line"/>
      <point x="175" y="431"/>
      <point x="296" y="365"/>
      <point x="383" y="271" type="curve"/>
      <point x="422" y="310" type="line"/>
      <point x="374" y="379"/>
      <point x="231" y="514"/>
      <point x="113" y="575" type="curve"/>
      <point x="107" y="536" type="line"/>
      <point x="353" y="536" type="line"/>
      <point x="353" y="80" type="line"/>
      <point x="374" y="108" type="line"/>
      <point x="340" y="201"/>
      <point x="269" y="252"/>
      <point x="204" y="278" type="curve"/>
      <point x="211" y="241" type="line"/>
      <point x="241" y="273"/>
      <point x="281" y="306"/>
      <point x="331" y="343" type="curve"/>
      <point x="194" y="421" type="line"/>
      <point x="150" y="389"/>
      <point x="91" y="347"/>
      <point x="43" y="301" type="curve"/>
      <point x="108" y="178" type="line"/>
      <point x="207" y="160"/>
      <point x="311" y="111"/>
      <point x="378" y="12" type="curve"/>
    </contour>
  </outline>
</glyph>
<glyph name="sa-beng" format="2">
  <advance width="589"/>
  <unicode hex="09B8"/>
  <anchor x="530" y="80" name="bottom"/>
  <anchor x="543" y="-24" name="bottom.rakaar"/>
  <anchor x="543" y="-3" name="bottom.rvocalic"/>
  <anchor x="491" y="10" name="bottom.virama"/>
  <anchor x="507" y="591" name="top"/>
  <anchor x="509" y="572" name="topright"/>
  <outline>
    <contour>
      <point x="532" y="-43" type="line"/>
      <point x="543" y="-40" type="line"/>
      <point x="543" y="536" type="line"/>
      <point x="624" y="536" type="line"/>
      <point x="578" y="622" type="line"/>
      <point x="-35" y="622" type="line"/>
      <point x="81" y="418" type="line"/>
      <point x="90" y="420"/>
      <point x="111" y="423"/>
      <point x="133" y="423" type="curve" smooth="yes"/>
      <point x="186" y="423"/>
      <point x="242" y="404"/>
      <point x="252" y="287" type="curve"/>
      <point x="295" y="339" type="line"/>
      <point x="277" y="487"/>
      <point x="248" y="549"/>
      <point x="76" y="572" type="curve"/>
      <point x="106" y="536" type="line"/>
      <point x="432" y="536" type="line"/>
      <point x="432" y="463" type="line" smooth="yes"/>
      <point x="432" y="399"/>
      <point x="439" y="322"/>
      <point x="446" y="266" type="curve"/>
      <point x="458" y="267" type="line"/>
      <point x="419" y="400"/>
      <point x="382" y="444"/>
      <point x="342" y="444" type="curve" smooth="yes"/>
      <point x="299" y="444"/>
      <point x="272" y="383"/>
      <point x="247" y="325" type="curve" smooth="yes"/>
      <point x="225" y="274"/>
      <point x="204" y="230"/>
      <point x="173" y="230" type="curve" smooth="yes"/>
      <point x="145" y="230"/>
      <point x="127" y="252"/>
      <point x="98" y="311" type="curve"/>
      <point x="41" y="279" type="line"/>
      <point x="79" y="177"/>
      <point x="127" y="78"/>
      <point x="213" y="78" type="curve" smooth="yes"/>
      <point x="270" y="78"/>
      <point x="295" y="138"/>
      <point x="322" y="198" type="curve" smooth="yes"/>
      <point x="342" y="242"/>
      <point x="360" y="281"/>
      <point x="386" y="281" type="curve" smooth="yes"/>
      <point x="415" y="281"/>
      <point x="432" y="234"/>
      <point x="444" y="174" type="curve"/>
      <point x="432" y="259" type="line"/>
      <point x="432" y="-1" type="line"/>
    </contour>
  </outline>
</glyph>
<glyph name="ha-beng" format="2">
  <advance width="469"/>
  <unicode hex="09B9"/>
  <anchor x="286" y="35" name="bottom"/>
  <anchor x="403" y="-100" name="bottom.rakaar"/>
  <anchor x="375" y="18" name="bottom.rvocalic"/>
  <anchor x="284" y="30" name="bottom.virama"/>
  <anchor x="235" y="592" name="top"/>
  <anchor x="240" y="572" name="topright"/>
  <outline>
    <contour>
      <point x="462" y="-127" type="curve"/>
      <point x="504" y="-81" type="line"/>
      <point x="408" y="28"/>
      <point x="290" y="123"/>
      <point x="178" y="150" type="curve"/>
      <point x="139" y="110" type="line"/>
      <point x="153" y="99"/>
      <point x="180" y="95"/>
      <point x="208" y="95" type="curve" smooth="yes"/>
      <point x="378" y="95"/>
      <point x="446" y="178"/>
      <point x="446" y="290" type="curve" smooth="yes"/>
      <point x="446" y="432"/>
      <point x="339" y="494"/>
      <point x="189" y="494" type="curve" smooth="yes"/>
      <point x="102" y="494"/>
      <point x="42" y="447"/>
      <point x="42" y="374" type="curve" smooth="yes"/>
      <point x="42" y="305"/>
      <point x="91" y="262"/>
      <point x="155" y="262" type="curve" smooth="yes"/>
      <point x="217" y="262"/>
      <point x="264" y="306"/>
      <point x="264" y="384" type="curve" smooth="yes"/>
      <point x="264" y="462"/>
      <point x="209" y="529"/>
      <point x="183" y="543" type="curve"/>
      <point x="10" y="543" type="line"/>
      <point x="81" y="529"/>
      <point x="128" y="503"/>
      <point x="177" y="457" type="curve"/>
      <point x="180" y="359" type="line"/>
      <point x="194" y="378"/>
      <point x="225" y="402"/>
      <point x="258" y="402" type="curve" smooth="yes"/>
      <point x="298" y="402"/>
      <point x="330" y="377"/>
      <point x="330" y="323" type="curve" smooth="yes"/>
      <point x="330" y="249"/>
      <point x="274" y="214"/>
      <point x="182" y="214" type="curve" smooth="yes"/>
      <point x="122" y="214"/>
      <point x="75" y="228"/>
      <point x="33" y="258" type="curve"/>
      <point x="69" y="77" type="line"/>
      <point x="176" y="49"/>
      <point x="304" y="8"/>
    </contour>
    <contour>
      <point x="10" y="536" type="line"/>
      <point x="500" y="536" type="line"/>
      <point x="452" y="622" type="line"/>
      <point x="-35" y="622" type="line"/>
    </contour>
  </outline>
</glyph>
<glyph name="avagraha-beng" format="2">
  <advance width="527"/>
  <unicode hex="09BD"/>
  <anchor x="224" y="592" name="top"/>
  <anchor x="225" y="572" name="topright"/>
  <outline>
    <contour>
      <point x="475" y="-127" type="curve"/>
      <point x="517" y="-81" type="line"/>
      <point x="421" y="28"/>
      <point x="303" y="123"/>
      <point x="191" y="150" type="curve"/>
      <point x="152" y="110" type="line"/>
      <point x="166" y="99"/>
      <point x="193" y="95"/>
      <point x="221" y="95" type="curve" smooth="yes"/>
      <point x="391" y="95"/>
      <point x="459" y="178"/>
      <point x="459" y="290" type="curve" smooth="yes"/>
      <point x="459" y="432"/>
      <point x="352" y="494"/>
      <point x="202" y="494" type="curve" smooth="yes"/>
      <point x="115" y="494"/>
      <point x="55" y="447"/>
      <point x="55" y="374" type="curve" smooth="yes"/>
      <point x="55" y="305"/>
      <point x="104" y="262"/>
      <point x="168" y="262" type="curve" smooth="yes"/>
      <point x="230" y="262"/>
      <point x="277" y="306"/>
      <point x="277" y="384" type="curve" smooth="yes"/>
      <point x="277" y="467"/>
      <point x="226" y="554"/>
      <point x="129" y="622" type="curve"/>
      <point x="-39" y="622" type="line"/>
      <point x="8" y="536" type="line"/>
      <point x="145" y="536" type="line"/>
      <point x="86" y="542" type="line"/>
      <point x="126" y="529"/>
      <point x="155" y="500"/>
      <point x="190" y="457" type="curve"/>
      <point x="193" y="359" type="line"/>
      <point x="207" y="378"/>
      <point x="238" y="402"/>
      <point x="271" y="402" type="curve" smooth="yes"/>
      <point x="311" y="402"/>
      <point x="343" y="377"/>
      <point x="343" y="323" type="curve" smooth="yes"/>
      <point x="343" y="249"/>
      <point x="287" y="214"/>
      <point x="195" y="214" type="curve" smooth="yes"/>
      <point x="135" y="214"/>
      <point x="88" y="228"/>
      <point x="46" y="258" type="curve"/>
      <point x="82" y="77" type="line"/>
      <point x="189" y="49"/>
      <point x="317" y="8"/>
    </contour>
  </outline>
</glyph>
<glyph name="aaMatra-beng" format="2">
  <advance width="203"/>
  <unicode hex="09BE"/>
  <outline>
    <contour>
      <point x="146" y="-43" type="line"/>
      <point x="157" y="-40" type="line"/>
      <point x="157" y="536" type="line"/>
      <point x="238" y="536" type="line"/>
      <point x="192" y="622" type="line"/>
      <point x="144" y="622" type="line"/>
      <point x="134" y="686" type="line"/>
      <point x="59" y="724" type="line"/>
      <point x="50" y="720" type="line"/>
      <point x="50" y="648" type="line" smooth="yes"/>
      <point x="50" y="604"/>
      <point x="54" y="565"/>
      <point x="57" y="540" type="curve"/>
      <point x="65" y="541" type="line"/>
      <point x="50" y="603"/>
      <point x="35" y="622"/>
      <point x="-7" y="622" type="curve" smooth="yes"/>
      <point x="-35" y="622" type="line"/>
      <point x="11" y="536" type="line"/>
      <point x="21" y="536" type="line" smooth="yes"/>
      <point x="34" y="536"/>
      <point x="41" y="520"/>
      <point x="46" y="497" type="curve"/>
      <point x="46" y="-1" type="line"/>
    </contour>
  </outline>
</glyph>
<glyph name="rVocalicMatra-beng" format="2">
  <unicode hex="09C3"/>
  <anchor x="0" y="0" name="_bottom.rvocalic"/>
  <outline>
    <contour>
      <point x="10" y="-299" type="curve"/>
      <point x="44" y="-247" type="line"/>
      <point x="11" y="-202"/>
      <point x="-54" y="-140"/>
      <point x="-138" y="-89" type="curve"/>
      <point x="-126" y="-124" type="line"/>
      <point x="-94" y="-92"/>
      <point x="-36" y="-60"/>
      <point x="0" y="-39" type="curve"/>
      <point x="0" y="-11" type="line"/>
      <point x="-65" y="50" type="line"/>
      <point x="-126" y="19"/>
      <point x="-219" y="-34"/>
      <point x="-282" y="-86" type="curve"/>
      <point x="-220" y="-169" type="line"/>
      <point x="-117" y="-200"/>
      <point x="-47" y="-246"/>
    </contour>
  </outline>
</glyph>
<glyph name="rrVocalicMatra-beng" format="2">
  <unicode hex="09C4"/>
  <anchor x="0" y="0" name="_bottom.rvocalic"/>
  <outline>
    <contour>
      <point x="10" y="-282" type="curve"/>
      <point x="41" y="-230" type="line"/>
      <point x="5" y="-187"/>
      <point x="-54" y="-138"/>
      <point x="-138" y="-93" type="curve"/>
      <point x="-126" y="-124" type="line"/>
      <point x="-94" y="-92"/>
      <point x="-36" y="-60"/>
      <point x="0" y="-39" type="curve"/>
      <point x="0" y="-11" type="line"/>
      <point x="-65" y="50" type="line"/>
      <point x="-126" y="19"/>
      <point x="-219" y="-34"/>
      <point x="-282" y="-86" type="curve"/>
      <point x="-220" y="-169" type="line"/>
      <point x="-117" y="-200"/>
      <point x="-47" y="-233"/>
    </contour>
    <contour>
      <point x="14" y="-450" type="curve"/>
      <point x="44" y="-408" type="line"/>
      <point x="22" y="-373"/>
      <point x="-45" y="-309"/>
      <point x="-133" y="-263" type="curve"/>
      <point x="-124" y="-290" type="line"/>
      <point x="-95" y="-262"/>
      <point x="-69" y="-240"/>
      <point x="-29" y="-217" type="curve"/>
      <point x="-138" y="-174" type="line"/>
      <point x="-192" y="-202"/>
      <point x="-227" y="-229"/>
      <point x="-272" y="-263" type="curve"/>
      <point x="-211" y="-333" type="line"/>
      <point x="-111" y="-362"/>
      <point x="-44" y="-399"/>
    </contour>
  </outline>
</glyph>
<glyph name="eMatra-beng" format="2">
  <advance width="375"/>
  <unicode hex="09C7"/>
  <outline>
    <contour>
      <point x="254" y="-34" type="curve" smooth="yes"/>
      <point x="329" y="-34"/>
      <point x="372" y="8"/>
      <point x="372" y="83" type="curve" smooth="yes"/>
      <point x="372" y="140"/>
      <point x="339" y="189"/>
      <point x="276" y="189" type="curve" smooth="yes"/>
      <point x="222" y="189"/>
      <point x="186" y="147"/>
      <point x="186" y="93" type="curve" smooth="yes"/>
      <point x="186" y="53"/>
      <point x="199" y="27"/>
      <point x="217" y="8" type="curve"/>
      <point x="261" y="29" type="line"/>
      <point x="183" y="44"/>
      <point x="148" y="110"/>
      <point x="148" y="236" type="curve" smooth="yes"/>
      <point x="148" y="420"/>
      <point x="265" y="536"/>
      <point x="377" y="536" type="curve" smooth="yes"/>
      <point x="410" y="536" type="line"/>
      <point x="366" y="622" type="line"/>
      <point x="-35" y="622" type="line"/>
      <point x="8" y="536" type="line"/>
      <point x="204" y="536" type="line"/>
      <point x="148" y="574" type="line"/>
      <point x="79" y="529"/>
      <point x="25" y="429"/>
      <point x="25" y="285" type="curve" smooth="yes"/>
      <point x="25" y="75"/>
      <point x="139" y="-34"/>
    </contour>
  </outline>
</glyph>
<glyph name="aiMatra-beng" format="2">
  <advance width="375"/>
  <unicode hex="09C8"/>
  <outline>
    <contour>
      <point x="302" y="588" type="curve"/>
      <point x="369" y="588" type="line"/>
      <point x="367" y="737"/>
      <point x="317" y="824"/>
      <point x="219" y="824" type="curve" smooth="yes"/>
      <point x="172" y="824"/>
      <point x="141" y="816"/>
      <point x="93" y="816" type="curve" smooth="yes"/>
      <point x="39" y="816"/>
      <point x="15" y="842"/>
      <point x="15" y="897" type="curve" smooth="yes"/>
      <point x="15" y="910"/>
      <point x="16" y="926"/>
      <point x="18" y="938" type="curve"/>
      <point x="-40" y="945" type="line"/>
      <point x="-46" y="919"/>
      <point x="-50" y="888"/>
      <point x="-50" y="859" type="curve" smooth="yes"/>
      <point x="-50" y="756"/>
      <point x="-11" y="682"/>
      <point x="93" y="682" type="curve" smooth="yes"/>
      <point x="153" y="682"/>
      <point x="186" y="692"/>
      <point x="224" y="692" type="curve" smooth="yes"/>
      <point x="259" y="692"/>
      <point x="300" y="682"/>
    </contour>
    <contour>
      <point x="254" y="-34" type="curve" smooth="yes"/>
      <point x="329" y="-34"/>
      <point x="372" y="8"/>
      <point x="372" y="83" type="curve" smooth="yes"/>
      <point x="372" y="140"/>
      <point x="339" y="189"/>
      <point x="276" y="189" type="curve" smooth="yes"/>
      <point x="222" y="189"/>
      <point x="186" y="147"/>
      <point x="186" y="93" type="curve" smooth="yes"/>
      <point x="186" y="53"/>
      <point x="199" y="27"/>
      <point x="217" y="8" type="curve"/>
      <point x="261" y="29" type="line"/>
      <point x="183" y="44"/>
      <point x="148" y="110"/>
      <point x="148" y="236" type="curve" smooth="yes"/>
      <point x="148" y="420"/>
      <point x="265" y="536"/>
      <point x="377" y="536" type="curve" smooth="yes"/>
      <point x="410" y="536" type="line"/>
      <point x="366" y="622" type="line"/>
      <point x="-35" y="622" type="line"/>
      <point x="8" y="536" type="line"/>
      <point x="204" y="536" type="line"/>
      <point x="148" y="574" type="line"/>
      <point x="79" y="529"/>
      <point x="25" y="429"/>
      <point x="25" y="285" type="curve" smooth="yes"/>
      <point x="25" y="75"/>
      <point x="139" y="-34"/>
    </contour>
  </outline>
</glyph>
<glyph name="oMatra-beng" format="2">
  <advance width="765"/>
  <unicode hex="09CB"/>
  <anchor x="335" y="0" name="vedic"/>
  <outline>
    <contour>
      <point x="419" y="249" type="curve" smooth="yes"/>
      <point x="452" y="249"/>
      <point x="480" y="272"/>
      <point x="480" y="310" type="curve" smooth="yes"/>
      <point x="480" y="346"/>
      <point x="453" y="372"/>
      <point x="419" y="372" type="curve" smooth="yes"/>
      <point x="384" y="372"/>
      <point x="355" y="346"/>
      <point x="355" y="310" type="curve" smooth="yes"/>
      <point x="355" y="274"/>
      <point x="385" y="249"/>
    </contour>
    <component base="eMatra-beng"/>
    <component base="aaMatra-beng" xOffset="562"/>
  </outline>
</glyph>
<glyph name="auMatra-beng" format="2">
  <advance width="765"/>
  <unicode hex="09CC"/>
  <anchor x="894" y="599" name="top"/>
  <anchor x="562" y="586" name="topright"/>
  <outline>
    <contour>
      <point x="419" y="249" type="curve" smooth="yes"/>
      <point x="452" y="249"/>
      <point x="480" y="272"/>
      <point x="480" y="310" type="curve" smooth="yes"/>
      <point x="480" y="346"/>
      <point x="453" y="372"/>
      <point x="419" y="372" type="curve" smooth="yes"/>
      <point x="384" y="372"/>
      <point x="355" y="346"/>
      <point x="355" y="310" type="curve" smooth="yes"/>
      <point x="355" y="274"/>
      <point x="385" y="249"/>
    </contour>
    <contour>
      <point x="708" y="-43" type="line"/>
      <point x="719" y="-40" type="line"/>
      <point x="719" y="536" type="line"/>
      <point x="800" y="536" type="line"/>
      <point x="754" y="622" type="line"/>
      <point x="527" y="622" type="line"/>
      <point x="573" y="536" type="line"/>
      <point x="608" y="536" type="line"/>
      <point x="608" y="-1" type="line"/>
    </contour>
    <contour>
      <point x="613" y="596" type="curve"/>
      <point x="717" y="596" type="line"/>
      <point x="715" y="743"/>
      <point x="624" y="834"/>
      <point x="519" y="834" type="curve" smooth="yes"/>
      <point x="446" y="834"/>
      <point x="391" y="816"/>
      <point x="318" y="816" type="curve" smooth="yes"/>
      <point x="251" y="816"/>
      <point x="210" y="832"/>
      <point x="210" y="897" type="curve" smooth="yes"/>
      <point x="210" y="911"/>
      <point x="211" y="927"/>
      <point x="213" y="939" type="curve"/>
      <point x="156" y="945" type="line"/>
      <point x="151" y="921"/>
      <point x="148" y="890"/>
      <point x="148" y="857" type="curve" smooth="yes"/>
      <point x="148" y="735"/>
      <point x="228" y="681"/>
      <point x="328" y="681" type="curve" smooth="yes"/>
      <point x="416" y="681"/>
      <point x="462" y="706"/>
      <point x="540" y="706" type="curve" smooth="yes"/>
      <point x="602" y="706"/>
      <point x="617" y="669"/>
      <point x="617" y="635" type="curve" smooth="yes"/>
      <point x="617" y="623"/>
      <point x="616" y="610"/>
    </contour>
    <contour>
      <point x="254" y="-34" type="curve" smooth="yes"/>
      <point x="329" y="-34"/>
      <point x="372" y="8"/>
      <point x="372" y="83" type="curve" smooth="yes"/>
      <point x="372" y="140"/>
      <point x="339" y="189"/>
      <point x="276" y="189" type="curve" smooth="yes"/>
      <point x="222" y="189"/>
      <point x="186" y="147"/>
      <point x="186" y="93" type="curve" smooth="yes"/>
      <point x="186" y="53"/>
      <point x="199" y="27"/>
      <point x="217" y="8" type="curve"/>
      <point x="261" y="29" type="line"/>
      <point x="183" y="44"/>
      <point x="148" y="110"/>
      <point x="148" y="236" type="curve" smooth="yes"/>
      <point x="148" y="420"/>
      <point x="265" y="536"/>
      <point x="377" y="536" type="curve" smooth="yes"/>
      <point x="410" y="536" type="line"/>
      <point x="366" y="622" type="line"/>
      <point x="-35" y="622" type="line"/>
      <point x="8" y="536" type="line"/>
      <point x="204" y="536" type="line"/>
      <point x="148" y="574" type="line"/>
      <point x="79" y="529"/>
      <point x="25" y="429"/>
      <point x="25" y="285" type="curve" smooth="yes"/>
      <point x="25" y="75"/>
      <point x="139" y="-34"/>
    </contour>
  </outline>
</glyph>
<glyph name="taKhanda-beng" format="2">
  <advance width="482"/>
  <unicode hex="09CE"/>
  <anchor x="242" y="592" name="top"/>
  <anchor x="248" y="572" name="topright"/>
  <outline>
    <contour>
      <point x="458" y="-95" type="line"/>
      <point x="480" y="-62"/>
      <point x="500" y="-9"/>
      <point x="500" y="42" type="curve" smooth="yes"/>
      <point x="500" y="137"/>
      <point x="413" y="201"/>
      <point x="287" y="229" type="curve" smooth="yes"/>
      <point x="160" y="257"/>
      <point x="127" y="299"/>
      <point x="127" y="371" type="curve" smooth="yes"/>
      <point x="127" y="468"/>
      <point x="188" y="491"/>
      <point x="246" y="491" type="curve" smooth="yes"/>
      <point x="305" y="491"/>
      <point x="329" y="473"/>
      <point x="329" y="443" type="curve" smooth="yes"/>
      <point x="329" y="421"/>
      <point x="315" y="406"/>
      <point x="292" y="406" type="curve" smooth="yes"/>
      <point x="259" y="406"/>
      <point x="212" y="434"/>
      <point x="206" y="503" type="curve"/>
      <point x="145" y="482" type="line"/>
      <point x="160" y="362"/>
      <point x="197" y="276"/>
      <point x="281" y="276" type="curve" smooth="yes"/>
      <point x="370" y="276"/>
      <point x="407" y="360"/>
      <point x="407" y="464" type="curve" smooth="yes"/>
      <point x="407" y="564"/>
      <point x="348" y="625"/>
      <point x="251" y="625" type="curve" smooth="yes"/>
      <point x="116" y="625"/>
      <point x="34" y="497"/>
      <point x="34" y="353" type="curve" smooth="yes"/>
      <point x="34" y="215"/>
      <point x="100" y="115"/>
      <point x="245" y="84" type="curve" smooth="yes"/>
      <point x="372" y="57"/>
      <point x="415" y="44"/>
      <point x="415" y="-9" type="curve" smooth="yes"/>
      <point x="415" y="-33"/>
      <point x="411" y="-55"/>
      <point x="403" y="-77" type="curve"/>
    </contour>
  </outline>
</glyph>
<glyph name="auLength-beng" format="2">
  <advance width="203"/>
  <unicode hex="09D7"/>
  <anchor x="332" y="599" name="top"/>
  <anchor x="0" y="586" name="topright"/>
  <outline>
    <contour>
      <point x="146" y="-43" type="line"/>
      <point x="157" y="-40" type="line"/>
      <point x="157" y="536" type="line"/>
      <point x="238" y="536" type="line"/>
      <point x="192" y="622" type="line"/>
      <point x="-35" y="622" type="line"/>
      <point x="11" y="536" type="line"/>
      <point x="46" y="536" type="line"/>
      <point x="46" y="-1" type="line"/>
    </contour>
    <contour>
      <point x="51" y="596" type="curve"/>
      <point x="155" y="596" type="line"/>
      <point x="153" y="743"/>
      <point x="62" y="834"/>
      <point x="-43" y="834" type="curve" smooth="yes"/>
      <point x="-116" y="834"/>
      <point x="-171" y="816"/>
      <point x="-244" y="816" type="curve" smooth="yes"/>
      <point x="-311" y="816"/>
      <point x="-352" y="832"/>
      <point x="-352" y="897" type="curve" smooth="yes"/>
      <point x="-352" y="911"/>
      <point x="-351" y="927"/>
      <point x="-349" y="939" type="curve"/>
      <point x="-406" y="945" type="line"/>
      <point x="-411" y="921"/>
      <point x="-414" y="890"/>
      <point x="-414" y="857" type="curve" smooth="yes"/>
      <point x="-414" y="735"/>
      <point x="-334" y="681"/>
      <point x="-234" y="681" type="curve" smooth="yes"/>
      <point x="-146" y="681"/>
      <point x="-100" y="706"/>
      <point x="-22" y="706" type="curve" smooth="yes"/>
      <point x="40" y="706"/>
      <point x="55" y="669"/>
      <point x="55" y="635" type="curve" smooth="yes"/>
      <point x="55" y="623"/>
      <point x="54" y="610"/>
    </contour>
  </outline>
</glyph>
<glyph name="rra-beng" format="2">
  <advance width="554"/>
  <unicode hex="09DC"/>
  <anchor x="384" y="-198" name="bottom"/>
  <anchor x="508" y="-11" name="bottom.rakaar"/>
  <anchor x="423" y="-261" name="bottom.rvocalic"/>
  <anchor x="302" y="-171" name="bottom.virama"/>
  <anchor x="302" y="-142" name="nukta"/>
  <anchor x="308" y="592" name="top"/>
  <anchor x="309" y="572" name="topright"/>
  <outline>
    <contour>
      <point x="320" y="-27" type="curve" smooth="yes"/>
      <point x="469" y="-27"/>
      <point x="544" y="75"/>
      <point x="544" y="228" type="curve" smooth="yes"/>
      <point x="544" y="342"/>
      <point x="501" y="422"/>
      <point x="448" y="475" type="curve"/>
      <point x="397" y="385"/>
      <point x="356" y="348"/>
      <point x="326" y="348" type="curve" smooth="yes"/>
      <point x="314" y="348"/>
      <point x="297" y="354"/>
      <point x="297" y="380" type="curve" smooth="yes"/>
      <point x="297" y="536" type="line"/>
      <point x="589" y="536" type="line"/>
      <point x="542" y="622" type="line"/>
      <point x="-35" y="622" type="line"/>
      <point x="12" y="536" type="line"/>
      <point x="186" y="536" type="line"/>
      <point x="186" y="374" type="line" smooth="yes"/>
      <point x="186" y="319"/>
      <point x="199" y="281"/>
      <point x="227" y="251" type="curve" smooth="yes"/>
      <point x="256" y="220"/>
      <point x="287" y="205"/>
      <point x="334" y="205" type="curve" smooth="yes"/>
      <point x="395" y="205"/>
      <point x="460" y="253"/>
      <point x="494" y="331" type="curve"/>
      <point x="438" y="322" type="line"/>
      <point x="455" y="301"/>
      <point x="466" y="272"/>
      <point x="466" y="243" type="curve" smooth="yes"/>
      <point x="466" y="168"/>
      <point x="410" y="124"/>
      <point x="323" y="124" type="curve" smooth="yes"/>
      <point x="170" y="124"/>
      <point x="106" y="255"/>
      <point x="74" y="475" type="curve"/>
      <point x="6" y="462" type="line"/>
      <point x="39" y="143"/>
      <point x="121" y="-27"/>
    </contour>
    <contour>
      <point x="302" y="-220" type="curve" smooth="yes"/>
      <point x="346" y="-220"/>
      <point x="373" y="-190"/>
      <point x="373" y="-142" type="curve" smooth="yes"/>
      <point x="373" y="-93"/>
      <point x="346" y="-63"/>
      <point x="302" y="-63" type="curve" smooth="yes"/>
      <point x="257" y="-63"/>
      <point x="229" y="-93"/>
      <point x="229" y="-142" type="curve" smooth="yes"/>
      <point x="229" y="-190"/>
      <point x="257" y="-220"/>
    </contour>
  </outline>
</glyph>
<glyph name="rha-beng" format="2">
  <advance width="487"/>
  <unicode hex="09DD"/>
  <anchor x="299" y="-202" name="bottom"/>
  <anchor x="410" y="0" name="bottom.rakaar"/>
  <anchor x="319" y="-251" name="bottom.rvocalic"/>
  <anchor x="211" y="-144" name="bottom.virama"/>
  <anchor x="211" y="-121" name="nukta"/>
  <anchor x="160" y="592" name="top"/>
  <anchor x="161" y="572" name="topright"/>
  <outline>
    <contour>
      <point x="209" y="-12" type="curve" smooth="yes"/>
      <point x="357" y="-12"/>
      <point x="460" y="153"/>
      <point x="460" y="308" type="curve" smooth="yes"/>
      <point x="460" y="414"/>
      <point x="399" y="463"/>
      <point x="334" y="463" type="curve" smooth="yes"/>
      <point x="266" y="463"/>
      <point x="220" y="417"/>
      <point x="220" y="350" type="curve" smooth="yes"/>
      <point x="220" y="287"/>
      <point x="254" y="244"/>
      <point x="315" y="244" type="curve" smooth="yes"/>
      <point x="332" y="244"/>
      <point x="357" y="257"/>
      <point x="377" y="282" type="curve"/>
      <point x="315" y="322" type="line"/>
      <point x="305" y="182"/>
      <point x="224" y="111"/>
      <point x="187" y="111" type="curve" smooth="yes"/>
      <point x="169" y="111"/>
      <point x="157" y="122"/>
      <point x="157" y="145" type="curve" smooth="yes"/>
      <point x="157" y="536" type="line"/>
      <point x="522" y="536" type="line"/>
      <point x="479" y="622" type="line"/>
      <point x="-35" y="622" type="line"/>
      <point x="12" y="536" type="line"/>
      <point x="46" y="536" type="line"/>
      <point x="46" y="135" type="line" smooth="yes"/>
      <point x="46" y="45"/>
      <point x="127" y="-12"/>
    </contour>
    <contour>
      <point x="211" y="-199" type="curve" smooth="yes"/>
      <point x="255" y="-199"/>
      <point x="282" y="-169"/>
      <point x="282" y="-121" type="curve" smooth="yes"/>
      <point x="282" y="-72"/>
      <point x="255" y="-42"/>
      <point x="211" y="-42" type="curve" smooth="yes"/>
      <point x="166" y="-42"/>
      <point x="138" y="-72"/>
      <point x="138" y="-121" type="curve" smooth="yes"/>
      <point x="138" y="-169"/>
      <point x="166" y="-199"/>
    </contour>
  </outline>
</glyph>
<glyph name="yya-beng" format="2">
  <advance width="528"/>
  <unicode hex="09DF"/>
  <anchor x="517" y="39" name="bottom"/>
  <anchor x="526" y="100" name="bottom.rakaar"/>
  <anchor x="526" y="-17" name="bottom.rvocalic"/>
  <anchor x="443" y="20" name="bottom.virama"/>
  <anchor x="229" y="30" name="nukta"/>
  <anchor x="491" y="592" name="top"/>
  <anchor x="492" y="572" name="topright"/>
  <outline>
    <contour>
      <point x="453" y="-32" type="line"/>
      <point x="464" y="-29" type="line"/>
      <point x="464" y="536" type="line"/>
      <point x="563" y="536" type="line"/>
      <point x="516" y="622" type="line"/>
      <point x="-35" y="622" type="line"/>
      <point x="50" y="441" type="line"/>
      <point x="112" y="433"/>
      <point x="180" y="415"/>
      <point x="198" y="390" type="curve"/>
      <point x="213" y="426" type="line"/>
      <point x="175" y="410"/>
      <point x="76" y="356"/>
      <point x="40" y="328" type="curve"/>
      <point x="106" y="178" type="line"/>
      <point x="207" y="160"/>
      <point x="311" y="111"/>
      <point x="378" y="12" type="curve"/>
    </contour>
    <contour>
      <point x="353" y="80" type="line"/>
      <point x="374" y="108" type="line"/>
      <point x="340" y="201"/>
      <point x="269" y="252"/>
      <point x="204" y="278" type="curve"/>
      <point x="197" y="246" type="line"/>
      <point x="233" y="281"/>
      <point x="280" y="310"/>
      <point x="339" y="345" type="curve"/>
      <point x="284" y="444"/>
      <point x="239" y="499"/>
      <point x="145" y="564" type="curve"/>
      <point x="136" y="536" type="line"/>
      <point x="353" y="536" type="line"/>
    </contour>
    <contour>
      <point x="229" y="-48" type="curve" smooth="yes"/>
      <point x="273" y="-48"/>
      <point x="300" y="-18"/>
      <point x="300" y="30" type="curve" smooth="yes"/>
      <point x="300" y="79"/>
      <point x="273" y="109"/>
      <point x="229" y="109" type="curve" smooth="yes"/>
      <point x="184" y="109"/>
      <point x="156" y="79"/>
      <point x="156" y="30" type="curve" smooth="yes"/>
      <point x="156" y="-18"/>
      <point x="184" y="-48"/>
    </contour>
  </outline>
</glyph>
<glyph name="rrVocalic-beng" format="2">
  <advance width="703"/>
  <unicode hex="09E0"/>
  <anchor x="549" y="0" name="bottom"/>
  <anchor x="549" y="100" name="bottom.rakaar"/>
  <anchor x="549" y="11" name="bottom.rvocalic"/>
  <anchor x="529" y="20" name="bottom.virama"/>
  <anchor x="549" y="536" name="top"/>
  <anchor x="552" y="536" name="topright"/>
  <outline>
    <contour>
      <point x="487" y="-32" type="line"/>
      <point x="498" y="-29" type="line"/>
      <point x="498" y="636" type="line"/>
      <point x="395" y="694" type="line"/>
      <point x="387" y="690" type="line"/>
      <point x="387" y="432" type="line"/>
      <point x="397" y="493" type="line"/>
      <point x="281" y="452"/>
      <point x="142" y="383"/>
      <point x="62" y="330" type="curve"/>
      <point x="140" y="178" type="line"/>
      <point x="243" y="160"/>
      <point x="345" y="111"/>
      <point x="412" y="12" type="curve"/>
    </contour>
    <contour>
      <point x="387" y="108" type="line"/>
      <point x="408" y="108" type="line"/>
      <point x="374" y="201"/>
      <point x="296" y="256"/>
      <point x="231" y="282" type="curve"/>
      <point x="241" y="247" type="line"/>
      <point x="287" y="284"/>
      <point x="358" y="315"/>
      <point x="407" y="332" type="curve"/>
      <point x="387" y="386" type="line"/>
    </contour>
    <contour>
      <point x="125" y="411" type="curve" smooth="yes"/>
      <point x="185" y="411"/>
      <point x="270" y="440"/>
      <point x="319" y="530" type="curve"/>
      <point x="279" y="527" type="line"/>
      <point x="294" y="508"/>
      <point x="319" y="479"/>
      <point x="334" y="441" type="curve"/>
      <point x="390" y="455" type="line"/>
      <point x="371" y="523"/>
      <point x="328" y="603"/>
      <point x="271" y="639" type="curve"/>
      <point x="237" y="575"/>
      <point x="177" y="517"/>
      <point x="110" y="517" type="curve" smooth="yes"/>
      <point x="101" y="517"/>
      <point x="88" y="518"/>
      <point x="80" y="521" type="curve"/>
      <point x="133" y="483" type="line"/>
      <point x="152" y="501"/>
      <point x="159" y="518"/>
      <point x="159" y="548" type="curve" smooth="yes"/>
      <point x="159" y="585"/>
      <point x="137" y="622"/>
      <point x="85" y="622" type="curve" smooth="yes"/>
      <point x="33" y="622"/>
      <point x="0" y="586"/>
      <point x="0" y="533" type="curve" smooth="yes"/>
      <point x="0" y="453"/>
      <point x="53" y="411"/>
    </contour>
    <contour>
      <point x="646" y="39" type="line"/>
      <point x="657" y="42" type="line"/>
      <point x="657" y="536" type="line"/>
      <point x="738" y="536" type="line"/>
      <point x="692" y="622" type="line"/>
      <point x="644" y="622" type="line"/>
      <point x="634" y="686" type="line"/>
      <point x="559" y="724" type="line"/>
      <point x="550" y="720" type="line"/>
      <point x="550" y="179" type="line"/>
      <point x="571" y="179" type="line"/>
      <point x="547" y="244"/>
      <point x="505" y="290"/>
      <point x="459" y="321" type="curve"/>
      <point x="444" y="200" type="line"/>
      <point x="494" y="173"/>
      <point x="540" y="135"/>
      <point x="575" y="83" type="curve"/>
    </contour>
    <contour>
      <point x="451" y="-189" type="curve"/>
      <point x="485" y="-137" type="line"/>
      <point x="452" y="-92"/>
      <point x="387" y="-30"/>
      <point x="303" y="21" type="curve"/>
      <point x="315" y="-14" type="line"/>
      <point x="347" y="18"/>
      <point x="405" y="50"/>
      <point x="441" y="71" type="curve"/>
      <point x="441" y="99" type="line"/>
      <point x="376" y="160" type="line"/>
      <point x="315" y="129"/>
      <point x="222" y="76"/>
      <point x="159" y="24" type="curve"/>
      <point x="221" y="-59" type="line"/>
      <point x="324" y="-90"/>
      <point x="394" y="-136"/>
    </contour>
  </outline>
</glyph>
<glyph name="llVocalic-beng" format="2">
  <advance width="693"/>
  <unicode hex="09E1"/>
  <anchor x="408" y="536" name="top"/>
  <outline>
    <contour>
      <point x="273" y="-22" type="curve"/>
      <point x="413" y="-16"/>
      <point x="490" y="90"/>
      <point x="490" y="259" type="curve" smooth="yes"/>
      <point x="490" y="395"/>
      <point x="423" y="466"/>
      <point x="285" y="503" type="curve" smooth="yes"/>
      <point x="192" y="528"/>
      <point x="140" y="539"/>
      <point x="140" y="616" type="curve" smooth="yes"/>
      <point x="140" y="648"/>
      <point x="145" y="670"/>
      <point x="157" y="699" type="curve"/>
      <point x="97" y="718" type="line"/>
      <point x="77" y="680"/>
      <point x="54" y="630"/>
      <point x="54" y="557" type="curve" smooth="yes"/>
      <point x="54" y="440"/>
      <point x="124" y="398"/>
      <point x="237" y="367" type="curve" smooth="yes"/>
      <point x="345" y="337"/>
      <point x="409" y="328"/>
      <point x="409" y="225" type="curve" smooth="yes"/>
      <point x="409" y="147"/>
      <point x="376" y="106"/>
      <point x="323" y="104" type="curve"/>
      <point x="385" y="69" type="line"/>
      <point x="385" y="218"/>
      <point x="311" y="333"/>
      <point x="186" y="333" type="curve" smooth="yes"/>
      <point x="70" y="333"/>
      <point x="22" y="242"/>
      <point x="22" y="150" type="curve" smooth="yes"/>
      <point x="22" y="40"/>
      <point x="74" y="-15"/>
      <point x="142" y="-15" type="curve" smooth="yes"/>
      <point x="201" y="-15"/>
      <point x="227" y="22"/>
      <point x="227" y="78" type="curve" smooth="yes"/>
      <point x="227" y="131"/>
      <point x="197" y="164"/>
      <point x="151" y="164" type="curve" smooth="yes"/>
      <point x="110" y="164"/>
      <point x="81" y="134"/>
      <point x="82" y="94" type="curve"/>
      <point x="143" y="86" type="line"/>
      <point x="125" y="92"/>
      <point x="113" y="110"/>
      <point x="113" y="141" type="curve" smooth="yes"/>
      <point x="113" y="177"/>
      <point x="135" y="204"/>
      <point x="173" y="204" type="curve" smooth="yes"/>
      <point x="251" y="204"/>
      <point x="277" y="99"/>
      <point x="277" y="19" type="curve" smooth="yes"/>
      <point x="277" y="6"/>
      <point x="276" y="-7"/>
    </contour>
    <contour>
      <point x="475" y="-249" type="line"/>
      <point x="565" y="-238"/>
      <point x="685" y="-170"/>
      <point x="685" y="39" type="curve" smooth="yes"/>
      <point x="685" y="195"/>
      <point x="607" y="278"/>
      <point x="446" y="322" type="curve"/>
      <point x="444" y="174" type="line"/>
      <point x="545" y="146"/>
      <point x="604" y="104"/>
      <point x="604" y="5" type="curve" smooth="yes"/>
      <point x="604" y="-73"/>
      <point x="571" y="-114"/>
      <point x="518" y="-116" type="curve"/>
      <point x="580" y="-151" type="line"/>
      <point x="580" y="-2"/>
      <point x="506" y="113"/>
      <point x="381" y="113" type="curve" smooth="yes"/>
      <point x="265" y="113"/>
      <point x="217" y="22"/>
      <point x="217" y="-70" type="curve" smooth="yes"/>
      <point x="217" y="-180"/>
      <point x="269" y="-235"/>
      <point x="337" y="-235" type="curve" smooth="yes"/>
      <point x="396" y="-235"/>
      <point x="422" y="-198"/>
      <point x="422" y="-142" type="curve" smooth="yes"/>
      <point x="422" y="-89"/>
      <point x="392" y="-56"/>
      <point x="346" y="-56" type="curve" smooth="yes"/>
      <point x="305" y="-56"/>
      <point x="276" y="-86"/>
      <point x="277" y="-126" type="curve"/>
      <point x="338" y="-134" type="line"/>
      <point x="320" y="-128"/>
      <point x="308" y="-110"/>
      <point x="308" y="-79" type="curve" smooth="yes"/>
      <point x="308" y="-43"/>
      <point x="330" y="-16"/>
      <point x="368" y="-16" type="curve" smooth="yes"/>
      <point x="446" y="-16"/>
      <point x="472" y="-121"/>
      <point x="472" y="-201" type="curve" smooth="yes"/>
      <point x="472" y="-214"/>
      <point x="471" y="-227"/>
      <point x="468" y="-242" type="curve"/>
    </contour>
  </outline>
</glyph>
<glyph name="lVocalicMatra-beng" format="2">
  <unicode hex="09E2"/>
  <anchor x="0" y="20" name="_bottom"/>
  <outline>
    <contour>
      <point x="-103" y="-378" type="line"/>
      <point x="-15" y="-369"/>
      <point x="55" y="-313"/>
      <point x="55" y="-205" type="curve" smooth="yes"/>
      <point x="55" y="-127"/>
      <point x="15" y="-89"/>
      <point x="-58" y="-62" type="curve" smooth="yes"/>
      <point x="-124" y="-38"/>
      <point x="-143" y="-30"/>
      <point x="-143" y="5" type="curve" smooth="yes"/>
      <point x="-143" y="15"/>
      <point x="-140" y="30"/>
      <point x="-132" y="46" type="curve"/>
      <point x="-174" y="62" type="line"/>
      <point x="-197" y="32"/>
      <point x="-212" y="-6"/>
      <point x="-212" y="-38" type="curve" smooth="yes"/>
      <point x="-212" y="-90"/>
      <point x="-188" y="-125"/>
      <point x="-103" y="-143" type="curve" smooth="yes"/>
      <point x="-25" y="-160"/>
      <point x="-5" y="-182"/>
      <point x="-5" y="-226" type="curve" smooth="yes"/>
      <point x="-5" y="-266"/>
      <point x="-21" y="-287"/>
      <point x="-34" y="-287" type="curve" smooth="yes"/>
      <point x="-51" y="-287"/>
      <point x="-58" y="-279"/>
      <point x="-67" y="-276" type="curve"/>
      <point x="-22" y="-325" type="line"/>
      <point x="-22" y="-318"/>
      <point x="-22" y="-312"/>
      <point x="-22" y="-306" type="curve" smooth="yes"/>
      <point x="-22" y="-204"/>
      <point x="-85" y="-161"/>
      <point x="-151" y="-161" type="curve" smooth="yes"/>
      <point x="-222" y="-161"/>
      <point x="-263" y="-219"/>
      <point x="-263" y="-285" type="curve" smooth="yes"/>
      <point x="-263" y="-347"/>
      <point x="-230" y="-370"/>
      <point x="-195" y="-370" type="curve" smooth="yes"/>
      <point x="-156" y="-370"/>
      <point x="-138" y="-340"/>
      <point x="-138" y="-309" type="curve" smooth="yes"/>
      <point x="-138" y="-274"/>
      <point x="-158" y="-253"/>
      <point x="-191" y="-253" type="curve" smooth="yes"/>
      <point x="-213" y="-253"/>
      <point x="-231" y="-271"/>
      <point x="-232" y="-293" type="curve"/>
      <point x="-204" y="-297" type="line"/>
      <point x="-208" y="-291"/>
      <point x="-207" y="-285"/>
      <point x="-207" y="-279" type="curve" smooth="yes"/>
      <point x="-207" y="-246"/>
      <point x="-186" y="-236"/>
      <point x="-163" y="-236" type="curve" smooth="yes"/>
      <point x="-120" y="-236"/>
      <point x="-102" y="-275"/>
      <point x="-102" y="-335" type="curve" smooth="yes"/>
      <point x="-102" y="-352"/>
      <point x="-104" y="-363"/>
      <point x="-106" y="-373" type="curve"/>
    </contour>
  </outline>
</glyph>
<glyph name="llVocalicMatra-beng" format="2">
  <unicode hex="09E3"/>
  <anchor x="0" y="20" name="_bottom"/>
  <outline>
    <contour>
      <point x="-106" y="-363" type="curve"/>
      <point x="-2" y="-358"/>
      <point x="55" y="-299"/>
      <point x="55" y="-205" type="curve" smooth="yes"/>
      <point x="55" y="-127"/>
      <point x="15" y="-89"/>
      <point x="-58" y="-62" type="curve" smooth="yes"/>
      <point x="-124" y="-38"/>
      <point x="-143" y="-30"/>
      <point x="-143" y="5" type="curve" smooth="yes"/>
      <point x="-143" y="15"/>
      <point x="-140" y="30"/>
      <point x="-132" y="46" type="curve"/>
      <point x="-174" y="62" type="line"/>
      <point x="-197" y="32"/>
      <point x="-212" y="-6"/>
      <point x="-212" y="-38" type="curve" smooth="yes"/>
      <point x="-212" y="-90"/>
      <point x="-188" y="-125"/>
      <point x="-103" y="-143" type="curve" smooth="yes"/>
      <point x="-25" y="-160"/>
      <point x="-5" y="-182"/>
      <point x="-5" y="-226" type="curve" smooth="yes"/>
      <point x="-5" y="-263"/>
      <point x="-21" y="-282"/>
      <point x="-34" y="-282" type="curve" smooth="yes"/>
      <point x="-51" y="-282"/>
      <point x="-58" y="-275"/>
      <point x="-67" y="-271" type="curve"/>
      <point x="-22" y="-320" type="line"/>
      <point x="-22" y="-313"/>
      <point x="-22" y="-307"/>
      <point x="-22" y="-301" type="curve" smooth="yes"/>
      <point x="-22" y="-203"/>
      <point x="-85" y="-161"/>
      <point x="-151" y="-161" type="curve" smooth="yes"/>
      <point x="-222" y="-161"/>
      <point x="-263" y="-219"/>
      <point x="-263" y="-285" type="curve" smooth="yes"/>
      <point x="-263" y="-347"/>
      <point x="-230" y="-370"/>
      <point x="-195" y="-370" type="curve" smooth="yes"/>
      <point x="-156" y="-370"/>
      <point x="-138" y="-340"/>
      <point x="-138" y="-309" type="curve" smooth="yes"/>
      <point x="-138" y="-274"/>
      <point x="-158" y="-253"/>
      <point x="-191" y="-253" type="curve" smooth="yes"/>
      <point x="-213" y="-253"/>
      <point x="-231" y="-271"/>
      <point x="-232" y="-293" type="curve"/>
      <point x="-204" y="-297" type="line"/>
      <point x="-208" y="-291"/>
      <point x="-207" y="-285"/>
      <point x="-207" y="-279" type="curve" smooth="yes"/>
      <point x="-207" y="-246"/>
      <point x="-186" y="-236"/>
      <point x="-163" y="-236" type="curve" smooth="yes"/>
      <point x="-120" y="-236"/>
      <point x="-102" y="-271"/>
      <point x="-102" y="-325" type="curve" smooth="yes"/>
      <point x="-102" y="-342"/>
      <point x="-104" y="-353"/>
    </contour>
    <contour>
      <point x="29" y="-501" type="line"/>
      <point x="117" y="-492"/>
      <point x="187" y="-436"/>
      <point x="187" y="-328" type="curve" smooth="yes"/>
      <point x="187" y="-250"/>
      <point x="147" y="-212"/>
      <point x="53" y="-179" type="curve"/>
      <point x="29" y="-266" type="line"/>
      <point x="107" y="-283"/>
      <point x="127" y="-305"/>
      <point x="127" y="-349" type="curve" smooth="yes"/>
      <point x="127" y="-389"/>
      <point x="111" y="-410"/>
      <point x="98" y="-410" type="curve" smooth="yes"/>
      <point x="81" y="-410"/>
      <point x="71" y="-403"/>
      <point x="65" y="-399" type="curve"/>
      <point x="110" y="-448" type="line"/>
      <point x="110" y="-441"/>
      <point x="110" y="-435"/>
      <point x="110" y="-429" type="curve" smooth="yes"/>
      <point x="110" y="-327"/>
      <point x="47" y="-284"/>
      <point x="-19" y="-284" type="curve" smooth="yes"/>
      <point x="-90" y="-284"/>
      <point x="-131" y="-342"/>
      <point x="-131" y="-408" type="curve" smooth="yes"/>
      <point x="-131" y="-470"/>
      <point x="-98" y="-493"/>
      <point x="-63" y="-493" type="curve" smooth="yes"/>
      <point x="-24" y="-493"/>
      <point x="-6" y="-463"/>
      <point x="-6" y="-432" type="curve" smooth="yes"/>
      <point x="-6" y="-397"/>
      <point x="-26" y="-376"/>
      <point x="-59" y="-376" type="curve" smooth="yes"/>
      <point x="-81" y="-376"/>
      <point x="-99" y="-394"/>
      <point x="-100" y="-416" type="curve"/>
      <point x="-72" y="-420" type="line"/>
      <point x="-76" y="-414"/>
      <point x="-75" y="-408"/>
      <point x="-75" y="-402" type="curve" smooth="yes"/>
      <point x="-75" y="-369"/>
      <point x="-54" y="-359"/>
      <point x="-31" y="-359" type="curve" smooth="yes"/>
      <point x="12" y="-359"/>
      <point x="30" y="-398"/>
      <point x="30" y="-458" type="curve" smooth="yes"/>
      <point x="30" y="-475"/>
      <point x="28" y="-486"/>
      <point x="26" y="-496" type="curve"/>
    </contour>
  </outline>
</glyph>
<glyph name="zero-beng" format="2">
  <advance width="529"/>
  <unicode hex="09E6"/>
  <outline>
    <contour>
      <point x="262" y="-11" type="curve" smooth="yes"/>
      <point x="407" y="-11"/>
      <point x="499" y="110"/>
      <point x="499" y="286" type="curve" smooth="yes"/>
      <point x="499" y="436"/>
      <point x="415" y="570"/>
      <point x="271" y="570" type="curve" smooth="yes"/>
      <point x="135" y="570"/>
      <point x="30" y="450"/>
      <point x="30" y="278" type="curve" smooth="yes"/>
      <point x="30" y="104"/>
      <point x="138" y="-11"/>
    </contour>
    <contour>
      <point x="228" y="112" type="curve" smooth="yes"/>
      <point x="187" y="112"/>
      <point x="157" y="148"/>
      <point x="157" y="228" type="curve" smooth="yes"/>
      <point x="157" y="340"/>
      <point x="236" y="445"/>
      <point x="307" y="445" type="curve" smooth="yes"/>
      <point x="353" y="445"/>
      <point x="378" y="402"/>
      <point x="378" y="331" type="curve" smooth="yes"/>
      <point x="378" y="221"/>
      <point x="313" y="112"/>
    </contour>
  </outline>
</glyph>
<glyph name="one-beng" format="2">
  <advance width="482"/>
  <unicode hex="09E7"/>
  <outline>
    <contour>
      <point x="274" y="-43" type="curve" smooth="yes"/>
      <point x="400" y="-43"/>
      <point x="476" y="53"/>
      <point x="476" y="177" type="curve" smooth="yes"/>
      <point x="476" y="276"/>
      <point x="439" y="353"/>
      <point x="310" y="407" type="curve" smooth="yes"/>
      <point x="224" y="443"/>
      <point x="195" y="456"/>
      <point x="191" y="499" type="curve"/>
      <point x="132" y="499" type="line"/>
      <point x="139" y="475"/>
      <point x="161" y="465"/>
      <point x="185" y="465" type="curve" smooth="yes"/>
      <point x="231" y="465"/>
      <point x="255" y="497"/>
      <point x="255" y="548" type="curve" smooth="yes"/>
      <point x="255" y="596"/>
      <point x="225" y="639"/>
      <point x="157" y="639" type="curve" smooth="yes"/>
      <point x="89" y="639"/>
      <point x="38" y="585"/>
      <point x="38" y="502" type="curve" smooth="yes"/>
      <point x="38" y="421"/>
      <point x="83" y="353"/>
      <point x="236" y="306" type="curve" smooth="yes"/>
      <point x="322" y="280"/>
      <point x="392" y="252"/>
      <point x="392" y="181" type="curve" smooth="yes"/>
      <point x="392" y="119"/>
      <point x="358" y="82"/>
      <point x="298" y="82" type="curve" smooth="yes"/>
      <point x="267" y="82"/>
      <point x="232" y="96"/>
      <point x="213" y="121" type="curve"/>
      <point x="186" y="64" type="line"/>
      <point x="200" y="57"/>
      <point x="216" y="55"/>
      <point x="225" y="55" type="curve" smooth="yes"/>
      <point x="269" y="55"/>
      <point x="292" y="94"/>
      <point x="292" y="141" type="curve" smooth="yes"/>
      <point x="292" y="193"/>
      <point x="257" y="231"/>
      <point x="203" y="231" type="curve" smooth="yes"/>
      <point x="142" y="231"/>
      <point x="99" y="180"/>
      <point x="99" y="111" type="curve" smooth="yes"/>
      <point x="99" y="7"/>
      <point x="182" y="-43"/>
    </contour>
  </outline>
</glyph>
<glyph name="two-beng" format="2">
  <advance width="473"/>
  <unicode hex="09E8"/>
  <outline>
    <contour>
      <point x="478" y="-114" type="curve"/>
      <point x="520" y="-62" type="line"/>
      <point x="423" y="42"/>
      <point x="302" y="136"/>
      <point x="193" y="163" type="curve"/>
      <point x="190" y="108" type="line"/>
      <point x="200" y="105"/>
      <point x="227" y="103"/>
      <point x="249" y="103" type="curve" smooth="yes"/>
      <point x="378" y="103"/>
      <point x="456" y="155"/>
      <point x="456" y="270" type="curve" smooth="yes"/>
      <point x="456" y="348"/>
      <point x="415" y="394"/>
      <point x="313" y="421" type="curve" smooth="yes"/>
      <point x="227" y="444"/>
      <point x="198" y="456"/>
      <point x="194" y="499" type="curve"/>
      <point x="135" y="499" type="line"/>
      <point x="142" y="475"/>
      <point x="164" y="465"/>
      <point x="188" y="465" type="curve" smooth="yes"/>
      <point x="234" y="465"/>
      <point x="258" y="497"/>
      <point x="258" y="548" type="curve" smooth="yes"/>
      <point x="258" y="596"/>
      <point x="228" y="639"/>
      <point x="160" y="639" type="curve" smooth="yes"/>
      <point x="92" y="639"/>
      <point x="41" y="585"/>
      <point x="41" y="502" type="curve" smooth="yes"/>
      <point x="41" y="421"/>
      <point x="86" y="359"/>
      <point x="216" y="332" type="curve" smooth="yes"/>
      <point x="306" y="313"/>
      <point x="357" y="320"/>
      <point x="357" y="279" type="curve" smooth="yes"/>
      <point x="357" y="241"/>
      <point x="293" y="231"/>
      <point x="235" y="231" type="curve" smooth="yes"/>
      <point x="167" y="231"/>
      <point x="97" y="253"/>
      <point x="59" y="281" type="curve"/>
      <point x="91" y="93" type="line"/>
      <point x="197" y="57"/>
      <point x="317" y="23"/>
    </contour>
  </outline>
</glyph>
<glyph name="three-beng" format="2">
  <advance width="565"/>
  <unicode hex="09E9"/>
  <outline>
    <contour>
      <point x="334" y="-15" type="curve" smooth="yes"/>
      <point x="464" y="-15"/>
      <point x="555" y="81"/>
      <point x="555" y="262" type="curve" smooth="yes"/>
      <point x="555" y="427"/>
      <point x="465" y="552"/>
      <point x="317" y="552" type="curve" smooth="yes"/>
      <point x="219" y="552"/>
      <point x="166" y="491"/>
      <point x="166" y="408" type="curve" smooth="yes"/>
      <point x="166" y="331"/>
      <point x="213" y="271"/>
      <point x="295" y="271" type="curve" smooth="yes"/>
      <point x="371" y="271"/>
      <point x="407" y="324"/>
      <point x="407" y="387" type="curve" smooth="yes"/>
      <point x="407" y="432"/>
      <point x="380" y="468"/>
      <point x="364" y="485" type="curve"/>
      <point x="322" y="390" type="line"/>
      <point x="333" y="398"/>
      <point x="357" y="410"/>
      <point x="383" y="410" type="curve" smooth="yes"/>
      <point x="434" y="410"/>
      <point x="464" y="368"/>
      <point x="464" y="295" type="curve" smooth="yes"/>
      <point x="464" y="220"/>
      <point x="429" y="142"/>
      <point x="328" y="142" type="curve" smooth="yes"/>
      <point x="210" y="142"/>
      <point x="128" y="230"/>
      <point x="71" y="494" type="curve"/>
      <point x="5" y="478" type="line"/>
      <point x="62" y="136"/>
      <point x="154" y="-15"/>
    </contour>
  </outline>
</glyph>
<glyph name="four-beng" format="2">
  <advance width="486"/>
  <unicode hex="09EA"/>
  <outline>
    <contour>
      <point x="253" y="-39" type="curve" smooth="yes"/>
      <point x="378" y="-39"/>
      <point x="452" y="35"/>
      <point x="452" y="132" type="curve" smooth="yes"/>
      <point x="452" y="222"/>
      <point x="385" y="268"/>
      <point x="303" y="309" type="curve"/>
      <point x="253" y="262" type="line"/>
      <point x="301" y="236"/>
      <point x="321" y="193"/>
      <point x="321" y="151" type="curve" smooth="yes"/>
      <point x="321" y="97"/>
      <point x="277" y="61"/>
      <point x="228" y="61" type="curve" smooth="yes"/>
      <point x="184" y="61"/>
      <point x="158" y="82"/>
      <point x="158" y="119" type="curve" smooth="yes"/>
      <point x="158" y="167"/>
      <point x="209" y="191"/>
      <point x="309" y="245" type="curve" smooth="yes"/>
      <point x="406" y="298"/>
      <point x="439" y="346"/>
      <point x="439" y="439" type="curve" smooth="yes"/>
      <point x="439" y="557"/>
      <point x="336" y="617"/>
      <point x="229" y="617" type="curve" smooth="yes"/>
      <point x="109" y="617"/>
      <point x="49" y="541"/>
      <point x="49" y="455" type="curve" smooth="yes"/>
      <point x="49" y="352"/>
      <point x="142" y="314"/>
      <point x="188" y="287" type="curve"/>
      <point x="225" y="339" type="line"/>
      <point x="206" y="361"/>
      <point x="183" y="395"/>
      <point x="183" y="444" type="curve" smooth="yes"/>
      <point x="183" y="493"/>
      <point x="212" y="522"/>
      <point x="253" y="522" type="curve" smooth="yes"/>
      <point x="302" y="522"/>
      <point x="321" y="498"/>
      <point x="321" y="467" type="curve" smooth="yes"/>
      <point x="321" y="426"/>
      <point x="292" y="403"/>
      <point x="205" y="359" type="curve" smooth="yes"/>
      <point x="78" y="295"/>
      <point x="34" y="249"/>
      <point x="34" y="150" type="curve" smooth="yes"/>
      <point x="34" y="22"/>
      <point x="144" y="-39"/>
    </contour>
  </outline>
</glyph>
<glyph name="five-beng" format="2">
  <advance width="500"/>
  <unicode hex="09EB"/>
  <outline>
    <contour>
      <point x="306" y="-30" type="curve" smooth="yes"/>
      <point x="377" y="-30"/>
      <point x="444" y="-10"/>
      <point x="493" y="39" type="curve"/>
      <point x="456" y="121" type="line"/>
      <point x="393" y="130"/>
      <point x="381" y="171"/>
      <point x="381" y="211" type="curve" smooth="yes"/>
      <point x="381" y="282"/>
      <point x="435" y="322"/>
      <point x="489" y="340" type="curve"/>
      <point x="445" y="433" type="line"/>
      <point x="403" y="426"/>
      <point x="356" y="435"/>
      <point x="356" y="495" type="curve" smooth="yes"/>
      <point x="356" y="514"/>
      <point x="361" y="532"/>
      <point x="376" y="546" type="curve"/>
      <point x="372" y="587"/>
      <point x="354" y="622"/>
      <point x="293" y="622" type="curve" smooth="yes"/>
      <point x="173" y="622"/>
      <point x="26" y="486"/>
      <point x="26" y="280" type="curve" smooth="yes"/>
      <point x="26" y="88"/>
      <point x="175" y="-30"/>
    </contour>
    <contour>
      <point x="279" y="84" type="curve" smooth="yes"/>
      <point x="212" y="84"/>
      <point x="162" y="139"/>
      <point x="162" y="250" type="curve" smooth="yes"/>
      <point x="162" y="365"/>
      <point x="220" y="467"/>
      <point x="306" y="496" type="curve"/>
      <point x="282" y="537" type="line"/>
      <point x="265" y="519"/>
      <point x="255" y="484"/>
      <point x="255" y="462" type="curve" smooth="yes"/>
      <point x="255" y="385"/>
      <point x="353" y="380"/>
      <point x="372" y="380" type="curve"/>
      <point x="331" y="406" type="line"/>
      <point x="290" y="368"/>
      <point x="252" y="317"/>
      <point x="252" y="246" type="curve" smooth="yes"/>
      <point x="252" y="177"/>
      <point x="291" y="111"/>
      <point x="373" y="90" type="curve"/>
      <point x="363" y="110" type="line"/>
      <point x="330" y="94"/>
      <point x="302" y="84"/>
    </contour>
  </outline>
</glyph>
<glyph name="six-beng" format="2">
  <advance width="592"/>
  <unicode hex="09EC"/>
  <outline>
    <contour>
      <point x="347" y="-27" type="curve" smooth="yes"/>
      <point x="496" y="-27"/>
      <point x="571" y="75"/>
      <point x="571" y="228" type="curve" smooth="yes"/>
      <point x="571" y="342"/>
      <point x="528" y="422"/>
      <point x="475" y="475" type="curve"/>
      <point x="424" y="385"/>
      <point x="388" y="348"/>
      <point x="358" y="348" type="curve" smooth="yes"/>
      <point x="346" y="348"/>
      <point x="329" y="354"/>
      <point x="329" y="380" type="curve" smooth="yes"/>
      <point x="329" y="508" type="line" smooth="yes"/>
      <point x="329" y="576"/>
      <point x="293" y="638"/>
      <point x="214" y="638" type="curve" smooth="yes"/>
      <point x="159" y="638"/>
      <point x="122" y="603"/>
      <point x="122" y="548" type="curve" smooth="yes"/>
      <point x="122" y="492"/>
      <point x="157" y="458"/>
      <point x="205" y="458" type="curve" smooth="yes"/>
      <point x="256" y="458"/>
      <point x="270" y="500"/>
      <point x="270" y="530" type="curve"/>
      <point x="218" y="500" type="line"/>
      <point x="218" y="374" type="line" smooth="yes"/>
      <point x="218" y="319"/>
      <point x="231" y="281"/>
      <point x="259" y="251" type="curve" smooth="yes"/>
      <point x="288" y="220"/>
      <point x="319" y="205"/>
      <point x="366" y="205" type="curve" smooth="yes"/>
      <point x="427" y="205"/>
      <point x="487" y="253"/>
      <point x="521" y="331" type="curve"/>
      <point x="465" y="322" type="line"/>
      <point x="482" y="301"/>
      <point x="493" y="272"/>
      <point x="493" y="243" type="curve" smooth="yes"/>
      <point x="493" y="168"/>
      <point x="437" y="124"/>
      <point x="350" y="124" type="curve" smooth="yes"/>
      <point x="197" y="124"/>
      <point x="133" y="255"/>
      <point x="101" y="475" type="curve"/>
      <point x="33" y="462" type="line"/>
      <point x="66" y="143"/>
      <point x="148" y="-27"/>
    </contour>
  </outline>
</glyph>
<glyph name="seven-beng" format="2">
  <advance width="530"/>
  <unicode hex="09ED"/>
  <outline>
    <contour>
      <point x="438" y="-57" type="curve" smooth="yes"/>
      <point x="496" y="-57"/>
      <point x="531" y="-21"/>
      <point x="531" y="35" type="curve" smooth="yes"/>
      <point x="531" y="90"/>
      <point x="495" y="124"/>
      <point x="452" y="124" type="curve" smooth="yes"/>
      <point x="402" y="124"/>
      <point x="385" y="81"/>
      <point x="385" y="51" type="curve"/>
      <point x="435" y="43" type="line"/>
      <point x="435" y="462" type="line" smooth="yes"/>
      <point x="435" y="566"/>
      <point x="356" y="637"/>
      <point x="246" y="637" type="curve" smooth="yes"/>
      <point x="130" y="637"/>
      <point x="32" y="542"/>
      <point x="32" y="410" type="curve" smooth="yes"/>
      <point x="32" y="271"/>
      <point x="151" y="183"/>
      <point x="239" y="183" type="curve" smooth="yes"/>
      <point x="297" y="183"/>
      <point x="320" y="193"/>
      <point x="349" y="210" type="curve"/>
      <point x="348" y="377" type="line"/>
      <point x="313" y="343"/>
      <point x="267" y="319"/>
      <point x="218" y="319" type="curve" smooth="yes"/>
      <point x="169" y="319"/>
      <point x="147" y="343"/>
      <point x="147" y="383" type="curve" smooth="yes"/>
      <point x="147" y="450"/>
      <point x="225" y="522"/>
      <point x="278" y="522" type="curve" smooth="yes"/>
      <point x="311" y="522"/>
      <point x="324" y="504"/>
      <point x="324" y="467" type="curve" smooth="yes"/>
      <point x="324" y="84" type="line" smooth="yes"/>
      <point x="324" y="3"/>
      <point x="366" y="-57"/>
    </contour>
  </outline>
</glyph>
<glyph name="eight-beng" format="2">
  <advance width="628"/>
  <unicode hex="09EE"/>
  <outline>
    <contour>
      <point x="312" y="-44" type="curve" smooth="yes"/>
      <point x="413" y="-44"/>
      <point x="518" y="47"/>
      <point x="518" y="174" type="curve" smooth="yes"/>
      <point x="518" y="243"/>
      <point x="470" y="285"/>
      <point x="415" y="337" type="curve"/>
      <point x="357" y="337" type="line"/>
      <point x="381" y="290"/>
      <point x="390" y="258"/>
      <point x="390" y="217" type="curve" smooth="yes"/>
      <point x="390" y="135"/>
      <point x="336" y="77"/>
      <point x="285" y="77" type="curve" smooth="yes"/>
      <point x="257" y="77"/>
      <point x="246" y="94"/>
      <point x="246" y="124" type="curve" smooth="yes"/>
      <point x="246" y="508" type="line" smooth="yes"/>
      <point x="246" y="576"/>
      <point x="209" y="638"/>
      <point x="130" y="638" type="curve" smooth="yes"/>
      <point x="76" y="638"/>
      <point x="38" y="603"/>
      <point x="38" y="548" type="curve" smooth="yes"/>
      <point x="38" y="492"/>
      <point x="73" y="458"/>
      <point x="121" y="458" type="curve" smooth="yes"/>
      <point x="172" y="458"/>
      <point x="186" y="500"/>
      <point x="186" y="530" type="curve"/>
      <point x="135" y="538" type="line"/>
      <point x="135" y="136" type="line" smooth="yes"/>
      <point x="135" y="31"/>
      <point x="214" y="-44"/>
    </contour>
    <contour>
      <point x="210" y="238" type="line"/>
      <point x="255" y="272"/>
      <point x="344" y="312"/>
      <point x="421" y="312" type="curve" smooth="yes"/>
      <point x="474" y="312"/>
      <point x="494" y="269"/>
      <point x="542" y="269" type="curve" smooth="yes"/>
      <point x="595" y="269"/>
      <point x="622" y="319"/>
      <point x="625" y="433" type="curve"/>
      <point x="569" y="445" type="line"/>
      <point x="556" y="393"/>
      <point x="546" y="375"/>
      <point x="505" y="375" type="curve" smooth="yes"/>
      <point x="439" y="375"/>
      <point x="411" y="411"/>
      <point x="342" y="411" type="curve" smooth="yes"/>
      <point x="297" y="411"/>
      <point x="254" y="400"/>
      <point x="210" y="379" type="curve"/>
    </contour>
  </outline>
</glyph>
<glyph name="nine-beng" format="2">
  <advance width="582"/>
  <unicode hex="09EF"/>
  <outline>
    <contour>
      <point x="311" y="-55" type="line"/>
      <point x="401" y="-44"/>
      <point x="538" y="42"/>
      <point x="538" y="221" type="curve" smooth="yes"/>
      <point x="538" y="314"/>
      <point x="485" y="390"/>
      <point x="363" y="425" type="curve" smooth="yes"/>
      <point x="277" y="450"/>
      <point x="248" y="456"/>
      <point x="244" y="499" type="curve"/>
      <point x="185" y="499" type="line"/>
      <point x="192" y="475"/>
      <point x="214" y="465"/>
      <point x="238" y="465" type="curve" smooth="yes"/>
      <point x="284" y="465"/>
      <point x="308" y="497"/>
      <point x="308" y="548" type="curve" smooth="yes"/>
      <point x="308" y="596"/>
      <point x="278" y="639"/>
      <point x="210" y="639" type="curve" smooth="yes"/>
      <point x="142" y="639"/>
      <point x="91" y="585"/>
      <point x="91" y="502" type="curve" smooth="yes"/>
      <point x="91" y="421"/>
      <point x="136" y="366"/>
      <point x="266" y="332" type="curve" smooth="yes"/>
      <point x="383" y="301"/>
      <point x="439" y="279"/>
      <point x="439" y="192" type="curve" smooth="yes"/>
      <point x="439" y="124"/>
      <point x="407" y="80"/>
      <point x="354" y="78" type="curve"/>
      <point x="416" y="43" type="line"/>
      <point x="416" y="192"/>
      <point x="342" y="307"/>
      <point x="217" y="307" type="curve" smooth="yes"/>
      <point x="101" y="307"/>
      <point x="53" y="216"/>
      <point x="53" y="124" type="curve" smooth="yes"/>
      <point x="53" y="14"/>
      <point x="105" y="-41"/>
      <point x="173" y="-41" type="curve" smooth="yes"/>
      <point x="232" y="-41"/>
      <point x="258" y="-4"/>
      <point x="258" y="52" type="curve" smooth="yes"/>
      <point x="258" y="105"/>
      <point x="228" y="138"/>
      <point x="182" y="138" type="curve" smooth="yes"/>
      <point x="141" y="138"/>
      <point x="112" y="108"/>
      <point x="113" y="68" type="curve"/>
      <point x="174" y="60" type="line"/>
      <point x="156" y="66"/>
      <point x="144" y="84"/>
      <point x="144" y="115" type="curve" smooth="yes"/>
      <point x="144" y="151"/>
      <point x="166" y="178"/>
      <point x="204" y="178" type="curve" smooth="yes"/>
      <point x="282" y="178"/>
      <point x="308" y="73"/>
      <point x="308" y="-7" type="curve" smooth="yes"/>
      <point x="308" y="-20"/>
      <point x="307" y="-33"/>
      <point x="304" y="-48" type="curve"/>
    </contour>
  </outline>
</glyph>
<glyph name="rupee-beng" format="2">
  <advance width="541"/>
  <unicode hex="09F3"/>
  <outline>
    <contour>
      <point x="285" y="-12" type="curve" smooth="yes"/>
      <point x="424" y="-12"/>
      <point x="516" y="150"/>
      <point x="516" y="280" type="curve" smooth="yes"/>
      <point x="516" y="382"/>
      <point x="458" y="429"/>
      <point x="395" y="429" type="curve" smooth="yes"/>
      <point x="330" y="429"/>
      <point x="286" y="385"/>
      <point x="286" y="320" type="curve" smooth="yes"/>
      <point x="286" y="260"/>
      <point x="318" y="218"/>
      <point x="377" y="218" type="curve" smooth="yes"/>
      <point x="393" y="218"/>
      <point x="417" y="231"/>
      <point x="437" y="255" type="curve"/>
      <point x="377" y="293" type="line"/>
      <point x="367" y="159"/>
      <point x="306" y="111"/>
      <point x="269" y="111" type="curve" smooth="yes"/>
      <point x="251" y="111"/>
      <point x="239" y="122"/>
      <point x="239" y="145" type="curve" smooth="yes"/>
      <point x="239" y="663" type="line" smooth="yes"/>
      <point x="239" y="746"/>
      <point x="202" y="804"/>
      <point x="126" y="804" type="curve" smooth="yes"/>
      <point x="70" y="804"/>
      <point x="34" y="768"/>
      <point x="34" y="711" type="curve" smooth="yes"/>
      <point x="34" y="655"/>
      <point x="69" y="623"/>
      <point x="111" y="623" type="curve" smooth="yes"/>
      <point x="161" y="623"/>
      <point x="176" y="663"/>
      <point x="176" y="693" type="curve"/>
      <point x="128" y="697" type="line"/>
      <point x="128" y="135" type="line" smooth="yes"/>
      <point x="128" y="45"/>
      <point x="204" y="-12"/>
    </contour>
    <contour>
      <point x="55" y="473" type="line"/>
      <point x="519" y="473" type="line"/>
      <point x="485" y="555" type="line"/>
      <point x="18" y="555" type="line"/>
    </contour>
  </outline>
</glyph>
<glyph name="oneNumr-beng" format="2">
  <advance width="438"/>
  <unicode hex="09F4"/>
  <outline>
    <contour>
      <point x="135" y="-10" type="line"/>
      <point x="257" y="96"/>
      <point x="352" y="261"/>
      <point x="400" y="554" type="curve"/>
      <point x="326" y="571" type="line"/>
      <point x="255" y="306"/>
      <point x="132" y="188"/>
      <point x="6" y="91" type="curve"/>
    </contour>
  </outline>
</glyph>
<glyph name="twoNumr-beng" format="2">
  <advance width="625"/>
  <unicode hex="09F5"/>
  <outline>
    <contour>
      <point x="262" y="-19" type="line"/>
      <point x="413" y="96"/>
      <point x="521" y="291"/>
      <point x="587" y="649" type="curve"/>
      <point x="505" y="670" type="line"/>
      <point x="450" y="463"/>
      <point x="393" y="308"/>
      <point x="305" y="227" type="curve"/>
      <point x="339" y="207" type="line"/>
      <point x="347" y="226"/>
      <point x="348" y="249"/>
      <point x="348" y="264" type="curve" smooth="yes"/>
      <point x="348" y="419"/>
      <point x="256" y="485"/>
      <point x="162" y="485" type="curve" smooth="yes"/>
      <point x="79" y="485"/>
      <point x="17" y="420"/>
      <point x="17" y="335" type="curve" smooth="yes"/>
      <point x="17" y="255"/>
      <point x="63" y="215"/>
      <point x="119" y="215" type="curve" smooth="yes"/>
      <point x="180" y="215"/>
      <point x="211" y="259"/>
      <point x="211" y="311" type="curve" smooth="yes"/>
      <point x="211" y="352"/>
      <point x="195" y="380"/>
      <point x="169" y="396" type="curve"/>
      <point x="149" y="357" type="line"/>
      <point x="161" y="373"/>
      <point x="175" y="385"/>
      <point x="197" y="385" type="curve" smooth="yes"/>
      <point x="235" y="385"/>
      <point x="260" y="348"/>
      <point x="260" y="287" type="curve" smooth="yes"/>
      <point x="260" y="175"/>
      <point x="181" y="122"/>
      <point x="115" y="93" type="curve"/>
    </contour>
  </outline>
</glyph>
<glyph name="threeNumr-beng" format="2">
  <advance width="655"/>
  <unicode hex="09F6"/>
  <outline>
    <contour>
      <point x="232" y="-28" type="curve" smooth="yes"/>
      <point x="375" y="-28"/>
      <point x="508" y="58"/>
      <point x="615" y="649" type="curve"/>
      <point x="533" y="669" type="line"/>
      <point x="426" y="204"/>
      <point x="291" y="86"/>
      <point x="199" y="86" type="curve" smooth="yes"/>
      <point x="181" y="86"/>
      <point x="163" y="96"/>
      <point x="163" y="116" type="curve" smooth="yes"/>
      <point x="163" y="138"/>
      <point x="180" y="146"/>
      <point x="248" y="173" type="curve" smooth="yes"/>
      <point x="338" y="209"/>
      <point x="372" y="270"/>
      <point x="372" y="347" type="curve" smooth="yes"/>
      <point x="372" y="471"/>
      <point x="275" y="538"/>
      <point x="174" y="538" type="curve" smooth="yes"/>
      <point x="94" y="538"/>
      <point x="34" y="482"/>
      <point x="34" y="403" type="curve" smooth="yes"/>
      <point x="34" y="334"/>
      <point x="75" y="301"/>
      <point x="126" y="301" type="curve" smooth="yes"/>
      <point x="175" y="301"/>
      <point x="207" y="336"/>
      <point x="207" y="384" type="curve" smooth="yes"/>
      <point x="207" y="421"/>
      <point x="191" y="442"/>
      <point x="170" y="456" type="curve"/>
      <point x="172" y="403" type="line"/>
      <point x="184" y="424"/>
      <point x="200" y="432"/>
      <point x="220" y="432" type="curve" smooth="yes"/>
      <point x="245" y="432"/>
      <point x="264" y="418"/>
      <point x="264" y="385" type="curve" smooth="yes"/>
      <point x="264" y="344"/>
      <point x="231" y="310"/>
      <point x="146" y="282" type="curve" smooth="yes"/>
      <point x="62" y="254"/>
      <point x="27" y="213"/>
      <point x="27" y="148" type="curve" smooth="yes"/>
      <point x="27" y="48"/>
      <point x="137" y="-28"/>
    </contour>
  </outline>
</glyph>
<glyph name="fourNumr-beng" format="2">
  <advance width="327"/>
  <unicode hex="09F7"/>
  <outline>
    <contour>
      <point x="240" y="-46" type="curve" smooth="yes"/>
      <point x="296" y="-46"/>
      <point x="332" y="-10"/>
      <point x="332" y="47" type="curve" smooth="yes"/>
      <point x="332" y="103"/>
      <point x="297" y="135"/>
      <point x="255" y="135" type="curve" smooth="yes"/>
      <point x="205" y="135"/>
      <point x="190" y="95"/>
      <point x="190" y="65" type="curve"/>
      <point x="238" y="61" type="line"/>
      <point x="238" y="498" type="line" smooth="yes"/>
      <point x="238" y="581"/>
      <point x="203" y="639"/>
      <point x="127" y="639" type="curve" smooth="yes"/>
      <point x="71" y="639"/>
      <point x="35" y="603"/>
      <point x="35" y="546" type="curve" smooth="yes"/>
      <point x="35" y="490"/>
      <point x="70" y="458"/>
      <point x="112" y="458" type="curve" smooth="yes"/>
      <point x="162" y="458"/>
      <point x="177" y="498"/>
      <point x="177" y="528" type="curve"/>
      <point x="129" y="532" type="line"/>
      <point x="129" y="95" type="line" smooth="yes"/>
      <point x="129" y="12"/>
      <point x="164" y="-46"/>
    </contour>
  </outline>
</glyph>
<glyph name="oneLessNumr-beng" format="2">
  <advance width="579"/>
  <unicode hex="09F8"/>
  <outline>
    <contour>
      <point x="492" y="-27" type="curve" smooth="yes"/>
      <point x="548" y="-27"/>
      <point x="584" y="9"/>
      <point x="584" y="66" type="curve" smooth="yes"/>
      <point x="584" y="122"/>
      <point x="549" y="154"/>
      <point x="507" y="154" type="curve" smooth="yes"/>
      <point x="457" y="154"/>
      <point x="442" y="114"/>
      <point x="442" y="84" type="curve"/>
      <point x="490" y="80" type="line"/>
      <point x="490" y="432" type="line"/>
      <point x="385" y="509" type="line"/>
      <point x="318" y="447"/>
      <point x="256" y="369"/>
      <point x="213" y="299" type="curve"/>
      <point x="230" y="258" type="line"/>
      <point x="235" y="304"/>
      <point x="238" y="352"/>
      <point x="238" y="390" type="curve" smooth="yes"/>
      <point x="238" y="498" type="line" smooth="yes"/>
      <point x="238" y="581"/>
      <point x="203" y="639"/>
      <point x="127" y="639" type="curve" smooth="yes"/>
      <point x="71" y="639"/>
      <point x="35" y="603"/>
      <point x="35" y="546" type="curve" smooth="yes"/>
      <point x="35" y="490"/>
      <point x="70" y="458"/>
      <point x="112" y="458" type="curve" smooth="yes"/>
      <point x="162" y="458"/>
      <point x="177" y="498"/>
      <point x="177" y="528" type="curve"/>
      <point x="129" y="532" type="line"/>
      <point x="129" y="176" type="line"/>
      <point x="239" y="103" type="line"/>
      <point x="300" y="197"/>
      <point x="365" y="278"/>
      <point x="436" y="354" type="curve"/>
      <point x="381" y="402" type="line"/>
      <point x="381" y="114" type="line" smooth="yes"/>
      <point x="381" y="31"/>
      <point x="416" y="-27"/>
    </contour>
  </outline>
</glyph>
<glyph name="sixteenDnom-beng" format="2">
  <advance width="362"/>
  <unicode hex="09F9"/>
  <outline>
    <contour>
      <point x="189" y="103" type="curve" smooth="yes"/>
      <point x="280" y="103"/>
      <point x="348" y="170"/>
      <point x="348" y="285" type="curve" smooth="yes"/>
      <point x="348" y="415"/>
      <point x="281" y="521"/>
      <point x="178" y="521" type="curve" smooth="yes"/>
      <point x="80" y="521"/>
      <point x="14" y="450"/>
      <point x="14" y="337" type="curve" smooth="yes"/>
      <point x="14" y="203"/>
      <point x="89" y="103"/>
    </contour>
    <contour>
      <point x="158" y="229" type="curve" smooth="yes"/>
      <point x="126" y="229"/>
      <point x="105" y="249"/>
      <point x="105" y="285" type="curve" smooth="yes"/>
      <point x="105" y="345"/>
      <point x="161" y="390"/>
      <point x="207" y="390" type="curve" smooth="yes"/>
      <point x="239" y="390"/>
      <point x="255" y="368"/>
      <point x="255" y="332" type="curve" smooth="yes"/>
      <point x="255" y="274"/>
      <point x="199" y="229"/>
    </contour>
  </outline>
</glyph>
<glyph name="isshar-beng" format="2">
  <advance width="479"/>
  <unicode hex="09FA"/>
  <outline>
    <contour>
      <point x="189" y="134" type="curve" smooth="yes"/>
      <point x="312" y="134"/>
      <point x="387" y="242"/>
      <point x="459" y="511" type="curve"/>
      <point x="391" y="525" type="line"/>
      <point x="332" y="337"/>
      <point x="268" y="281"/>
      <point x="195" y="281" type="curve" smooth="yes"/>
      <point x="112" y="281"/>
      <point x="81" y="355"/>
      <point x="81" y="435" type="curve" smooth="yes"/>
      <point x="81" y="442"/>
      <point x="81" y="450"/>
      <point x="82" y="458" type="curve"/>
      <point x="21" y="453" type="line"/>
      <point x="18" y="428"/>
      <point x="15" y="401"/>
      <point x="15" y="375" type="curve" smooth="yes"/>
      <point x="15" y="237"/>
      <point x="68" y="134"/>
    </contour>
    <contour>
      <point x="208" y="343" type="curve" smooth="yes"/>
      <point x="248" y="343"/>
      <point x="278" y="373"/>
      <point x="278" y="421" type="curve" smooth="yes"/>
      <point x="278" y="466"/>
      <point x="248" y="498"/>
      <point x="208" y="498" type="curve" smooth="yes"/>
      <point x="167" y="498"/>
      <point x="136" y="467"/>
      <point x="136" y="421" type="curve" smooth="yes"/>
      <point x="136" y="373"/>
      <point x="169" y="343"/>
    </contour>
  </outline>
</glyph>
<glyph name="uni09FD" format="2">
  <advance width="402"/>
  <unicode hex="09FD"/>
  <outline>
    <contour>
      <point x="190" y="272" type="curve" smooth="yes"/>
      <point x="226" y="272"/>
      <point x="259" y="286"/>
      <point x="282" y="308" type="curve" smooth="yes"/>
      <point x="312" y="336"/>
      <point x="332" y="380"/>
      <point x="332" y="427" type="curve" smooth="yes"/>
      <point x="332" y="507"/>
      <point x="282" y="566"/>
      <point x="210" y="566" type="curve" smooth="yes"/>
      <point x="172" y="566"/>
      <point x="139" y="551"/>
      <point x="115" y="526" type="curve" smooth="yes"/>
      <point x="87" y="497"/>
      <point x="70" y="457"/>
      <point x="70" y="413" type="curve" smooth="yes"/>
      <point x="70" y="333"/>
      <point x="119" y="272"/>
    </contour>
    <contour>
      <point x="205" y="337" type="curve" smooth="yes"/>
      <point x="173" y="337"/>
      <point x="154" y="377"/>
      <point x="154" y="427" type="curve" smooth="yes"/>
      <point x="154" y="470"/>
      <point x="169" y="503"/>
      <point x="199" y="503" type="curve" smooth="yes"/>
      <point x="230" y="503"/>
      <point x="248" y="463"/>
      <point x="248" y="413" type="curve" smooth="yes"/>
      <point x="248" y="370"/>
      <point x="234" y="337"/>
    </contour>
  </outline>
</glyph>
<glyph name="uni09FE" format="2">
  <unicode hex="09FE"/>
  <outline>
    <contour>
      <point x="136" y="919" type="curve"/>
      <point x="168" y="956" type="line"/>
      <point x="112" y="1006"/>
      <point x="42" y="1046"/>
      <point x="-29" y="1059" type="curve"/>
      <point x="-57" y="1026" type="line"/>
      <point x="-47" y="1021"/>
      <point x="-31" y="1017"/>
      <point x="-14" y="1017" type="curve" smooth="yes"/>
      <point x="81" y="1017"/>
      <point x="129" y="1059"/>
      <point x="129" y="1120" type="curve" smooth="yes"/>
      <point x="129" y="1176"/>
      <point x="85" y="1226"/>
      <point x="-11" y="1226" type="curve" smooth="yes"/>
      <point x="-81" y="1226"/>
      <point x="-109" y="1204"/>
      <point x="-109" y="1164" type="curve" smooth="yes"/>
      <point x="-109" y="1121"/>
      <point x="-80" y="1103"/>
      <point x="-39" y="1103" type="curve" smooth="yes"/>
      <point x="3" y="1103"/>
      <point x="28" y="1123"/>
      <point x="28" y="1176" type="curve" smooth="yes"/>
      <point x="28" y="1208"/>
      <point x="5" y="1251"/>
      <point x="-29" y="1273" type="curve"/>
      <point x="-181" y="1273" type="line"/>
      <point x="-158" y="1226" type="line"/>
      <point x="-63" y="1226" type="line"/>
      <point x="-78" y="1239" type="line"/>
      <point x="-121" y="1246" type="line"/>
      <point x="-85" y="1233"/>
      <point x="-59" y="1218"/>
      <point x="-39" y="1197" type="curve"/>
      <point x="-34" y="1153" type="line"/>
      <point x="-24" y="1162"/>
      <point x="-1" y="1172"/>
      <point x="12" y="1172" type="curve" smooth="yes"/>
      <point x="43" y="1172"/>
      <point x="58" y="1157"/>
      <point x="58" y="1137" type="curve" smooth="yes"/>
      <point x="58" y="1103"/>
      <point x="23" y="1085"/>
      <point x="-29" y="1085" type="curve" smooth="yes"/>
      <point x="-62" y="1085"/>
      <point x="-91" y="1092"/>
      <point x="-117" y="1102" type="curve"/>
      <point x="-99" y="1013" type="line"/>
      <point x="-18" y="1005"/>
      <point x="51" y="977"/>
    </contour>
  </outline>
</glyph>
<glyph name="uni1CD2" format="2">
  <unicode hex="1CD2"/>
  <note>
uni1CD2
</note>
  <anchor x="-299" y="-280" name="_vedic"/>
  <outline>
    <contour>
      <point x="-429" y="742" type="line"/>
      <point x="-124" y="742" type="line"/>
      <point x="-166" y="828" type="line"/>
      <point x="-471" y="828" type="line"/>
    </contour>
  </outline>
</glyph>
<glyph name="uni1CE1" format="2">
  <advance width="505"/>
  <unicode hex="1CE1"/>
  <note>
uni1CE1
</note>
  <outline>
    <contour>
      <point x="175" y="-194" type="curve" smooth="yes"/>
      <point x="279" y="-194"/>
      <point x="323" y="-130"/>
      <point x="323" y="7" type="curve" smooth="yes"/>
      <point x="323" y="195"/>
      <point x="265" y="364"/>
      <point x="265" y="591" type="curve" smooth="yes"/>
      <point x="265" y="698"/>
      <point x="300" y="728"/>
      <point x="344" y="728" type="curve" smooth="yes"/>
      <point x="381" y="728"/>
      <point x="402" y="708"/>
      <point x="426" y="670" type="curve"/>
      <point x="465" y="690" type="line"/>
      <point x="434" y="778"/>
      <point x="391" y="860"/>
      <point x="290" y="860" type="curve" smooth="yes"/>
      <point x="192" y="860"/>
      <point x="142" y="778"/>
      <point x="142" y="672" type="curve" smooth="yes"/>
      <point x="142" y="519"/>
      <point x="201" y="357"/>
      <point x="201" y="84" type="curve" smooth="yes"/>
      <point x="201" y="-19"/>
      <point x="167" y="-56"/>
      <point x="108" y="-56" type="curve" smooth="yes"/>
      <point x="73" y="-56"/>
      <point x="50" y="-46"/>
      <point x="19" y="-25" type="curve"/>
      <point x="0" y="-56" type="line"/>
      <point x="30" y="-144"/>
      <point x="88" y="-194"/>
    </contour>
  </outline>
</glyph>
<glyph name="uni1CED" format="2">
  <unicode hex="1CED"/>
  <note>
uni1CED
</note>
  <anchor x="-299" y="440" name="_vedic"/>
  <outline>
    <contour>
      <point x="-421" y="-121" type="line"/>
      <point x="-227" y="-334" type="line"/>
      <point x="-154" y="-274" type="line"/>
      <point x="-339" y="-54" type="line"/>
    </contour>
  </outline>
</glyph>
<glyph name="uni1CF2" format="2">
  <advance width="467"/>
  <unicode hex="1CF2"/>
  <note>
uni1CF2
</note>
  <anchor x="-227" y="0" name="vedic"/>
  <outline>
    <contour>
      <point x="236" y="291" type="curve" smooth="yes"/>
      <point x="354" y="291"/>
      <point x="414" y="376"/>
      <point x="428" y="498" type="curve"/>
      <point x="296" y="527" type="line"/>
      <point x="288" y="445"/>
      <point x="263" y="403"/>
      <point x="211" y="403" type="curve" smooth="yes"/>
      <point x="159" y="403"/>
      <point x="129" y="448"/>
      <point x="121" y="527" type="curve"/>
      <point x="39" y="509" type="line"/>
      <point x="53" y="382"/>
      <point x="115" y="291"/>
    </contour>
    <contour>
      <point x="171" y="29" type="line"/>
      <point x="179" y="112"/>
      <point x="205" y="153"/>
      <point x="258" y="153" type="curve" smooth="yes"/>
      <point x="308" y="153"/>
      <point x="338" y="108"/>
      <point x="346" y="29" type="curve"/>
      <point x="428" y="47" type="line"/>
      <point x="415" y="174"/>
      <point x="352" y="265"/>
      <point x="231" y="265" type="curve" smooth="yes"/>
      <point x="113" y="265"/>
      <point x="53" y="180"/>
      <point x="39" y="58" type="curve"/>
    </contour>
  </outline>
</glyph>
<glyph name="uni1CF5" format="2">
  <advance width="440"/>
  <unicode hex="1CF5"/>
  <outline>
    <contour>
      <point x="392" y="454" type="line"/>
      <point x="324" y="499" type="line"/>
      <point x="234" y="371" type="line"/>
      <point x="143" y="503" type="line"/>
      <point x="36" y="433" type="line"/>
      <point x="157" y="266" type="line"/>
      <point x="48" y="118" type="line"/>
      <point x="116" y="73" type="line"/>
      <point x="206" y="201" type="line"/>
      <point x="297" y="69" type="line"/>
      <point x="404" y="139" type="line"/>
      <point x="283" y="306" type="line"/>
    </contour>
  </outline>
</glyph>
<glyph name="uni1CF6" format="2">
  <advance width="575"/>
  <unicode hex="1CF6"/>
  <note>
uni1CF6
</note>
  <outline>
    <contour>
      <point x="225" y="118" type="curve" smooth="yes"/>
      <point x="300" y="118"/>
      <point x="351" y="173"/>
      <point x="351" y="289" type="curve" smooth="yes"/>
      <point x="351" y="401" type="line"/>
      <point x="237" y="436" type="line"/>
      <point x="237" y="303" type="line" smooth="yes"/>
      <point x="237" y="258"/>
      <point x="227" y="219"/>
      <point x="193" y="219" type="curve" smooth="yes"/>
      <point x="167" y="219"/>
      <point x="155" y="238"/>
      <point x="155" y="273" type="curve" smooth="yes"/>
      <point x="155" y="306"/>
      <point x="165" y="344"/>
      <point x="196" y="398" type="curve"/>
      <point x="78" y="473" type="line"/>
      <point x="55" y="436"/>
      <point x="38" y="394"/>
      <point x="38" y="352" type="curve" smooth="yes"/>
      <point x="38" y="243"/>
      <point x="127" y="118"/>
    </contour>
    <contour>
      <point x="425" y="119" type="curve" smooth="yes"/>
      <point x="492" y="119"/>
      <point x="537" y="177"/>
      <point x="537" y="266" type="curve" smooth="yes"/>
      <point x="537" y="338"/>
      <point x="511" y="401"/>
      <point x="458" y="469" type="curve"/>
      <point x="387" y="425" type="line"/>
      <point x="415" y="382"/>
      <point x="430" y="352"/>
      <point x="430" y="301" type="curve" smooth="yes"/>
      <point x="430" y="254"/>
      <point x="410" y="226"/>
      <point x="379" y="226" type="curve" smooth="yes"/>
      <point x="344" y="226"/>
      <point x="322" y="258"/>
      <point x="300" y="317" type="curve"/>
      <point x="260" y="295" type="line"/>
      <point x="282" y="183"/>
      <point x="344" y="119"/>
    </contour>
  </outline>
</glyph>
<glyph name="uni1CF7" format="2">
  <advance width="505"/>
  <unicode hex="1CF7"/>
  <note>
uni1CE1
</note>
  <outline>
    <contour>
      <point x="305" y="-194" type="line"/>
      <point x="316" y="-127"/>
      <point x="323" y="-69"/>
      <point x="323" y="23" type="curve" smooth="yes"/>
      <point x="323" y="244"/>
      <point x="245" y="376"/>
      <point x="245" y="599" type="curve" smooth="yes"/>
      <point x="245" y="698"/>
      <point x="282" y="728"/>
      <point x="337" y="728" type="curve" smooth="yes"/>
      <point x="386" y="728"/>
      <point x="402" y="706"/>
      <point x="426" y="670" type="curve"/>
      <point x="465" y="690" type="line"/>
      <point x="434" y="778"/>
      <point x="391" y="860"/>
      <point x="282" y="860" type="curve" smooth="yes"/>
      <point x="183" y="860"/>
      <point x="124" y="784"/>
      <point x="124" y="665" type="curve" smooth="yes"/>
      <point x="124" y="457"/>
      <point x="201" y="345"/>
      <point x="201" y="83" type="curve" smooth="yes"/>
      <point x="201" y="-31"/>
      <point x="189" y="-98"/>
      <point x="167" y="-175" type="curve"/>
    </contour>
  </outline>
</glyph>
<glyph name="quotedblright" format="2">
  <advance width="435"/>
  <unicode hex="201D"/>
  <outline>
    <contour>
      <point x="229" y="402" type="line"/>
      <point x="344" y="437"/>
      <point x="388" y="513"/>
      <point x="388" y="598" type="curve" smooth="yes"/>
      <point x="388" y="669"/>
      <point x="357" y="714"/>
      <point x="302" y="714" type="curve" smooth="yes"/>
      <point x="265" y="714"/>
      <point x="237" y="689"/>
      <point x="237" y="643" type="curve" smooth="yes"/>
      <point x="237" y="557"/>
      <point x="298" y="569"/>
      <point x="298" y="532" type="curve"/>
      <point x="298" y="493"/>
      <point x="273" y="477"/>
      <point x="229" y="456" type="curve"/>
    </contour>
    <contour>
      <point x="47" y="402" type="line"/>
      <point x="163" y="437"/>
      <point x="206" y="513"/>
      <point x="206" y="598" type="curve" smooth="yes"/>
      <point x="206" y="669"/>
      <point x="176" y="714"/>
      <point x="120" y="714" type="curve" smooth="yes"/>
      <point x="83" y="714"/>
      <point x="56" y="689"/>
      <point x="56" y="643" type="curve" smooth="yes"/>
      <point x="56" y="557"/>
      <point x="117" y="569"/>
      <point x="117" y="532" type="curve"/>
      <point x="117" y="493"/>
      <point x="92" y="477"/>
      <point x="47" y="456" type="curve"/>
    </contour>
  </outline>
</glyph>
<glyph name="ellipsis" format="2">
  <advance width="805"/>
  <unicode hex="2026"/>
  <outline>
    <contour>
      <point x="669" y="-8" type="curve" smooth="yes"/>
      <point x="711" y="-8"/>
      <point x="749" y="12"/>
      <point x="749" y="75" type="curve" smooth="yes"/>
      <point x="749" y="138"/>
      <point x="711" y="158"/>
      <point x="669" y="158" type="curve" smooth="yes"/>
      <point x="624" y="158"/>
      <point x="588" y="138"/>
      <point x="588" y="75" type="curve" smooth="yes"/>
      <point x="588" y="12"/>
      <point x="624" y="-8"/>
    </contour>
    <contour>
      <point x="137" y="-8" type="curve" smooth="yes"/>
      <point x="179" y="-8"/>
      <point x="216" y="12"/>
      <point x="216" y="75" type="curve" smooth="yes"/>
      <point x="216" y="138"/>
      <point x="179" y="158"/>
      <point x="137" y="158" type="curve" smooth="yes"/>
      <point x="91" y="158"/>
      <point x="56" y="138"/>
      <point x="56" y="75" type="curve" smooth="yes"/>
      <point x="56" y="12"/>
      <point x="91" y="-8"/>
    </contour>
    <contour>
      <point x="401" y="-8" type="curve" smooth="yes"/>
      <point x="443" y="-8"/>
      <point x="481" y="12"/>
      <point x="481" y="75" type="curve" smooth="yes"/>
      <point x="481" y="138"/>
      <point x="443" y="158"/>
      <point x="401" y="158" type="curve" smooth="yes"/>
      <point x="356" y="158"/>
      <point x="320" y="138"/>
      <point x="320" y="75" type="curve" smooth="yes"/>
      <point x="320" y="12"/>
      <point x="356" y="-8"/>
    </contour>
  </outline>
</glyph>
<glyph name="rupeeIndian" format="2">
  <advance width="466"/>
  <unicode hex="20B9"/>
  <outline>
    <contour>
      <point x="352" y="0" type="curve" smooth="yes"/>
      <point x="424" y="0" type="line"/>
      <point x="424" y="56" type="line"/>
      <point x="416" y="56" type="line" smooth="yes"/>
      <point x="389" y="56"/>
      <point x="355" y="86"/>
      <point x="317" y="141" type="curve" smooth="yes"/>
      <point x="194" y="325" type="line"/>
      <point x="263" y="333"/>
      <point x="328" y="385"/>
      <point x="344" y="475" type="curve"/>
      <point x="425" y="475" type="line"/>
      <point x="425" y="538" type="line"/>
      <point x="348" y="538" type="line"/>
      <point x="346" y="584"/>
      <point x="334" y="625"/>
      <point x="309" y="652" type="curve"/>
      <point x="425" y="652" type="line"/>
      <point x="425" y="714" type="line"/>
      <point x="26" y="714" type="line"/>
      <point x="26" y="652" type="line"/>
      <point x="53" y="652" type="line" smooth="yes"/>
      <point x="123" y="652"/>
      <point x="163" y="615"/>
      <point x="171" y="538" type="curve"/>
      <point x="29" y="538" type="line"/>
      <point x="29" y="475" type="line"/>
      <point x="169" y="475" type="line"/>
      <point x="159" y="399"/>
      <point x="120" y="360"/>
      <point x="49" y="360" type="curve" smooth="yes"/>
      <point x="26" y="360" type="line"/>
      <point x="26" y="307" type="line"/>
      <point x="159" y="99" type="line" smooth="yes"/>
      <point x="202" y="33"/>
      <point x="247" y="0"/>
    </contour>
  </outline>
</glyph>
<glyph name="dottedcircle" format="2">
  <advance width="598"/>
  <unicode hex="25CC"/>
  <anchor x="299" y="0" name="bottom"/>
  <anchor x="299" y="0" name="bottom.rakaar"/>
  <anchor x="299" y="0" name="bottom.rvocalic"/>
  <anchor x="299" y="0" name="bottom.virama"/>
  <anchor x="299" y="-120" name="nukta"/>
  <anchor x="365" y="592" name="top"/>
  <anchor x="299" y="592" name="topright"/>
  <outline>
    <contour>
      <point x="457" y="423" type="curve" smooth="yes"/>
      <point x="471" y="423"/>
      <point x="483" y="435"/>
      <point x="483" y="449" type="curve" smooth="yes"/>
      <point x="483" y="463"/>
      <point x="471" y="475"/>
      <point x="457" y="475" type="curve" smooth="yes"/>
      <point x="443" y="475"/>
      <point x="431" y="463"/>
      <point x="431" y="449" type="curve" smooth="yes"/>
      <point x="431" y="435"/>
      <point x="443" y="423"/>
    </contour>
    <contour>
      <point x="141" y="107" type="curve" smooth="yes"/>
      <point x="155" y="107"/>
      <point x="167" y="119"/>
      <point x="167" y="133" type="curve" smooth="yes"/>
      <point x="167" y="147"/>
      <point x="155" y="159"/>
      <point x="141" y="159" type="curve" smooth="yes"/>
      <point x="127" y="159"/>
      <point x="115" y="147"/>
      <point x="115" y="133" type="curve" smooth="yes"/>
      <point x="115" y="119"/>
      <point x="127" y="107"/>
    </contour>
    <contour>
      <point x="215" y="60" type="curve" smooth="yes"/>
      <point x="229" y="60"/>
      <point x="241" y="72"/>
      <point x="241" y="86" type="curve" smooth="yes"/>
      <point x="241" y="100"/>
      <point x="229" y="112"/>
      <point x="215" y="112" type="curve" smooth="yes"/>
      <point x="201" y="112"/>
      <point x="189" y="100"/>
      <point x="189" y="86" type="curve" smooth="yes"/>
      <point x="189" y="72"/>
      <point x="201" y="60"/>
    </contour>
    <contour>
      <point x="94" y="181" type="curve" smooth="yes"/>
      <point x="108" y="181"/>
      <point x="120" y="193"/>
      <point x="120" y="207" type="curve" smooth="yes"/>
      <point x="120" y="221"/>
      <point x="108" y="233"/>
      <point x="94" y="233" type="curve" smooth="yes"/>
      <point x="80" y="233"/>
      <point x="68" y="221"/>
      <point x="68" y="207" type="curve" smooth="yes"/>
      <point x="68" y="193"/>
      <point x="80" y="181"/>
    </contour>
    <contour>
      <point x="299" y="42" type="curve" smooth="yes"/>
      <point x="313" y="42"/>
      <point x="325" y="54"/>
      <point x="325" y="68" type="curve" smooth="yes"/>
      <point x="325" y="82"/>
      <point x="313" y="94"/>
      <point x="299" y="94" type="curve" smooth="yes"/>
      <point x="285" y="94"/>
      <point x="273" y="82"/>
      <point x="273" y="68" type="curve" smooth="yes"/>
      <point x="273" y="54"/>
      <point x="285" y="42"/>
    </contour>
    <contour>
      <point x="76" y="265" type="curve" smooth="yes"/>
      <point x="90" y="265"/>
      <point x="102" y="277"/>
      <point x="102" y="291" type="curve" smooth="yes"/>
      <point x="102" y="305"/>
      <point x="90" y="317"/>
      <point x="76" y="317" type="curve" smooth="yes"/>
      <point x="62" y="317"/>
      <point x="50" y="305"/>
      <point x="50" y="291" type="curve" smooth="yes"/>
      <point x="50" y="277"/>
      <point x="62" y="265"/>
    </contour>
    <contour>
      <point x="383" y="60" type="curve" smooth="yes"/>
      <point x="397" y="60"/>
      <point x="409" y="72"/>
      <point x="409" y="86" type="curve" smooth="yes"/>
      <point x="409" y="100"/>
      <point x="397" y="112"/>
      <point x="383" y="112" type="curve" smooth="yes"/>
      <point x="369" y="112"/>
      <point x="357" y="100"/>
      <point x="357" y="86" type="curve" smooth="yes"/>
      <point x="357" y="72"/>
      <point x="369" y="60"/>
    </contour>
    <contour>
      <point x="94" y="349" type="curve" smooth="yes"/>
      <point x="108" y="349"/>
      <point x="120" y="361"/>
      <point x="120" y="375" type="curve" smooth="yes"/>
      <point x="120" y="389"/>
      <point x="108" y="401"/>
      <point x="94" y="401" type="curve" smooth="yes"/>
      <point x="80" y="401"/>
      <point x="68" y="389"/>
      <point x="68" y="375" type="curve" smooth="yes"/>
      <point x="68" y="361"/>
      <point x="80" y="349"/>
    </contour>
    <contour>
      <point x="141" y="423" type="curve" smooth="yes"/>
      <point x="155" y="423"/>
      <point x="167" y="435"/>
      <point x="167" y="449" type="curve" smooth="yes"/>
      <point x="167" y="463"/>
      <point x="155" y="475"/>
      <point x="141" y="475" type="curve" smooth="yes"/>
      <point x="127" y="475"/>
      <point x="115" y="463"/>
      <point x="115" y="449" type="curve" smooth="yes"/>
      <point x="115" y="435"/>
      <point x="127" y="423"/>
    </contour>
    <contour>
      <point x="457" y="107" type="curve" smooth="yes"/>
      <point x="471" y="107"/>
      <point x="483" y="119"/>
      <point x="483" y="133" type="curve" smooth="yes"/>
      <point x="483" y="147"/>
      <point x="471" y="159"/>
      <point x="457" y="159" type="curve" smooth="yes"/>
      <point x="443" y="159"/>
      <point x="431" y="147"/>
      <point x="431" y="133" type="curve" smooth="yes"/>
      <point x="431" y="119"/>
      <point x="443" y="107"/>
    </contour>
    <contour>
      <point x="215" y="470" type="curve" smooth="yes"/>
      <point x="229" y="470"/>
      <point x="241" y="482"/>
      <point x="241" y="496" type="curve" smooth="yes"/>
      <point x="241" y="510"/>
      <point x="229" y="522"/>
      <point x="215" y="522" type="curve" smooth="yes"/>
      <point x="201" y="522"/>
      <point x="189" y="510"/>
      <point x="189" y="496" type="curve" smooth="yes"/>
      <point x="189" y="482"/>
      <point x="201" y="470"/>
    </contour>
    <contour>
      <point x="504" y="181" type="curve" smooth="yes"/>
      <point x="518" y="181"/>
      <point x="530" y="193"/>
      <point x="530" y="207" type="curve" smooth="yes"/>
      <point x="530" y="221"/>
      <point x="518" y="233"/>
      <point x="504" y="233" type="curve" smooth="yes"/>
      <point x="490" y="233"/>
      <point x="478" y="221"/>
      <point x="478" y="207" type="curve" smooth="yes"/>
      <point x="478" y="193"/>
      <point x="490" y="181"/>
    </contour>
    <contour>
      <point x="299" y="488" type="curve" smooth="yes"/>
      <point x="313" y="488"/>
      <point x="325" y="500"/>
      <point x="325" y="514" type="curve" smooth="yes"/>
      <point x="325" y="528"/>
      <point x="313" y="540"/>
      <point x="299" y="540" type="curve" smooth="yes"/>
      <point x="285" y="540"/>
      <point x="273" y="528"/>
      <point x="273" y="514" type="curve" smooth="yes"/>
      <point x="273" y="500"/>
      <point x="285" y="488"/>
    </contour>
    <contour>
      <point x="522" y="265" type="curve" smooth="yes"/>
      <point x="536" y="265"/>
      <point x="548" y="277"/>
      <point x="548" y="291" type="curve" smooth="yes"/>
      <point x="548" y="305"/>
      <point x="536" y="317"/>
      <point x="522" y="317" type="curve" smooth="yes"/>
      <point x="508" y="317"/>
      <point x="496" y="305"/>
      <point x="496" y="291" type="curve" smooth="yes"/>
      <point x="496" y="277"/>
      <point x="508" y="265"/>
    </contour>
    <contour>
      <point x="383" y="470" type="curve" smooth="yes"/>
      <point x="397" y="470"/>
      <point x="409" y="482"/>
      <point x="409" y="496" type="curve" smooth="yes"/>
      <point x="409" y="510"/>
      <point x="397" y="522"/>
      <point x="383" y="522" type="curve" smooth="yes"/>
      <point x="369" y="522"/>
      <point x="357" y="510"/>
      <point x="357" y="496" type="curve" smooth="yes"/>
      <point x="357" y="482"/>
      <point x="369" y="470"/>
    </contour>
    <contour>
      <point x="504" y="349" type="curve" smooth="yes"/>
      <point x="518" y="349"/>
      <point x="530" y="361"/>
      <point x="530" y="375" type="curve" smooth="yes"/>
      <point x="530" y="389"/>
      <point x="518" y="401"/>
      <point x="504" y="401" type="curve" smooth="yes"/>
      <point x="490" y="401"/>
      <point x="478" y="389"/>
      <point x="478" y="375" type="curve" smooth="yes"/>
      <point x="478" y="361"/>
      <point x="490" y="349"/>
    </contour>
  </outline>
</glyph>
<glyph name=".notdef" format="2">
  <advance width="600"/>
  <outline>
    <contour>
      <point x="94" y="0" type="line"/>
      <point x="505" y="0" type="line"/>
      <point x="505" y="714" type="line"/>
      <point x="94" y="714" type="line"/>
    </contour>
    <contour>
      <point x="145" y="51" type="line"/>
      <point x="145" y="663" type="line"/>
      <point x="454" y="663" type="line"/>
      <point x="454" y="51" type="line"/>
    </contour>
  </outline>
</glyph>
<glyph name="aiMatra-beng.init" format="2">
  <advance width="375"/>
  <outline>
    <contour>
      <point x="302" y="588" type="curve"/>
      <point x="369" y="588" type="line"/>
      <point x="367" y="737"/>
      <point x="317" y="824"/>
      <point x="219" y="824" type="curve" smooth="yes"/>
      <point x="172" y="824"/>
      <point x="141" y="816"/>
      <point x="93" y="816" type="curve" smooth="yes"/>
      <point x="39" y="816"/>
      <point x="15" y="842"/>
      <point x="15" y="897" type="curve" smooth="yes"/>
      <point x="15" y="910"/>
      <point x="16" y="926"/>
      <point x="18" y="938" type="curve"/>
      <point x="-40" y="945" type="line"/>
      <point x="-46" y="919"/>
      <point x="-50" y="888"/>
      <point x="-50" y="859" type="curve" smooth="yes"/>
      <point x="-50" y="756"/>
      <point x="-11" y="682"/>
      <point x="93" y="682" type="curve" smooth="yes"/>
      <point x="153" y="682"/>
      <point x="186" y="692"/>
      <point x="224" y="692" type="curve" smooth="yes"/>
      <point x="259" y="692"/>
      <point x="300" y="682"/>
    </contour>
    <component base="eMatra-beng.init"/>
  </outline>
</glyph>
<glyph name="assacross" format="2">
  <advance width="471"/>
  <anchor x="244" y="17" name="_nukta"/>
  <outline>
    <contour>
      <point x="381" y="175" type="curve"/>
      <point x="399" y="209" type="line"/>
      <point x="372" y="269"/>
      <point x="314" y="310"/>
      <point x="264" y="341" type="curve"/>
      <point x="221" y="302" type="line"/>
      <point x="279" y="279"/>
      <point x="336" y="241"/>
    </contour>
  </outline>
</glyph>
<glyph name="auLength-beng.fina" format="2">
  <advance width="192"/>
  <anchor x="332" y="599" name="top"/>
  <anchor x="0" y="586" name="topright"/>
  <outline>
    <contour>
      <point x="146" y="-43" type="line"/>
      <point x="157" y="-40" type="line"/>
      <point x="157" y="575" type="line" smooth="yes"/>
      <point x="157" y="747"/>
      <point x="60" y="834"/>
      <point x="-43" y="834" type="curve" smooth="yes"/>
      <point x="-116" y="834"/>
      <point x="-171" y="816"/>
      <point x="-244" y="816" type="curve" smooth="yes"/>
      <point x="-311" y="816"/>
      <point x="-352" y="832"/>
      <point x="-352" y="897" type="curve" smooth="yes"/>
      <point x="-352" y="911"/>
      <point x="-351" y="927"/>
      <point x="-349" y="939" type="curve"/>
      <point x="-406" y="945" type="line"/>
      <point x="-411" y="921"/>
      <point x="-414" y="890"/>
      <point x="-414" y="857" type="curve" smooth="yes"/>
      <point x="-414" y="735"/>
      <point x="-334" y="681"/>
      <point x="-234" y="681" type="curve" smooth="yes"/>
      <point x="-146" y="681"/>
      <point x="-100" y="706"/>
      <point x="-22" y="706" type="curve" smooth="yes"/>
      <point x="40" y="706"/>
      <point x="55" y="669"/>
      <point x="55" y="635" type="curve" smooth="yes"/>
      <point x="55" y="623"/>
      <point x="54" y="610"/>
      <point x="51" y="596" type="curve"/>
      <point x="85" y="622" type="line"/>
      <point x="-35" y="622" type="line"/>
      <point x="11" y="536" type="line"/>
      <point x="46" y="536" type="line"/>
      <point x="46" y="-1" type="line"/>
    </contour>
  </outline>
</glyph>
<glyph name="b_bha-beng" format="2">
  <advance width="599"/>
  <anchor x="409" y="-245" name="bottom"/>
  <anchor x="544" y="-232" name="bottom.rakaar"/>
  <anchor x="461" y="-261" name="bottom.rvocalic"/>
  <anchor x="430" y="-232" name="bottom.virama"/>
  <anchor x="472" y="592" name="top"/>
  <anchor x="472" y="572" name="topright"/>
  <outline>
    <contour>
      <point x="381" y="-248" type="curve" smooth="yes"/>
      <point x="505" y="-248"/>
      <point x="584" y="-171"/>
      <point x="584" y="-26" type="curve" smooth="yes"/>
      <point x="584" y="72"/>
      <point x="546" y="132"/>
      <point x="494" y="179" type="curve"/>
      <point x="469" y="129"/>
      <point x="420" y="78"/>
      <point x="348" y="75" type="curve"/>
      <point x="373" y="40" type="line"/>
      <point x="386" y="55"/>
      <point x="397" y="75"/>
      <point x="397" y="103" type="curve" smooth="yes"/>
      <point x="397" y="150"/>
      <point x="362" y="181"/>
      <point x="316" y="181" type="curve" smooth="yes"/>
      <point x="267" y="181"/>
      <point x="228" y="145"/>
      <point x="228" y="86" type="curve" smooth="yes"/>
      <point x="228" y="7"/>
      <point x="287" y="-39"/>
      <point x="361" y="-39" type="curve" smooth="yes"/>
      <point x="428" y="-39"/>
      <point x="495" y="-10"/>
      <point x="543" y="62" type="curve"/>
      <point x="508" y="68" type="line"/>
      <point x="517" y="53"/>
      <point x="522" y="32"/>
      <point x="522" y="9" type="curve" smooth="yes"/>
      <point x="522" y="-57"/>
      <point x="467" y="-92"/>
      <point x="383" y="-92" type="curve" smooth="yes"/>
      <point x="167" y="-92"/>
      <point x="140" y="136"/>
      <point x="97" y="419" type="curve"/>
      <point x="27" y="410" type="line"/>
      <point x="66" y="86"/>
      <point x="119" y="-248"/>
    </contour>
    <contour>
      <point x="415" y="194" type="line"/>
      <point x="434" y="214" type="line"/>
      <point x="395" y="293"/>
      <point x="313" y="327"/>
      <point x="228" y="351" type="curve"/>
      <point x="249" y="282" type="line"/>
      <point x="276" y="317"/>
      <point x="381" y="363"/>
      <point x="430" y="381" type="curve"/>
      <point x="415" y="425" type="line"/>
    </contour>
    <contour>
      <point x="458" y="110" type="curve"/>
      <point x="512" y="144" type="line"/>
      <point x="512" y="536" type="line"/>
      <point x="634" y="536" type="line"/>
      <point x="590" y="622" type="line"/>
      <point x="-35" y="622" type="line"/>
      <point x="8" y="536" type="line"/>
      <point x="415" y="536" type="line"/>
      <point x="415" y="502" type="line"/>
      <point x="425" y="529" type="line"/>
      <point x="337" y="503"/>
      <point x="213" y="452"/>
      <point x="139" y="407" type="curve"/>
      <point x="198" y="248" type="line"/>
      <point x="276" y="236"/>
      <point x="402" y="199"/>
    </contour>
  </outline>
</glyph>
<glyph name="b_d_ra-beng" format="2">
  <advance width="722"/>
  <anchor x="674" y="-93" name="bottom"/>
  <anchor x="679" y="-162" name="bottom.rvocalic"/>
  <anchor x="662" y="-125" name="bottom.virama"/>
  <anchor x="532" y="592" name="top"/>
  <anchor x="541" y="572" name="topright"/>
  <outline>
    <contour>
      <point x="668" y="-176" type="line"/>
      <point x="679" y="-173" type="line"/>
      <point x="648" y="-63"/>
      <point x="640" y="27"/>
      <point x="640" y="116" type="curve" smooth="yes"/>
      <point x="640" y="213"/>
      <point x="667" y="308"/>
      <point x="706" y="383" type="curve"/>
      <point x="576" y="492" type="line"/>
      <point x="498" y="442"/>
      <point x="413" y="366"/>
      <point x="360" y="297" type="curve"/>
      <point x="382" y="246" type="line"/>
      <point x="382" y="536" type="line"/>
      <point x="757" y="536" type="line"/>
      <point x="712" y="622" type="line"/>
      <point x="-35" y="622" type="line"/>
      <point x="11" y="536" type="line"/>
      <point x="271" y="536" type="line"/>
      <point x="271" y="240" type="line"/>
      <point x="295" y="250" type="line"/>
      <point x="260" y="292"/>
      <point x="209" y="321"/>
      <point x="151" y="338" type="curve"/>
      <point x="161" y="314" type="line"/>
      <point x="197" y="343"/>
      <point x="250" y="374"/>
      <point x="296" y="390" type="curve"/>
      <point x="293" y="530" type="line"/>
      <point x="199" y="495"/>
      <point x="96" y="440"/>
      <point x="26" y="390" type="curve"/>
      <point x="94" y="250" type="line"/>
      <point x="233" y="231"/>
      <point x="294" y="173"/>
      <point x="369" y="105" type="curve"/>
      <point x="382" y="105" type="line"/>
      <point x="458" y="199"/>
      <point x="539" y="286"/>
      <point x="624" y="351" type="curve"/>
      <point x="586" y="386" type="line"/>
      <point x="556" y="314"/>
      <point x="542" y="262"/>
      <point x="542" y="173" type="curve" smooth="yes"/>
      <point x="542" y="103"/>
      <point x="554" y="28"/>
      <point x="589" y="-59" type="curve"/>
      <point x="601" y="-68" type="line"/>
      <point x="552" y="19"/>
      <point x="495" y="48"/>
      <point x="432" y="48" type="curve" smooth="yes"/>
      <point x="375" y="48"/>
      <point x="320" y="30"/>
      <point x="255" y="30" type="curve" smooth="yes"/>
      <point x="184" y="30"/>
      <point x="144" y="56"/>
      <point x="144" y="125" type="curve" smooth="yes"/>
      <point x="144" y="148"/>
      <point x="147" y="172"/>
      <point x="153" y="199" type="curve"/>
      <point x="93" y="211" type="line"/>
      <point x="80" y="164"/>
      <point x="74" y="122"/>
      <point x="74" y="80" type="curve" smooth="yes"/>
      <point x="74" y="-37"/>
      <point x="137" y="-110"/>
      <point x="248" y="-110" type="curve" smooth="yes"/>
      <point x="338" y="-110"/>
      <point x="409" y="-81"/>
      <point x="473" y="-81" type="curve" smooth="yes"/>
      <point x="533" y="-81"/>
      <point x="571" y="-103"/>
      <point x="606" y="-143" type="curve"/>
    </contour>
  </outline>
</glyph>
<glyph name="b_da-beng" format="2">
  <advance width="715"/>
  <anchor x="648" y="48" name="bottom"/>
  <anchor x="659" y="50" name="bottom.rakaar"/>
  <anchor x="661" y="-61" name="bottom.rvocalic"/>
  <anchor x="646" y="-45" name="bottom.virama"/>
  <anchor x="338" y="592" name="top"/>
  <anchor x="499" y="592" name="topleft"/>
  <anchor x="338" y="572" name="topright"/>
  <outline>
    <contour>
      <point x="604" y="-95" type="curve"/>
      <point x="661" y="-72" type="line"/>
      <point x="638" y="9"/>
      <point x="633" y="52"/>
      <point x="633" y="116" type="curve" smooth="yes"/>
      <point x="633" y="213"/>
      <point x="660" y="308"/>
      <point x="699" y="383" type="curve"/>
      <point x="569" y="492" type="line"/>
      <point x="491" y="442"/>
      <point x="406" y="366"/>
      <point x="353" y="297" type="curve"/>
      <point x="375" y="246" type="line"/>
      <point x="375" y="536" type="line"/>
      <point x="750" y="536" type="line"/>
      <point x="705" y="622" type="line"/>
      <point x="-35" y="622" type="line"/>
      <point x="11" y="536" type="line"/>
      <point x="264" y="536" type="line"/>
      <point x="264" y="240" type="line"/>
      <point x="288" y="250" type="line"/>
      <point x="253" y="292"/>
      <point x="202" y="321"/>
      <point x="144" y="338" type="curve"/>
      <point x="154" y="314" type="line"/>
      <point x="190" y="343"/>
      <point x="243" y="374"/>
      <point x="289" y="390" type="curve"/>
      <point x="286" y="530" type="line"/>
      <point x="192" y="495"/>
      <point x="89" y="440"/>
      <point x="19" y="390" type="curve"/>
      <point x="87" y="250" type="line"/>
      <point x="226" y="231"/>
      <point x="287" y="173"/>
      <point x="362" y="105" type="curve"/>
      <point x="375" y="105" type="line"/>
      <point x="451" y="199"/>
      <point x="532" y="286"/>
      <point x="617" y="351" type="curve"/>
      <point x="579" y="386" type="line"/>
      <point x="549" y="314"/>
      <point x="537" y="258"/>
      <point x="537" y="169" type="curve" smooth="yes"/>
      <point x="537" y="57"/>
      <point x="570" y="-28"/>
    </contour>
  </outline>
</glyph>
<glyph name="b_dha-beng" format="2">
  <advance width="595"/>
  <anchor x="418" y="-117" name="bottom"/>
  <anchor x="423" y="-55" name="bottom.rakaar"/>
  <anchor x="422" y="-148" name="bottom.rvocalic"/>
  <anchor x="402" y="-135" name="bottom.virama"/>
  <anchor x="384" y="591" name="top"/>
  <anchor x="386" y="572" name="topright"/>
  <outline>
    <contour>
      <point x="411" y="-185" type="line"/>
      <point x="422" y="-182" type="line"/>
      <point x="422" y="536" type="line"/>
      <point x="630" y="536" type="line"/>
      <point x="586" y="622" type="line"/>
      <point x="-35" y="622" type="line"/>
      <point x="9" y="536" type="line"/>
      <point x="315" y="536" type="line"/>
      <point x="315" y="456" type="line"/>
      <point x="328" y="519" type="line"/>
      <point x="214" y="492"/>
      <point x="90" y="429"/>
      <point x="6" y="369" type="curve"/>
      <point x="67" y="218" type="line"/>
      <point x="125" y="211"/>
      <point x="187" y="192"/>
      <point x="218" y="160" type="curve"/>
      <point x="271" y="201" type="line"/>
      <point x="226" y="263"/>
      <point x="173" y="295"/>
      <point x="102" y="310" type="curve"/>
      <point x="126" y="245" type="line"/>
      <point x="166" y="284"/>
      <point x="266" y="338"/>
      <point x="335" y="359" type="curve"/>
      <point x="315" y="405" type="line"/>
      <point x="315" y="-75" type="line"/>
      <point x="333" y="-56" type="line"/>
      <point x="297" y="14"/>
      <point x="241" y="74"/>
      <point x="149" y="89" type="curve"/>
      <point x="172" y="31" type="line"/>
      <point x="279" y="104"/>
      <point x="373" y="153"/>
      <point x="486" y="192" type="curve"/>
      <point x="469" y="230" type="line"/>
      <point x="469" y="-62" type="line"/>
      <point x="575" y="-129" type="line"/>
      <point x="576" y="252" type="line"/>
      <point x="488" y="328" type="line"/>
      <point x="357" y="290"/>
      <point x="195" y="209"/>
      <point x="66" y="123" type="curve"/>
      <point x="134" y="-16" type="line"/>
      <point x="217" y="-25"/>
      <point x="285" y="-72"/>
      <point x="336" y="-139" type="curve"/>
    </contour>
  </outline>
</glyph>
<glyph name="b_ja-beng" format="2">
  <advance width="871"/>
  <anchor x="792" y="-2" name="bottom"/>
  <anchor x="803" y="0" name="bottom.rakaar"/>
  <anchor x="805" y="-111" name="bottom.rvocalic"/>
  <anchor x="790" y="-95" name="bottom.virama"/>
  <anchor x="414" y="592" name="top"/>
  <anchor x="642" y="584" name="topleft"/>
  <anchor x="414" y="572" name="topright"/>
  <outline>
    <contour>
      <point x="447" y="-127" type="curve" smooth="yes"/>
      <point x="579" y="-127"/>
      <point x="655" y="-38"/>
      <point x="655" y="112" type="curve" smooth="yes"/>
      <point x="655" y="214"/>
      <point x="618" y="287"/>
      <point x="564" y="334" type="curve"/>
      <point x="532" y="267"/>
      <point x="507" y="247"/>
      <point x="482" y="247" type="curve" smooth="yes"/>
      <point x="469" y="247"/>
      <point x="454" y="256"/>
      <point x="454" y="284" type="curve" smooth="yes"/>
      <point x="454" y="536" type="line"/>
      <point x="906" y="536" type="line"/>
      <point x="861" y="622" type="line"/>
      <point x="-35" y="622" type="line"/>
      <point x="10" y="536" type="line"/>
      <point x="349" y="536" type="line"/>
      <point x="349" y="235" type="line"/>
      <point x="371" y="221" type="line"/>
      <point x="342" y="291"/>
      <point x="281" y="339"/>
      <point x="195" y="351" type="curve"/>
      <point x="215" y="297" type="line"/>
      <point x="249" y="337"/>
      <point x="327" y="376"/>
      <point x="370" y="387" type="curve"/>
      <point x="365" y="522" type="line"/>
      <point x="285" y="497"/>
      <point x="204" y="458"/>
      <point x="123" y="403" type="curve"/>
      <point x="187" y="255" type="line"/>
      <point x="279" y="246"/>
      <point x="321" y="208"/>
      <point x="360" y="165" type="curve" smooth="yes"/>
      <point x="391" y="131"/>
      <point x="427" y="100"/>
      <point x="474" y="100" type="curve" smooth="yes"/>
      <point x="529" y="100"/>
      <point x="576" y="145"/>
      <point x="616" y="214" type="curve"/>
      <point x="552" y="212" type="line"/>
      <point x="569" y="186"/>
      <point x="581" y="163"/>
      <point x="581" y="127" type="curve" smooth="yes"/>
      <point x="581" y="64"/>
      <point x="535" y="27"/>
      <point x="448" y="27" type="curve" smooth="yes"/>
      <point x="297" y="27"/>
      <point x="170" y="129"/>
      <point x="75" y="480" type="curve"/>
      <point x="5" y="463" type="line"/>
      <point x="102" y="48"/>
      <point x="246" y="-127"/>
    </contour>
    <contour>
      <point x="748" y="-145" type="curve"/>
      <point x="805" y="-122" type="line"/>
      <point x="786" y="-55"/>
      <point x="776" y="7"/>
      <point x="776" y="67" type="curve" smooth="yes"/>
      <point x="776" y="179"/>
      <point x="805" y="274"/>
      <point x="862" y="368" type="curve"/>
      <point x="762" y="488" type="line"/>
      <point x="712" y="465"/>
      <point x="656" y="460"/>
      <point x="614" y="460" type="curve" smooth="yes"/>
      <point x="545" y="460"/>
      <point x="485" y="484"/>
      <point x="447" y="521" type="curve"/>
      <point x="425" y="465" type="line"/>
      <point x="471" y="387"/>
      <point x="572" y="336"/>
      <point x="660" y="336" type="curve" smooth="yes"/>
      <point x="700" y="336"/>
      <point x="730" y="344"/>
      <point x="754" y="354" type="curve"/>
      <point x="734" y="390" type="line"/>
      <point x="694" y="302"/>
      <point x="678" y="216"/>
      <point x="678" y="133" type="curve" smooth="yes"/>
      <point x="678" y="37"/>
      <point x="700" y="-57"/>
    </contour>
  </outline>
</glyph>
<glyph name="b_la-beng" format="2">
  <advance width="488"/>
  <anchor x="440" y="-86" name="bottom"/>
  <anchor x="442" y="-53" name="bottom.rakaar"/>
  <anchor x="442" y="-144" name="bottom.rvocalic"/>
  <anchor x="425" y="-133" name="bottom.virama"/>
  <anchor x="401" y="592" name="top"/>
  <anchor x="402" y="572" name="topright"/>
  <outline>
    <contour>
      <point x="431" y="-173" type="line"/>
      <point x="442" y="-170" type="line"/>
      <point x="442" y="536" type="line"/>
      <point x="523" y="536" type="line"/>
      <point x="477" y="622" type="line"/>
      <point x="-35" y="622" type="line"/>
      <point x="8" y="536" type="line"/>
      <point x="331" y="536" type="line"/>
      <point x="331" y="446" type="line"/>
      <point x="343" y="513" type="line"/>
      <point x="241" y="481"/>
      <point x="104" y="409"/>
      <point x="32" y="356" type="curve"/>
      <point x="107" y="197" type="line"/>
      <point x="193" y="184"/>
      <point x="287" y="144"/>
      <point x="334" y="73" type="curve"/>
      <point x="343" y="-14" type="line"/>
      <point x="352" y="-12" type="line"/>
      <point x="332" y="47"/>
      <point x="300" y="105"/>
      <point x="255" y="105" type="curve" smooth="yes"/>
      <point x="224" y="105"/>
      <point x="204" y="77"/>
      <point x="205" y="30" type="curve"/>
      <point x="212" y="30" type="line"/>
      <point x="204" y="83"/>
      <point x="173" y="125"/>
      <point x="122" y="125" type="curve" smooth="yes"/>
      <point x="67" y="125"/>
      <point x="36" y="77"/>
      <point x="36" y="3" type="curve" smooth="yes"/>
      <point x="36" y="-99"/>
      <point x="89" y="-153"/>
      <point x="151" y="-153" type="curve" smooth="yes"/>
      <point x="194" y="-153"/>
      <point x="217" y="-126"/>
      <point x="217" y="-88" type="curve" smooth="yes"/>
      <point x="217" y="-49"/>
      <point x="197" y="-27"/>
      <point x="167" y="-27" type="curve" smooth="yes"/>
      <point x="141" y="-27"/>
      <point x="122" y="-46"/>
      <point x="122" y="-76" type="curve" smooth="yes"/>
      <point x="122" y="-90"/>
      <point x="126" y="-105"/>
      <point x="138" y="-113" type="curve"/>
      <point x="158" y="-93" type="line"/>
      <point x="154" y="-95"/>
      <point x="146" y="-98"/>
      <point x="141" y="-98" type="curve" smooth="yes"/>
      <point x="118" y="-98"/>
      <point x="108" y="-77"/>
      <point x="108" y="-51" type="curve" smooth="yes"/>
      <point x="108" y="-12"/>
      <point x="128" y="11"/>
      <point x="158" y="11" type="curve" smooth="yes"/>
      <point x="200" y="11"/>
      <point x="221" y="-23"/>
      <point x="233" y="-65" type="curve"/>
      <point x="261" y="-68" type="line"/>
      <point x="258" y="-29"/>
      <point x="266" y="-5"/>
      <point x="286" y="-5" type="curve" smooth="yes"/>
      <point x="319" y="-5"/>
      <point x="342" y="-59"/>
      <point x="363" y="-123" type="curve"/>
    </contour>
    <contour>
      <point x="331" y="104" type="line"/>
      <point x="352" y="143" type="line"/>
      <point x="317" y="228"/>
      <point x="246" y="283"/>
      <point x="169" y="299" type="curve"/>
      <point x="182" y="250" type="line"/>
      <point x="219" y="287"/>
      <point x="298" y="329"/>
      <point x="350" y="344" type="curve"/>
      <point x="331" y="396" type="line"/>
    </contour>
  </outline>
</glyph>
<glyph name="b_ra-beng" format="2">
  <advance width="582"/>
  <anchor x="539" y="-86" name="bottom"/>
  <anchor x="536" y="-104" name="bottom.rvocalic"/>
  <anchor x="535" y="-94" name="bottom.virama"/>
  <anchor x="495" y="592" name="top"/>
  <anchor x="496" y="572" name="topright"/>
  <outline>
    <contour>
      <point x="525" y="-133" type="line"/>
      <point x="536" y="-130" type="line"/>
      <point x="536" y="536" type="line"/>
      <point x="617" y="536" type="line"/>
      <point x="571" y="622" type="line"/>
      <point x="-35" y="622" type="line"/>
      <point x="10" y="536" type="line"/>
      <point x="425" y="536" type="line"/>
      <point x="425" y="447" type="line"/>
      <point x="438" y="514" type="line"/>
      <point x="322" y="480"/>
      <point x="186" y="414"/>
      <point x="103" y="359" type="curve"/>
      <point x="178" y="193" type="line"/>
      <point x="281" y="173"/>
      <point x="393" y="131"/>
      <point x="460" y="42" type="curve"/>
      <point x="461" y="108" type="line"/>
      <point x="427" y="201"/>
      <point x="343" y="262"/>
      <point x="278" y="290" type="curve"/>
      <point x="280" y="268" type="line"/>
      <point x="328" y="299"/>
      <point x="397" y="329"/>
      <point x="446" y="345" type="curve"/>
      <point x="425" y="401" type="line"/>
      <point x="425" y="97" type="line"/>
      <point x="439" y="7" type="line"/>
      <point x="403" y="78"/>
      <point x="353" y="94"/>
      <point x="302" y="94" type="curve" smooth="yes"/>
      <point x="270" y="94"/>
      <point x="239" y="90"/>
      <point x="199" y="90" type="curve" smooth="yes"/>
      <point x="134" y="90"/>
      <point x="97" y="126"/>
      <point x="97" y="205" type="curve" smooth="yes"/>
      <point x="97" y="232"/>
      <point x="101" y="263"/>
      <point x="109" y="292" type="curve"/>
      <point x="49" y="301" type="line"/>
      <point x="37" y="255"/>
      <point x="29" y="203"/>
      <point x="29" y="152" type="curve" smooth="yes"/>
      <point x="29" y="0"/>
      <point x="115" y="-54"/>
      <point x="201" y="-54" type="curve" smooth="yes"/>
      <point x="272" y="-54"/>
      <point x="299" y="-41"/>
      <point x="352" y="-41" type="curve" smooth="yes"/>
      <point x="394" y="-41"/>
      <point x="428" y="-54"/>
      <point x="457" y="-98" type="curve"/>
    </contour>
  </outline>
</glyph>
<glyph name="b_ra_uMatra-beng" format="2">
  <advance width="811"/>
  <anchor x="539" y="-86" name="bottom"/>
  <anchor x="536" y="-104" name="bottom.rvocalic"/>
  <anchor x="535" y="-94" name="bottom.virama"/>
  <anchor x="495" y="592" name="top"/>
  <anchor x="496" y="572" name="topright"/>
  <outline>
    <contour>
      <point x="525" y="-133" type="line"/>
      <point x="536" y="-130" type="line"/>
      <point x="536" y="536" type="line"/>
      <point x="846" y="536" type="line"/>
      <point x="800" y="622" type="line"/>
      <point x="-35" y="622" type="line"/>
      <point x="10" y="536" type="line"/>
      <point x="425" y="536" type="line"/>
      <point x="425" y="447" type="line"/>
      <point x="438" y="514" type="line"/>
      <point x="322" y="480"/>
      <point x="186" y="414"/>
      <point x="103" y="359" type="curve"/>
      <point x="178" y="193" type="line"/>
      <point x="281" y="173"/>
      <point x="393" y="131"/>
      <point x="460" y="42" type="curve"/>
      <point x="461" y="108" type="line"/>
      <point x="427" y="201"/>
      <point x="343" y="262"/>
      <point x="278" y="290" type="curve"/>
      <point x="280" y="268" type="line"/>
      <point x="328" y="299"/>
      <point x="397" y="329"/>
      <point x="446" y="345" type="curve"/>
      <point x="425" y="401" type="line"/>
      <point x="425" y="97" type="line"/>
      <point x="439" y="7" type="line"/>
      <point x="403" y="78"/>
      <point x="353" y="94"/>
      <point x="302" y="94" type="curve" smooth="yes"/>
      <point x="270" y="94"/>
      <point x="239" y="90"/>
      <point x="199" y="90" type="curve" smooth="yes"/>
      <point x="134" y="90"/>
      <point x="97" y="126"/>
      <point x="97" y="205" type="curve" smooth="yes"/>
      <point x="97" y="232"/>
      <point x="101" y="263"/>
      <point x="109" y="292" type="curve"/>
      <point x="49" y="301" type="line"/>
      <point x="37" y="255"/>
      <point x="29" y="203"/>
      <point x="29" y="152" type="curve" smooth="yes"/>
      <point x="29" y="0"/>
      <point x="115" y="-54"/>
      <point x="201" y="-54" type="curve" smooth="yes"/>
      <point x="272" y="-54"/>
      <point x="299" y="-41"/>
      <point x="352" y="-41" type="curve" smooth="yes"/>
      <point x="394" y="-41"/>
      <point x="428" y="-54"/>
      <point x="457" y="-98" type="curve"/>
    </contour>
    <contour>
      <point x="681" y="119" type="curve" smooth="yes"/>
      <point x="755" y="119"/>
      <point x="798" y="183"/>
      <point x="798" y="286" type="curve" smooth="yes"/>
      <point x="798" y="409"/>
      <point x="718" y="471"/>
      <point x="655" y="471" type="curve" smooth="yes"/>
      <point x="597" y="471"/>
      <point x="568" y="434"/>
      <point x="568" y="380" type="curve" smooth="yes"/>
      <point x="568" y="333"/>
      <point x="597" y="295"/>
      <point x="646" y="295" type="curve" smooth="yes"/>
      <point x="700" y="295"/>
      <point x="715" y="336"/>
      <point x="715" y="378" type="curve" smooth="yes"/>
      <point x="715" y="398"/>
      <point x="710" y="412"/>
      <point x="707" y="422" type="curve"/>
      <point x="671" y="384" type="line"/>
      <point x="717" y="383"/>
      <point x="732" y="356"/>
      <point x="732" y="311" type="curve" smooth="yes"/>
      <point x="732" y="275"/>
      <point x="718" y="239"/>
      <point x="665" y="239" type="curve" smooth="yes"/>
      <point x="591" y="239"/>
      <point x="536" y="297"/>
      <point x="536" y="382" type="curve"/>
      <point x="513" y="284" type="line"/>
      <point x="543" y="177"/>
      <point x="609" y="119"/>
    </contour>
  </outline>
</glyph>
<glyph name="ba-beng.blwf" format="2">
  <anchor x="0" y="0" name="_bottom.rakaar"/>
  <anchor x="0" y="-194" name="bottom"/>
  <anchor x="0" y="-183" name="bottom.rvocalic"/>
  <outline>
    <contour>
      <point x="-11" y="-226" type="line"/>
      <point x="0" y="-223" type="line"/>
      <point x="0" y="74" type="line"/>
      <point x="-80" y="115" type="line"/>
      <point x="-128" y="98"/>
      <point x="-235" y="38"/>
      <point x="-281" y="-4" type="curve"/>
      <point x="-224" y="-107" type="line"/>
      <point x="-172" y="-109"/>
      <point x="-114" y="-125"/>
      <point x="-66" y="-191" type="curve"/>
    </contour>
    <contour>
      <point x="-83" y="-135" type="line"/>
      <point x="-75" y="-130" type="line"/>
      <point x="-94" y="-61"/>
      <point x="-153" y="-34"/>
      <point x="-201" y="-20" type="curve"/>
      <point x="-186" y="-62" type="line"/>
      <point x="-156" y="-39"/>
      <point x="-100" y="-7"/>
      <point x="-72" y="5" type="curve"/>
      <point x="-83" y="30" type="line"/>
    </contour>
  </outline>
</glyph>
<glyph name="bh-beng" format="2">
  <advance width="590"/>
  <anchor x="434" y="-18" name="bottom"/>
  <anchor x="529" y="-3" name="bottom.rakaar"/>
  <anchor x="461" y="-20" name="bottom.rvocalic"/>
  <anchor x="401" y="-3" name="bottom.virama"/>
  <anchor x="351" y="592" name="top"/>
  <anchor x="352" y="572" name="topright"/>
  <outline>
    <contour>
      <point x="354" y="-19" type="curve" smooth="yes"/>
      <point x="477" y="-19"/>
      <point x="580" y="58"/>
      <point x="580" y="248" type="curve" smooth="yes"/>
      <point x="580" y="377"/>
      <point x="523" y="453"/>
      <point x="473" y="495" type="curve"/>
      <point x="429" y="401"/>
      <point x="371" y="350"/>
      <point x="305" y="345" type="curve"/>
      <point x="330" y="317" type="line"/>
      <point x="349" y="336"/>
      <point x="362" y="361"/>
      <point x="362" y="392" type="curve" smooth="yes"/>
      <point x="362" y="451"/>
      <point x="323" y="486"/>
      <point x="268" y="486" type="curve" smooth="yes"/>
      <point x="207" y="486"/>
      <point x="168" y="436"/>
      <point x="168" y="372" type="curve" smooth="yes"/>
      <point x="168" y="288"/>
      <point x="230" y="217"/>
      <point x="326" y="217" type="curve" smooth="yes"/>
      <point x="399" y="217"/>
      <point x="476" y="258"/>
      <point x="528" y="343" type="curve"/>
      <point x="482" y="340" type="line"/>
      <point x="496" y="324"/>
      <point x="505" y="299"/>
      <point x="505" y="267" type="curve" smooth="yes"/>
      <point x="505" y="182"/>
      <point x="444" y="133"/>
      <point x="348" y="133" type="curve" smooth="yes"/>
      <point x="217" y="133"/>
      <point x="136" y="218"/>
      <point x="74" y="484" type="curve"/>
      <point x="6" y="468" type="line"/>
      <point x="72" y="130"/>
      <point x="152" y="-19"/>
    </contour>
    <contour>
      <point x="10" y="536" type="line"/>
      <point x="625" y="536" type="line"/>
      <point x="578" y="622" type="line"/>
      <point x="-35" y="622" type="line"/>
    </contour>
    <contour>
      <point x="557" y="-303" type="curve"/>
      <point x="601" y="-255" type="line"/>
      <point x="514" y="-139"/>
      <point x="418" y="-90"/>
      <point x="323" y="-62" type="curve"/>
      <point x="284" y="-179" type="line"/>
      <point x="382" y="-200"/>
      <point x="465" y="-226"/>
    </contour>
  </outline>
</glyph>
<glyph name="bh-beng.nukt" format="2">
  <advance width="590"/>
  <anchor x="460" y="-28" name="bottom"/>
  <anchor x="529" y="-3" name="bottom.rakaar"/>
  <anchor x="461" y="-20" name="bottom.rvocalic"/>
  <anchor x="336" y="-156" name="bottom.virama"/>
  <anchor x="490" y="536" name="top"/>
  <anchor x="490" y="536" name="topright"/>
  <outline>
    <contour>
      <point x="354" y="-19" type="curve" smooth="yes"/>
      <point x="477" y="-19"/>
      <point x="580" y="58"/>
      <point x="580" y="248" type="curve" smooth="yes"/>
      <point x="580" y="377"/>
      <point x="523" y="453"/>
      <point x="473" y="495" type="curve"/>
      <point x="429" y="401"/>
      <point x="371" y="350"/>
      <point x="305" y="345" type="curve"/>
      <point x="330" y="317" type="line"/>
      <point x="349" y="336"/>
      <point x="362" y="361"/>
      <point x="362" y="392" type="curve" smooth="yes"/>
      <point x="362" y="451"/>
      <point x="323" y="486"/>
      <point x="268" y="486" type="curve" smooth="yes"/>
      <point x="207" y="486"/>
      <point x="168" y="436"/>
      <point x="168" y="372" type="curve" smooth="yes"/>
      <point x="168" y="288"/>
      <point x="230" y="217"/>
      <point x="326" y="217" type="curve" smooth="yes"/>
      <point x="399" y="217"/>
      <point x="476" y="258"/>
      <point x="528" y="343" type="curve"/>
      <point x="482" y="340" type="line"/>
      <point x="496" y="324"/>
      <point x="505" y="299"/>
      <point x="505" y="267" type="curve" smooth="yes"/>
      <point x="505" y="182"/>
      <point x="444" y="133"/>
      <point x="348" y="133" type="curve" smooth="yes"/>
      <point x="217" y="133"/>
      <point x="136" y="218"/>
      <point x="74" y="484" type="curve"/>
      <point x="6" y="468" type="line"/>
      <point x="72" y="130"/>
      <point x="152" y="-19"/>
    </contour>
    <contour>
      <point x="10" y="536" type="line"/>
      <point x="625" y="536" type="line"/>
      <point x="578" y="622" type="line"/>
      <point x="-35" y="622" type="line"/>
    </contour>
    <contour>
      <point x="336" y="-206" type="curve" smooth="yes"/>
      <point x="380" y="-206"/>
      <point x="407" y="-176"/>
      <point x="407" y="-128" type="curve" smooth="yes"/>
      <point x="407" y="-79"/>
      <point x="380" y="-49"/>
      <point x="336" y="-49" type="curve" smooth="yes"/>
      <point x="291" y="-49"/>
      <point x="263" y="-79"/>
      <point x="263" y="-128" type="curve" smooth="yes"/>
      <point x="263" y="-176"/>
      <point x="291" y="-206"/>
    </contour>
    <contour>
      <point x="492" y="-456" type="curve"/>
      <point x="536" y="-408" type="line"/>
      <point x="449" y="-292"/>
      <point x="353" y="-243"/>
      <point x="258" y="-215" type="curve"/>
      <point x="219" y="-332" type="line"/>
      <point x="317" y="-353"/>
      <point x="400" y="-379"/>
    </contour>
  </outline>
</glyph>
